<svg xmlns="http://www.w3.org/2000/svg" xmlns:xlink="http://www.w3.org/1999/xlink" width="500" zoomAndPan="magnify" viewBox="0 0 375 374.999991" height="500" preserveAspectRatio="xMidYMid meet" version="1.0"><defs><clipPath id="id1"><path d="M 13.519531 34.65625 L 361.519531 34.65625 L 361.519531 340.65625 L 13.519531 340.65625 Z M 13.519531 34.65625 " clip-rule="nonzero"/></clipPath></defs><g clip-path="url(#id1)"><path fill="#000000" d="M 106.144531 34.707031 C 105.5625 34.710938 105.003906 34.960938 104.609375 35.386719 C 93.136719 47.734375 85.121094 64.886719 83.449219 72.957031 C 80.097656 89.113281 80.386719 100.917969 83.328125 115.875 C 83.296875 115.988281 83.277344 116.105469 83.265625 116.222656 C 83.207031 116.828125 83.152344 117.4375 83.097656 118.050781 C 82.660156 122.914062 82.277344 127.996094 81.933594 133.242188 C 78.207031 123.027344 73.875 113.730469 65.398438 104.214844 C 59.917969 98.0625 44.410156 87.21875 28.304688 82.269531 C 28.097656 82.203125 27.882812 82.171875 27.671875 82.171875 C 26.9375 82.175781 26.257812 82.558594 25.871094 83.179688 C 25.488281 83.800781 25.449219 84.578125 25.769531 85.238281 C 30.492188 94.902344 44.910156 114.722656 56.378906 121.675781 C 65.300781 127.089844 76.207031 134.957031 81.019531 143.660156 L 81.292969 144.394531 C 80.429688 161.351562 79.992188 179.597656 79.882812 197.671875 C 75.453125 185.503906 70.328125 174.472656 60.257812 163.167969 C 53.851562 155.976562 35.414062 143.066406 16.375 137.210938 C 16.167969 137.148438 15.957031 137.117188 15.738281 137.117188 C 15.007812 137.121094 14.328125 137.5 13.941406 138.121094 C 13.554688 138.746094 13.515625 139.523438 13.839844 140.183594 C 19.394531 151.558594 36.601562 175.144531 50.046875 183.304688 C 60.675781 189.75 73.695312 199.109375 79.476562 209.585938 L 79.863281 210.632812 C 79.886719 219.328125 79.976562 227.902344 80.128906 236.175781 C 80.292969 244.984375 80.53125 253.429688 80.820312 261.367188 C 76.496094 249.722656 71.386719 239.089844 61.6875 228.203125 C 55.28125 221.007812 36.84375 208.101562 17.804688 202.246094 C 17.597656 202.179688 17.382812 202.148438 17.167969 202.148438 C 16.4375 202.152344 15.757812 202.535156 15.371094 203.15625 C 14.984375 203.777344 14.945312 204.554688 15.265625 205.214844 C 20.824219 216.589844 38.03125 240.179688 51.476562 248.339844 C 62.105469 254.785156 75.128906 264.148438 80.90625 274.621094 L 81.421875 276.015625 C 81.433594 276.035156 81.441406 276.058594 81.449219 276.078125 C 81.644531 280.019531 81.855469 283.757812 82.078125 287.261719 C 82.972656 301.253906 83.988281 311.296875 85.261719 316.03125 C 85.566406 317.164062 86.734375 317.835938 87.867188 317.53125 C 88.414062 317.382812 88.878906 317.027344 89.15625 316.535156 C 89.4375 316.046875 89.515625 315.464844 89.367188 314.921875 C 89.140625 314.078125 88.902344 312.878906 88.667969 311.394531 C 92.496094 309.265625 101.625 305.464844 113.835938 300.996094 C 117.257812 299.742188 120.945312 298.425781 124.835938 297.066406 L 125.578125 297.117188 C 137.25 299.703125 149.90625 309.550781 159.09375 317.929688 C 170.714844 328.53125 198.1875 338.378906 210.660156 340.492188 C 211.386719 340.617188 212.121094 340.355469 212.609375 339.804688 C 213.097656 339.253906 213.265625 338.492188 213.054688 337.785156 C 212.996094 337.582031 212.90625 337.390625 212.789062 337.214844 C 201.792969 320.59375 184.203125 306.542969 175.5 302.429688 C 161.449219 295.785156 149.152344 294.066406 135.835938 293.285156 C 143.988281 290.53125 152.816406 287.648438 162.058594 284.730469 C 169.925781 282.246094 178.105469 279.742188 186.414062 277.265625 L 187.496094 277.339844 C 199.167969 279.925781 211.824219 289.777344 221.007812 298.15625 C 232.628906 308.757812 260.101562 318.601562 272.574219 320.714844 C 273.300781 320.839844 274.035156 320.578125 274.523438 320.027344 C 275.007812 319.476562 275.179688 318.714844 274.96875 318.011719 C 274.910156 317.808594 274.820312 317.617188 274.703125 317.441406 C 263.707031 300.820312 246.117188 286.773438 237.414062 282.660156 C 223.78125 276.210938 211.804688 274.402344 198.941406 273.585938 C 216.238281 268.597656 233.777344 263.875 250.171875 259.929688 L 251.054688 259.992188 C 260.753906 262.148438 271.382812 270.394531 279.09375 277.429688 C 289.003906 286.46875 312.074219 294.707031 322.671875 296.503906 C 323.398438 296.625 324.132812 296.367188 324.621094 295.816406 C 325.105469 295.265625 325.277344 294.5 325.066406 293.796875 C 325.003906 293.597656 324.917969 293.402344 324.800781 293.230469 C 315.5 279.171875 300.71875 267.351562 293.277344 263.828125 C 283.292969 259.109375 274.355469 257.332031 265.09375 256.492188 C 268.703125 255.699219 272.226562 254.957031 275.648438 254.273438 C 276.246094 254.152344 276.84375 254.035156 277.433594 253.917969 C 277.480469 253.910156 277.527344 253.898438 277.570312 253.886719 C 277.574219 253.886719 277.582031 253.886719 277.585938 253.886719 L 283.664062 254.011719 C 283.71875 254.011719 283.777344 254.007812 283.839844 254.003906 C 294.738281 253.324219 302.375 254.300781 312.636719 256.550781 C 325.738281 259.421875 349.832031 255.007812 359.910156 251.261719 C 360.941406 250.875 361.511719 249.761719 361.21875 248.695312 L 361.21875 248.699219 C 361.058594 248.117188 360.65625 247.632812 360.117188 247.363281 C 345.039062 239.84375 326.332031 237 318.128906 237.679688 C 301.699219 239.035156 290.472656 242.648438 276.972656 249.703125 C 276.851562 249.703125 276.734375 249.71875 276.617188 249.742188 C 276.019531 249.859375 275.417969 249.976562 274.816406 250.097656 C 270.035156 251.054688 265.054688 252.121094 259.929688 253.28125 C 268.664062 246.808594 276.34375 240.019531 283.066406 229.191406 C 287.410156 222.1875 293.414062 204.234375 293.601562 187.371094 C 293.601562 187.15625 293.574219 186.941406 293.511719 186.734375 C 293.300781 186.035156 292.746094 185.492188 292.042969 185.296875 C 291.335938 185.101562 290.578125 185.285156 290.039062 185.777344 C 282.113281 193.046875 267.199219 212.496094 263.777344 225.472656 C 261.117188 235.570312 256.664062 248.269531 249.6875 255.347656 L 249.0625 255.816406 C 232.566406 259.789062 214.957031 264.53125 197.605469 269.542969 C 208.011719 261.84375 217.132812 253.804688 225.117188 240.9375 C 230.195312 232.75 237.351562 211.398438 237.574219 191.464844 C 237.578125 191.25 237.546875 191.035156 237.484375 190.832031 C 237.277344 190.128906 236.71875 189.582031 236.015625 189.390625 C 235.308594 189.195312 234.550781 189.375 234.011719 189.871094 C 224.683594 198.425781 206.945312 221.617188 202.933594 236.832031 C 199.765625 248.859375 194.476562 264.007812 186.078125 272.519531 L 185.179688 273.191406 C 176.855469 275.671875 168.664062 278.183594 160.777344 280.671875 C 152.386719 283.320312 144.359375 285.9375 136.835938 288.460938 C 146.769531 281.015625 155.511719 273.105469 163.203125 260.710938 C 168.28125 252.523438 175.4375 231.171875 175.660156 211.234375 C 175.664062 211.023438 175.632812 210.808594 175.570312 210.601562 C 175.359375 209.898438 174.804688 209.355469 174.097656 209.160156 C 173.394531 208.964844 172.636719 209.148438 172.097656 209.644531 C 162.769531 218.195312 145.03125 241.386719 141.019531 256.605469 C 137.847656 268.632812 132.558594 283.78125 124.160156 292.292969 L 122.96875 293.183594 C 122.949219 293.199219 122.933594 293.210938 122.914062 293.226562 C 119.191406 294.53125 115.667969 295.789062 112.375 296.996094 C 101.273438 301.0625 92.902344 304.410156 88.046875 306.898438 C 87.4375 301.84375 86.835938 295.027344 86.324219 286.992188 C 86.089844 283.351562 85.875 279.4375 85.667969 275.316406 L 85.929688 274.621094 C 91.707031 264.148438 104.730469 254.785156 115.359375 248.339844 C 128.804688 240.179688 146.011719 216.589844 151.570312 205.214844 C 151.890625 204.554688 151.851562 203.773438 151.460938 203.148438 C 151.070312 202.527344 150.386719 202.148438 149.652344 202.148438 C 149.441406 202.152344 149.234375 202.183594 149.03125 202.246094 C 129.992188 208.101562 111.554688 221.011719 105.148438 228.203125 C 94.804688 239.8125 89.679688 251.132812 85.160156 263.699219 C 84.828125 255.089844 84.5625 245.796875 84.382812 236.097656 C 84.226562 227.839844 84.140625 219.28125 84.121094 210.605469 L 84.5 209.585938 C 90.277344 199.109375 103.300781 189.75 113.925781 183.304688 C 127.375 175.144531 144.578125 151.558594 150.136719 140.183594 C 150.457031 139.523438 150.417969 138.742188 150.027344 138.117188 C 149.636719 137.492188 148.953125 137.117188 148.21875 137.117188 C 148.011719 137.117188 147.800781 137.148438 147.601562 137.210938 C 128.5625 143.066406 110.121094 155.976562 103.714844 163.167969 C 93.683594 174.429688 88.5625 185.417969 84.140625 197.535156 C 84.25 179.519531 84.6875 161.34375 85.546875 144.488281 L 85.855469 143.660156 C 90.667969 134.957031 101.574219 127.089844 110.5 121.675781 C 121.964844 114.722656 136.386719 94.902344 141.105469 85.238281 C 141.429688 84.578125 141.386719 83.796875 141 83.171875 C 140.609375 82.550781 139.925781 82.171875 139.191406 82.171875 C 138.980469 82.171875 138.773438 82.207031 138.570312 82.269531 C 122.46875 87.21875 106.957031 98.0625 101.480469 104.214844 C 94.132812 112.457031 89.898438 120.535156 86.472656 129.191406 C 86.738281 125.503906 87.023438 121.910156 87.332031 118.433594 C 87.390625 117.824219 87.441406 117.21875 87.5 116.617188 C 87.503906 116.566406 87.507812 116.515625 87.507812 116.46875 C 87.507812 116.464844 87.507812 116.464844 87.507812 116.460938 L 89.347656 110.664062 C 89.367188 110.609375 89.378906 110.550781 89.394531 110.496094 C 91.824219 99.835938 94.925781 92.78125 99.984375 83.566406 C 106.4375 71.804688 109.027344 47.425781 108.289062 36.691406 C 108.210938 35.585938 107.304688 34.726562 106.203125 34.707031 C 106.183594 34.707031 106.164062 34.707031 106.144531 34.707031 Z M 106.144531 34.707031 " fill-opacity="1" fill-rule="nonzero"/></g></svg>