<svg xmlns="http://www.w3.org/2000/svg" xmlns:xlink="http://www.w3.org/1999/xlink" width="500" zoomAndPan="magnify" viewBox="0 0 375 374.999991" height="500" preserveAspectRatio="xMidYMid meet" version="1.0"><defs><clipPath id="id1"><path d="M 30.324219 30.324219 L 344.574219 30.324219 L 344.574219 344.574219 L 30.324219 344.574219 Z M 30.324219 30.324219 " clip-rule="nonzero"/></clipPath></defs><g clip-path="url(#id1)"><path fill="#555555" d="M 77.464844 30.324219 L 297.4375 30.324219 C 298.980469 30.324219 300.523438 30.402344 302.058594 30.554688 C 303.59375 30.703125 305.121094 30.929688 306.632812 31.230469 C 308.148438 31.53125 309.644531 31.90625 311.121094 32.355469 C 312.597656 32.804688 314.050781 33.324219 315.476562 33.914062 C 316.902344 34.503906 318.296875 35.164062 319.660156 35.890625 C 321.019531 36.621094 322.34375 37.414062 323.625 38.269531 C 324.910156 39.128906 326.148438 40.046875 327.34375 41.027344 C 328.535156 42.003906 329.679688 43.039062 330.769531 44.132812 C 331.859375 45.222656 332.898438 46.367188 333.875 47.558594 C 334.855469 48.753906 335.773438 49.992188 336.632812 51.273438 C 337.488281 52.558594 338.28125 53.882812 339.011719 55.242188 C 339.738281 56.605469 340.398438 58 340.988281 59.425781 C 341.578125 60.851562 342.097656 62.300781 342.546875 63.78125 C 342.996094 65.257812 343.367188 66.753906 343.671875 68.265625 C 343.972656 69.78125 344.199219 71.308594 344.347656 72.84375 C 344.5 74.378906 344.574219 75.917969 344.574219 77.464844 L 344.574219 297.4375 C 344.574219 298.980469 344.5 300.523438 344.347656 302.058594 C 344.199219 303.59375 343.972656 305.121094 343.671875 306.632812 C 343.367188 308.148438 342.996094 309.644531 342.546875 311.121094 C 342.097656 312.597656 341.578125 314.050781 340.988281 315.476562 C 340.398438 316.902344 339.738281 318.296875 339.011719 319.660156 C 338.28125 321.019531 337.488281 322.34375 336.632812 323.625 C 335.773438 324.910156 334.855469 326.148438 333.875 327.34375 C 332.898438 328.535156 331.859375 329.679688 330.769531 330.769531 C 329.679688 331.859375 328.535156 332.898438 327.34375 333.875 C 326.148438 334.855469 324.910156 335.773438 323.625 336.632812 C 322.34375 337.488281 321.019531 338.28125 319.660156 339.011719 C 318.296875 339.738281 316.902344 340.398438 315.476562 340.988281 C 314.050781 341.578125 312.597656 342.097656 311.121094 342.546875 C 309.644531 342.996094 308.148438 343.367188 306.632812 343.671875 C 305.121094 343.972656 303.59375 344.199219 302.058594 344.347656 C 300.523438 344.5 298.980469 344.574219 297.4375 344.574219 L 77.464844 344.574219 C 75.917969 344.574219 74.378906 344.5 72.84375 344.347656 C 71.308594 344.199219 69.78125 343.972656 68.265625 343.671875 C 66.753906 343.367188 65.257812 342.996094 63.78125 342.546875 C 62.300781 342.097656 60.851562 341.578125 59.425781 340.988281 C 58 340.398438 56.605469 339.738281 55.242188 339.011719 C 53.882812 338.28125 52.558594 337.488281 51.273438 336.632812 C 49.992188 335.773438 48.753906 334.855469 47.558594 333.875 C 46.367188 332.898438 45.222656 331.859375 44.132812 330.769531 C 43.039062 329.679688 42.003906 328.535156 41.027344 327.34375 C 40.046875 326.148438 39.128906 324.910156 38.269531 323.625 C 37.414062 322.34375 36.621094 321.019531 35.890625 319.660156 C 35.164062 318.296875 34.503906 316.902344 33.914062 315.476562 C 33.324219 314.050781 32.804688 312.597656 32.355469 311.121094 C 31.90625 309.644531 31.53125 308.148438 31.230469 306.632812 C 30.929688 305.121094 30.703125 303.59375 30.554688 302.058594 C 30.402344 300.523438 30.324219 298.980469 30.324219 297.4375 L 30.324219 77.464844 C 30.324219 75.917969 30.402344 74.378906 30.554688 72.84375 C 30.703125 71.308594 30.929688 69.78125 31.230469 68.265625 C 31.53125 66.753906 31.90625 65.257812 32.355469 63.78125 C 32.804688 62.300781 33.324219 60.851562 33.914062 59.425781 C 34.503906 58 35.164062 56.605469 35.890625 55.242188 C 36.621094 53.882812 37.414062 52.558594 38.269531 51.273438 C 39.128906 49.992188 40.046875 48.753906 41.027344 47.558594 C 42.003906 46.367188 43.039062 45.222656 44.132812 44.132812 C 45.222656 43.039062 46.367188 42.003906 47.558594 41.027344 C 48.753906 40.046875 49.992188 39.128906 51.273438 38.269531 C 52.558594 37.414062 53.882812 36.621094 55.242188 35.890625 C 56.605469 35.164062 58 34.503906 59.425781 33.914062 C 60.851562 33.324219 62.300781 32.804688 63.78125 32.355469 C 65.257812 31.90625 66.753906 31.53125 68.265625 31.230469 C 69.78125 30.929688 71.308594 30.703125 72.84375 30.554688 C 74.378906 30.402344 75.917969 30.324219 77.464844 30.324219 Z M 77.464844 30.324219 " fill-opacity="1" fill-rule="nonzero"/></g><path fill="#f2f2f2" d="M 281.972656 235.324219 C 281.972656 235.324219 275.832031 253.125 263.558594 271.539062 C 260.488281 277.0625 245.757812 297.929688 227.960938 297.929688 C 215.070312 297.929688 206.476562 288.722656 189.90625 288.722656 C 169.652344 288.722656 161.671875 297.929688 148.785156 297.929688 C 142.03125 298.542969 135.28125 294.859375 127.914062 288.109375 C 80.65625 243.304688 78.199219 177.015625 96 150.011719 C 107.046875 132.210938 125.460938 121.164062 145.714844 120.550781 C 161.671875 120.550781 178.859375 130.984375 185.609375 130.984375 C 190.519531 130.984375 216.296875 118.707031 231.027344 119.9375 C 251.28125 121.777344 265.398438 129.144531 275.832031 143.257812 C 245.757812 157.988281 235.324219 215.070312 281.972656 235.324219 Z M 232.257812 64.695312 C 237.167969 84.335938 215.683594 121.777344 183.769531 119.9375 C 181.925781 93.542969 204.636719 66.539062 232.257812 64.695312 Z M 232.257812 64.695312 " fill-opacity="1" fill-rule="nonzero"/></svg>