<svg xmlns="http://www.w3.org/2000/svg" xmlns:xlink="http://www.w3.org/1999/xlink" width="500" zoomAndPan="magnify" viewBox="0 0 375 374.999991" height="500" preserveAspectRatio="xMidYMid meet" version="1.0"><defs><clipPath id="id1"><path d="M 113.503906 30.367188 L 261.253906 30.367188 L 261.253906 344.617188 L 113.503906 344.617188 Z M 113.503906 30.367188 " clip-rule="nonzero"/></clipPath></defs><path fill="#fde1de" d="M 260.507812 127.253906 L 260.507812 136.820312 C 260.507812 139.339844 258.644531 141.742188 255.265625 143.945312 L 255.269531 143.945312 L 232.597656 332.222656 C 232.597656 338.679688 212.589844 343.914062 187.910156 343.914062 C 163.230469 343.914062 143.21875 338.679688 143.21875 332.222656 L 120.636719 144.667969 C 116.515625 142.273438 114.222656 139.617188 114.222656 136.820312 L 114.222656 127.253906 C 114.222656 116.6875 146.96875 108.121094 187.367188 108.121094 C 227.761719 108.121094 260.507812 116.6875 260.507812 127.253906 " fill-opacity="1" fill-rule="nonzero"/><path fill="#75c487" d="M 197.921875 117.554688 C 197.917969 117.703125 197.878906 117.847656 197.820312 117.988281 L 195.761719 126.851562 C 195.761719 127.003906 195.71875 127.152344 195.660156 127.296875 L 176.347656 210.46875 C 176.347656 212.046875 172.851562 213.328125 168.539062 213.328125 C 164.222656 213.328125 160.730469 212.046875 160.730469 210.46875 C 160.730469 210.316406 160.769531 210.167969 160.832031 210.023438 L 180.144531 126.847656 C 180.144531 126.699219 180.183594 126.558594 180.242188 126.410156 L 182.300781 117.550781 C 182.300781 117.398438 182.34375 117.25 182.40625 117.105469 L 201.714844 33.933594 C 201.714844 32.351562 205.210938 31.070312 209.523438 31.070312 C 213.839844 31.070312 217.335938 32.351562 217.335938 33.933594 C 217.335938 34.082031 217.292969 34.230469 217.234375 34.375 L 197.921875 117.554688 " fill-opacity="1" fill-rule="nonzero"/><path fill="#edae9c" d="M 247.171875 211.171875 C 246.574219 216.15625 217.617188 215.28125 187.367188 198.164062 C 187.367188 198.164062 206.160156 205.753906 219.832031 201.152344 C 237.980469 195.042969 248.621094 199.144531 247.171875 211.171875 " fill-opacity="1" fill-rule="nonzero"/><path fill="#fbc97f" d="M 247.171875 211.171875 L 232.597656 332.222656 C 232.597656 338.679688 212.589844 343.914062 187.910156 343.914062 C 163.230469 343.914062 143.21875 338.679688 143.21875 332.222656 L 126.734375 195.316406 C 126.851562 195.308594 126.972656 195.304688 127.089844 195.292969 C 128.609375 195.152344 148.292969 173.300781 180.722656 194.15625 C 213.148438 215.011719 246.53125 216.511719 247.171875 211.171875 " fill-opacity="1" fill-rule="nonzero"/><g clip-path="url(#id1)"><path fill="#583532" d="M 211.253906 272.574219 C 211.253906 268.21875 214.78125 264.6875 219.128906 264.6875 C 223.476562 264.6875 227 268.21875 227 272.574219 C 227 276.929688 223.476562 280.457031 219.128906 280.457031 C 214.78125 280.457031 211.253906 276.929688 211.253906 272.574219 Z M 196.46875 271.460938 C 196.46875 275.816406 192.941406 279.347656 188.59375 279.347656 C 184.246094 279.347656 180.722656 275.816406 180.722656 271.460938 C 180.722656 267.109375 184.246094 263.578125 188.59375 263.578125 C 192.941406 263.578125 196.46875 267.109375 196.46875 271.460938 Z M 177.886719 253.28125 C 177.886719 257.636719 174.359375 261.167969 170.011719 261.167969 C 165.664062 261.167969 162.136719 257.636719 162.136719 253.28125 C 162.136719 248.925781 165.664062 245.398438 170.011719 245.398438 C 174.359375 245.398438 177.886719 248.925781 177.886719 253.28125 Z M 177.449219 284.34375 C 177.449219 288.699219 173.921875 292.230469 169.574219 292.230469 C 165.226562 292.230469 161.703125 288.699219 161.703125 284.34375 C 161.703125 279.988281 165.226562 276.457031 169.574219 276.457031 C 173.921875 276.457031 177.449219 279.988281 177.449219 284.34375 Z M 227.707031 288.949219 C 227.707031 293.304688 224.183594 296.832031 219.832031 296.832031 C 215.484375 296.832031 211.960938 293.304688 211.960938 288.949219 C 211.960938 284.59375 215.484375 281.0625 219.832031 281.0625 C 224.183594 281.0625 227.707031 284.59375 227.707031 288.949219 Z M 194.800781 290.15625 C 194.800781 294.511719 191.277344 298.042969 186.929688 298.042969 C 182.578125 298.042969 179.054688 294.511719 179.054688 290.15625 C 179.054688 285.800781 182.578125 282.269531 186.929688 282.269531 C 191.277344 282.269531 194.800781 285.800781 194.800781 290.15625 Z M 203.480469 81.988281 L 202.109375 81.660156 L 211.628906 41.957031 L 212.992188 42.285156 Z M 197.601562 106.503906 L 196.238281 106.175781 L 199.339844 93.222656 L 200.707031 93.550781 Z M 171.109375 300.660156 C 171.109375 305.015625 167.585938 308.542969 163.234375 308.542969 C 158.886719 308.542969 155.363281 305.015625 155.363281 300.660156 C 155.363281 296.304688 158.886719 292.773438 163.234375 292.773438 C 167.585938 292.773438 171.109375 296.304688 171.109375 300.660156 Z M 151.238281 296.230469 C 146.890625 296.230469 143.367188 292.699219 143.367188 288.34375 C 143.367188 283.988281 146.890625 280.457031 151.238281 280.457031 C 155.589844 280.457031 159.117188 283.988281 159.117188 288.34375 C 159.117188 292.699219 155.589844 296.230469 151.238281 296.230469 Z M 149.253906 272.574219 C 149.253906 268.21875 152.777344 264.6875 157.128906 264.6875 C 161.476562 264.6875 165 268.21875 165 272.574219 C 165 276.929688 161.476562 280.457031 157.128906 280.457031 C 152.777344 280.457031 149.253906 276.929688 149.253906 272.574219 Z M 192.121094 145.640625 L 195.308594 131.917969 C 198.035156 131.066406 199.976562 129.695312 199.976562 127.84375 C 199.976562 126.546875 198.933594 125.359375 197.042969 124.453125 L 200.597656 109.140625 C 234.390625 110.757812 259.804688 118.519531 259.804688 127.253906 C 259.804688 136.839844 229.273438 144.996094 192.121094 145.640625 Z M 259.804688 136.820312 C 259.804688 138.3125 259.0625 139.765625 257.675781 141.167969 L 257.246094 133.792969 C 258.308594 132.957031 259.164062 132.089844 259.804688 131.203125 Z M 253.554688 144.175781 L 252.648438 136.667969 C 253.851562 136.058594 254.933594 135.425781 255.898438 134.777344 L 256.332031 142.347656 C 255.535156 142.972656 254.609375 143.582031 253.554688 144.175781 Z M 247.894531 138.761719 C 249.109375 138.292969 250.25 137.8125 251.3125 137.320312 L 252.226562 144.886719 C 251.148438 145.429688 249.960938 145.964844 248.679688 146.480469 Z M 242.664062 140.535156 C 244.015625 140.125 245.308594 139.703125 246.53125 139.265625 L 247.324219 147.011719 C 246.046875 147.488281 244.6875 147.949219 243.25 148.398438 Z M 236.496094 142.179688 C 238.160156 141.785156 239.761719 141.375 241.28125 140.9375 L 241.871094 148.8125 C 240.355469 149.253906 238.761719 149.679688 237.089844 150.085938 Z M 231.183594 151.378906 L 231.183594 143.324219 C 232.527344 143.0625 233.835938 142.789062 235.109375 142.5 L 235.707031 150.414062 C 234.25 150.75 232.738281 151.074219 231.183594 151.378906 Z M 224.652344 144.460938 C 226.40625 144.191406 228.117188 143.898438 229.777344 143.59375 L 229.777344 151.648438 C 228.214844 151.941406 226.609375 152.21875 224.960938 152.480469 Z M 218.976562 145.25 C 220.425781 145.066406 221.855469 144.875 223.25 144.671875 L 223.558594 152.699219 C 222.191406 152.90625 220.792969 153.101562 219.367188 153.28125 Z M 212.652344 145.941406 C 214.324219 145.78125 215.964844 145.609375 217.574219 145.417969 L 217.96875 153.460938 C 216.335938 153.660156 214.671875 153.84375 212.980469 154.015625 Z M 205.617188 146.503906 C 207.527344 146.378906 209.410156 146.234375 211.25 146.070312 L 211.578125 154.148438 C 209.753906 154.320312 207.894531 154.472656 206.011719 154.605469 Z M 199.65625 154.972656 L 199.65625 146.828125 C 201.191406 146.761719 202.714844 146.6875 204.214844 146.59375 L 204.609375 154.699219 C 202.976562 154.804688 201.324219 154.894531 199.65625 154.972656 Z M 193.074219 155.191406 L 193.074219 147.035156 C 194.820312 147.003906 196.542969 146.949219 198.246094 146.886719 L 198.246094 155.035156 C 196.542969 155.101562 194.816406 155.15625 193.074219 155.191406 Z M 247.253906 204.625 C 246.644531 202.992188 245.675781 201.609375 244.339844 200.523438 C 239.664062 196.707031 230.878906 196.695312 219.609375 200.488281 C 206.726562 204.820312 188.878906 198.003906 187.6875 197.535156 C 185.5 196.300781 183.296875 194.976562 181.101562 193.566406 C 181.070312 193.546875 181.039062 193.527344 181.007812 193.507812 L 189.566406 156.652344 C 218.675781 156.433594 243.066406 151.894531 254.398438 145.285156 Z M 246.476562 211.082031 L 246.472656 211.085938 C 246.421875 211.542969 245.792969 211.902344 245.425781 212.078125 C 240.269531 214.507812 218.742188 212.910156 194.832031 201.28125 C 201.628906 203.039062 211.703125 204.632812 220.058594 201.820312 C 230.851562 198.1875 239.164062 198.113281 243.457031 201.613281 C 245.96875 203.664062 246.988281 206.851562 246.476562 211.082031 Z M 239.589844 268.289062 C 238.414062 267.585938 237.050781 267.175781 235.582031 267.175781 C 231.230469 267.175781 227.707031 270.707031 227.707031 275.0625 C 227.707031 279.417969 231.230469 282.949219 235.582031 282.949219 C 236.375 282.949219 237.140625 282.828125 237.863281 282.609375 L 237.5625 285.109375 C 234.554688 285.496094 230.71875 288.355469 231.960938 295.804688 C 233.300781 303.859375 226.261719 313.253906 222.242188 304.53125 C 218.222656 295.804688 211.855469 301.84375 207.5 297.148438 C 203.144531 292.449219 213.195312 278.019531 209.84375 274.328125 C 206.492188 270.636719 195.4375 276.003906 197.113281 287.753906 C 198.789062 299.496094 197.78125 305.535156 191.417969 307.886719 C 185.050781 310.234375 185.386719 299.160156 179.863281 297.816406 C 174.34375 296.476562 171.984375 307.886719 165.28125 310.234375 C 158.582031 312.582031 154.894531 308.554688 152.550781 302.851562 C 150.5625 298.015625 142.144531 296.785156 139.628906 296.527344 L 139.378906 294.449219 C 141.378906 293.019531 142.691406 290.6875 142.691406 288.035156 C 142.691406 284.710938 140.632812 281.875 137.726562 280.714844 L 127.511719 195.886719 C 127.835938 195.742188 128.253906 195.421875 129.015625 194.839844 C 144.625 182.914062 161.894531 182.886719 180.339844 194.75 C 202.832031 209.214844 225.890625 214.503906 238.332031 214.503906 C 241.804688 214.503906 244.453125 214.089844 246.023438 213.351562 C 246.09375 213.320312 246.152344 213.285156 246.214844 213.25 Z M 121.496094 145.933594 C 131.480469 151.234375 150.039062 155.09375 172.585938 156.277344 L 165.625 186.265625 C 158.890625 184.269531 152.3125 183.902344 145.941406 185.191406 C 136.945312 187.011719 130.792969 191.710938 128.164062 193.71875 C 127.863281 193.949219 127.566406 194.175781 127.328125 194.347656 Z M 119.167969 142.917969 L 119.425781 135.164062 C 120.648438 135.941406 122.050781 136.691406 123.617188 137.410156 L 122.671875 144.96875 C 121.347656 144.308594 120.175781 143.621094 119.167969 142.917969 Z M 117.796875 141.859375 C 115.929688 140.25 114.925781 138.558594 114.925781 136.820312 L 114.925781 131.203125 C 115.679688 132.246094 116.726562 133.253906 118.050781 134.230469 Z M 128.910156 139.515625 L 127.753906 147.140625 C 126.414062 146.644531 125.164062 146.132812 124.011719 145.609375 L 124.957031 138.003906 C 126.1875 138.523438 127.507812 139.027344 128.910156 139.515625 Z M 135.300781 141.445312 L 134.75 149.34375 C 132.738281 148.796875 130.851562 148.21875 129.105469 147.617188 L 130.261719 139.96875 C 131.847656 140.488281 133.53125 140.976562 135.300781 141.445312 Z M 140.90625 142.78125 L 140.90625 150.832031 C 139.25 150.476562 137.65625 150.101562 136.132812 149.707031 L 136.6875 141.804688 C 138.042969 142.144531 139.453125 142.46875 140.90625 142.78125 Z M 148.429688 144.199219 L 148.429688 152.265625 C 146.316406 151.914062 144.273438 151.535156 142.308594 151.128906 L 142.308594 143.078125 C 144.273438 143.476562 146.316406 143.851562 148.429688 144.199219 Z M 155.332031 145.195312 L 155.332031 153.28125 C 153.457031 153.039062 151.621094 152.773438 149.835938 152.492188 L 149.835938 144.421875 C 151.621094 144.699219 153.453125 144.960938 155.332031 145.195312 Z M 162.105469 145.941406 L 162.105469 154.046875 C 160.28125 153.871094 158.492188 153.671875 156.738281 153.457031 L 156.738281 145.371094 C 158.488281 145.578125 160.28125 145.769531 162.105469 145.941406 Z M 169.265625 154.644531 C 167.316406 154.511719 165.394531 154.355469 163.507812 154.179688 L 163.507812 146.070312 C 165.246094 146.226562 167.015625 146.363281 168.808594 146.484375 Z M 183.597656 108.851562 L 180.097656 123.941406 C 177.40625 124.890625 175.925781 126.265625 175.925781 127.84375 C 175.925781 129.15625 176.90625 130.226562 178.445312 131.042969 L 175.113281 145.40625 C 141.4375 143.878906 114.925781 136.1875 114.925781 127.253906 C 114.925781 117.5625 145.652344 109.359375 183.597656 108.851562 Z M 187.953125 131.527344 C 184.695312 131.527344 181.957031 130.996094 180.074219 130.25 L 180.453125 128.625 C 181.964844 129.804688 184.96875 130.417969 187.953125 130.417969 C 190.394531 130.417969 192.851562 130.007812 194.496094 129.207031 L 194.125 130.804688 C 192.429688 131.246094 190.328125 131.527344 187.953125 131.527344 Z M 178.777344 129.617188 C 177.851562 129.058594 177.332031 128.441406 177.332031 127.84375 C 177.332031 127.085938 178.222656 126.273438 179.707031 125.613281 L 179.574219 126.195312 C 179.503906 126.371094 179.472656 126.539062 179.453125 126.703125 Z M 190.671875 145.664062 C 189.574219 145.675781 188.472656 145.683594 187.367188 145.683594 C 183.695312 145.683594 180.082031 145.609375 176.542969 145.46875 L 179.753906 131.628906 C 182.03125 132.488281 185.039062 132.933594 187.953125 132.933594 C 189.9375 132.933594 191.960938 132.726562 193.773438 132.324219 Z M 191.667969 147.59375 L 191.667969 155.21875 C 191.078125 155.226562 190.488281 155.234375 189.894531 155.238281 Z M 187.367188 155.25 C 186.984375 155.25 186.605469 155.25 186.222656 155.246094 L 186.222656 147.089844 C 186.605469 147.089844 186.984375 147.09375 187.367188 147.09375 C 188.363281 147.09375 189.355469 147.085938 190.34375 147.078125 L 188.449219 155.25 C 188.085938 155.25 187.726562 155.25 187.367188 155.25 Z M 178.386719 155.105469 L 178.386719 146.953125 C 180.503906 147.019531 182.648438 147.0625 184.820312 147.082031 L 184.820312 155.238281 C 182.65625 155.21875 180.507812 155.171875 178.386719 155.105469 Z M 174.015625 156.347656 C 178.332031 156.554688 182.796875 156.660156 187.367188 156.660156 C 187.617188 156.660156 187.867188 156.660156 188.121094 156.660156 L 179.746094 192.726562 C 175.441406 190.085938 171.175781 188.070312 166.96875 186.691406 Z M 176.214844 146.878906 C 176.46875 146.886719 176.726562 146.894531 176.984375 146.90625 L 176.984375 155.054688 C 176.097656 155.019531 175.21875 154.980469 174.34375 154.9375 Z M 172.917969 154.867188 C 172.167969 154.824219 171.421875 154.78125 170.675781 154.734375 L 170.226562 146.574219 C 171.726562 146.667969 173.246094 146.746094 174.785156 146.816406 Z M 196.714844 125.859375 C 197.886719 126.472656 198.570312 127.1875 198.570312 127.84375 C 198.570312 128.703125 197.507812 129.609375 195.679688 130.308594 L 196.328125 127.523438 C 196.398438 127.335938 196.449219 127.148438 196.464844 126.945312 Z M 202.023438 35.707031 C 203.539062 36.886719 206.539062 37.5 209.523438 37.5 C 211.96875 37.5 214.425781 37.089844 216.066406 36.292969 L 195.078125 126.691406 L 195.078125 126.699219 L 194.984375 127.089844 C 194.539062 127.929688 191.847656 129.007812 187.953125 129.007812 C 183.75 129.007812 180.945312 127.753906 180.855469 126.894531 L 180.914062 126.628906 Z M 209.523438 31.773438 C 213.726562 31.773438 216.53125 33.03125 216.625 33.890625 L 216.554688 34.171875 C 216.109375 35.015625 213.417969 36.09375 209.523438 36.09375 C 205.253906 36.09375 202.417969 34.789062 202.417969 33.933594 C 202.417969 33.074219 205.253906 31.773438 209.523438 31.773438 Z M 200.917969 107.746094 L 217.898438 34.605469 C 217.964844 34.441406 218.003906 34.269531 218.019531 34.09375 C 218.023438 34.039062 218.039062 33.988281 218.039062 33.933594 C 218.039062 31.59375 213.753906 30.367188 209.523438 30.367188 C 205.394531 30.367188 201.222656 31.539062 201.03125 33.773438 L 183.925781 107.441406 C 165.152344 107.667969 147.625 109.742188 134.523438 113.292969 C 120.980469 116.96875 113.519531 121.925781 113.519531 127.253906 L 113.519531 136.820312 C 113.519531 139.785156 115.820312 142.574219 119.976562 145.078125 L 142.519531 332.269531 C 142.605469 340 165.636719 344.617188 187.910156 344.617188 C 210.179688 344.617188 233.214844 340 233.300781 332.265625 L 247.871094 211.257812 L 247.871094 211.253906 L 255.929688 144.324219 C 259.339844 142.019531 261.210938 139.488281 261.210938 136.820312 L 261.210938 127.253906 C 261.210938 117.46875 236.464844 109.476562 200.917969 107.746094 " fill-opacity="1" fill-rule="nonzero"/></g></svg>