<svg xmlns="http://www.w3.org/2000/svg" xmlns:xlink="http://www.w3.org/1999/xlink" width="500" zoomAndPan="magnify" viewBox="0 0 375 374.999991" height="500" preserveAspectRatio="xMidYMid meet" version="1.0"><defs><filter x="0%" y="0%" width="100%" height="100%" id="id1"><feColorMatrix values="0 0 0 0 1 0 0 0 0 1 0 0 0 0 1 0 0 0 1 0" color-interpolation-filters="sRGB"/></filter><mask id="id2"><g filter="url(#id1)"><rect x="-37.5" width="450" fill="#000000" y="-37.499999" height="449.999989" fill-opacity="0.4196"/></g></mask><clipPath id="id3"><path d="M 0.878906 0.960938 L 36.640625 0.960938 L 36.640625 17.761719 L 0.878906 17.761719 Z M 0.878906 0.960938 " clip-rule="nonzero"/></clipPath><clipPath id="id4"><rect x="0" width="37" y="0" height="18"/></clipPath><mask id="id5"><g filter="url(#id1)"><rect x="-37.5" width="450" fill="#000000" y="-37.499999" height="449.999989" fill-opacity="0.349"/></g></mask><clipPath id="id6"><path d="M 0.0390625 0.28125 L 252.28125 0.28125 L 252.28125 87.398438 L 0.0390625 87.398438 Z M 0.0390625 0.28125 " clip-rule="nonzero"/></clipPath><clipPath id="id7"><rect x="0" width="253" y="0" height="88"/></clipPath><clipPath id="id8"><path d="M 44 232 L 337 232 L 337 330.117188 L 44 330.117188 Z M 44 232 " clip-rule="nonzero"/></clipPath><clipPath id="id9"><path d="M 42 230 L 339 230 L 339 330.117188 L 42 330.117188 Z M 42 230 " clip-rule="nonzero"/></clipPath><mask id="id10"><g filter="url(#id1)"><rect x="-37.5" width="450" fill="#000000" y="-37.499999" height="449.999989" fill-opacity="0.1882"/></g></mask><clipPath id="id11"><path d="M 0.558594 0.601562 L 203.121094 0.601562 L 203.121094 78.601562 L 0.558594 78.601562 Z M 0.558594 0.601562 " clip-rule="nonzero"/></clipPath><clipPath id="id12"><rect x="0" width="204" y="0" height="79"/></clipPath><mask id="id13"><g filter="url(#id1)"><rect x="-37.5" width="450" fill="#000000" y="-37.499999" height="449.999989" fill-opacity="0.6196"/></g></mask><clipPath id="id14"><path d="M 0.28125 0.679688 L 258.039062 0.679688 L 258.039062 87.078125 L 0.28125 87.078125 Z M 0.28125 0.679688 " clip-rule="nonzero"/></clipPath><clipPath id="id15"><rect x="0" width="259" y="0" height="88"/></clipPath><mask id="id16"><g filter="url(#id1)"><rect x="-37.5" width="450" fill="#000000" y="-37.499999" height="449.999989" fill-opacity="0.349"/></g></mask><clipPath id="id17"><path d="M 0.519531 0.078125 L 252.761719 0.078125 L 252.761719 87.199219 L 0.519531 87.199219 Z M 0.519531 0.078125 " clip-rule="nonzero"/></clipPath><clipPath id="id18"><rect x="0" width="253" y="0" height="88"/></clipPath><clipPath id="id19"><path d="M 48 139 L 344.320312 139 L 344.320312 242 L 48 242 Z M 48 139 " clip-rule="nonzero"/></clipPath><mask id="id20"><g filter="url(#id1)"><rect x="-37.5" width="450" fill="#000000" y="-37.499999" height="449.999989" fill-opacity="0.1882"/></g></mask><clipPath id="id21"><path d="M 0.28125 0.398438 L 202.601562 0.398438 L 202.601562 78.398438 L 0.28125 78.398438 Z M 0.28125 0.398438 " clip-rule="nonzero"/></clipPath><clipPath id="id22"><rect x="0" width="203" y="0" height="79"/></clipPath><clipPath id="id23"><path d="M 336 175 L 344.320312 175 L 344.320312 184 L 336 184 Z M 336 175 " clip-rule="nonzero"/></clipPath><clipPath id="id24"><path d="M 50 45.117188 L 335 45.117188 L 335 144 L 50 144 Z M 50 45.117188 " clip-rule="nonzero"/></clipPath><clipPath id="id25"><path d="M 47 45.117188 L 337 45.117188 L 337 146 L 47 146 Z M 47 45.117188 " clip-rule="nonzero"/></clipPath><mask id="id26"><g filter="url(#id1)"><rect x="-37.5" width="450" fill="#000000" y="-37.499999" height="449.999989" fill-opacity="0.5176"/></g></mask><clipPath id="id27"><path d="M 0.199219 0.160156 L 252.441406 0.160156 L 252.441406 88 L 0.199219 88 Z M 0.199219 0.160156 " clip-rule="nonzero"/></clipPath><clipPath id="id28"><rect x="0" width="253" y="0" height="88"/></clipPath><mask id="id29"><g filter="url(#id1)"><rect x="-37.5" width="450" fill="#000000" y="-37.499999" height="449.999989" fill-opacity="0.1882"/></g></mask><clipPath id="id30"><path d="M 0.121094 0.519531 L 202.199219 0.519531 L 202.199219 80.199219 L 0.121094 80.199219 Z M 0.121094 0.519531 " clip-rule="nonzero"/></clipPath><clipPath id="id31"><rect x="0" width="203" y="0" height="81"/></clipPath><mask id="id32"><g filter="url(#id1)"><rect x="-37.5" width="450" fill="#000000" y="-37.499999" height="449.999989" fill-opacity="0.1569"/></g></mask><clipPath id="id33"><path d="M 0.320312 0.238281 L 27.921875 0.238281 L 27.921875 14.640625 L 0.320312 14.640625 Z M 0.320312 0.238281 " clip-rule="nonzero"/></clipPath><clipPath id="id34"><rect x="0" width="28" y="0" height="15"/></clipPath></defs><g mask="url(#id2)"><g transform="matrix(1, 0, 0, 1, 38, 180)"><g clip-path="url(#id4)"><path fill="#010101" d="M 14.523438 2.15625 L 1.878906 8.8125 L 35.683594 16.648438 Z M 14.523438 2.15625 " fill-opacity="1" fill-rule="nonzero"/><g clip-path="url(#id3)"><path stroke-linecap="butt" transform="matrix(0.163488, 0, 0, 0.163549, -12.365618, -156.799278)" fill="none" stroke-linejoin="miter" d="M 164.471575 971.915531 L 87.129105 1012.614416 L 293.901345 1060.526366 Z M 164.471575 971.915531 " stroke="#000000" stroke-width="1" stroke-opacity="1" stroke-miterlimit="10"/></g></g></g></g><path stroke-linecap="butt" transform="matrix(0.163488, 0, 0, 0.163549, 25.634382, 23.200719)" fill-opacity="1" fill="#ffffff" fill-rule="nonzero" stroke-linejoin="miter" d="M 1874.942011 1522.067022 L 1871.358022 1353.682551 L 660.041605 1632.030441 L 197.802668 1359.773053 C 197.802668 1359.773053 187.743607 1351.270235 179.118142 1355.306685 C 170.516569 1359.319251 169.799772 1366.890581 169.799772 1366.890581 L 163.444165 1505.061385 C 163.444165 1505.061385 162.584008 1513.922468 169.011294 1517.982803 C 175.43858 1522.067022 648.883455 1818.495344 648.883455 1818.495344 Z M 1874.942011 1522.067022 " stroke="#000000" stroke-width="1" stroke-opacity="1" stroke-miterlimit="10"/><path stroke-linecap="butt" transform="matrix(0.163488, 0, 0, 0.163549, 25.634382, 23.200719)" fill-opacity="1" fill="#f26822" fill-rule="nonzero" stroke-linejoin="miter" d="M 1293.73855 998.02111 L 1888.608953 1299.680099 L 665.011403 1591.785358 L 148.367521 1281.432477 Z M 1293.73855 998.02111 " stroke="#000000" stroke-width="1" stroke-opacity="1" stroke-miterlimit="10"/><g mask="url(#id5)"><g transform="matrix(1, 0, 0, 1, 65, 191)"><g clip-path="url(#id7)"><path fill="#f9a11b" d="M 70.445312 86.453125 C 70.265625 86.453125 70.089844 86.40625 69.933594 86.3125 L 1.539062 45.210938 C 1.191406 45.003906 1.007812 44.609375 1.066406 44.210938 C 1.128906 43.8125 1.417969 43.488281 1.808594 43.394531 L 171.105469 1.488281 C 171.335938 1.429688 171.582031 1.457031 171.792969 1.566406 L 250.753906 41.625 C 251.125 41.8125 251.339844 42.210938 251.292969 42.625 C 251.242188 43.039062 250.941406 43.378906 250.535156 43.476562 L 70.675781 86.425781 C 70.601562 86.445312 70.523438 86.453125 70.445312 86.453125 Z M 4.625 44.742188 L 70.609375 84.398438 L 247.441406 42.167969 L 171.226562 3.503906 Z M 4.625 44.742188 " fill-opacity="1" fill-rule="nonzero"/><g clip-path="url(#id6)"><path stroke-linecap="butt" transform="matrix(0.163488, 0, 0, 0.163549, -39.36562, -167.799278)" fill="none" stroke-linejoin="miter" d="M 671.677633 1554.597454 C 670.578543 1554.597454 669.503347 1554.310842 668.547616 1553.737619 L 250.200591 1302.426781 C 248.074091 1301.160912 246.951108 1298.748595 247.309507 1296.312395 C 247.691799 1293.876194 249.4599 1291.893795 251.849226 1291.320571 L 1287.382956 1035.089563 C 1288.792658 1034.731299 1290.297933 1034.898489 1291.588169 1035.56725 L 1774.566452 1280.500973 C 1776.836312 1281.647421 1778.150441 1284.083622 1777.863722 1286.61536 C 1777.553109 1289.147098 1775.713329 1291.225034 1773.22843 1291.822142 L 673.087335 1554.430264 C 672.633363 1554.549686 672.155498 1554.597454 671.677633 1554.597454 Z M 269.076263 1299.560662 L 672.68115 1542.034301 L 1754.304971 1283.820894 L 1288.123647 1047.413874 Z M 269.076263 1299.560662 " stroke="#000000" stroke-width="1" stroke-opacity="1" stroke-miterlimit="10"/></g></g></g></g><g clip-path="url(#id8)"><path fill="#cd5928" d="M 336.089844 271.183594 L 336.089844 279.125 L 132.632812 330.035156 L 46.289062 274.507812 C 46.289062 274.507812 40.042969 252.609375 49.890625 232.777344 L 134.355469 283.535156 L 334.398438 235.761719 L 334.398438 243.949219 L 133.542969 290.117188 L 57.03125 245.035156 C 55.453125 244.101562 53.449219 245.183594 53.367188 247.015625 L 52.34375 269.550781 C 52.308594 270.359375 52.710938 271.125 53.394531 271.554688 L 131.71875 320.613281 Z M 336.089844 271.183594 " fill-opacity="1" fill-rule="nonzero"/></g><g clip-path="url(#id9)"><path stroke-linecap="butt" transform="matrix(0.163488, 0, 0, 0.163549, 25.634382, 23.200719)" fill="none" stroke-linejoin="miter" d="M 1898.954733 1516.263132 L 1898.954733 1564.819959 L 654.474477 1876.104329 L 126.337938 1536.58869 C 126.337938 1536.58869 88.132621 1402.69318 148.367521 1281.432477 L 665.011403 1591.785358 L 1888.608953 1299.680099 L 1888.608953 1349.741638 L 660.041605 1632.030441 L 192.044393 1356.381479 C 182.391518 1350.673126 170.134277 1357.289084 169.632519 1368.490831 L 163.372486 1506.279485 C 163.157446 1511.22354 165.618452 1515.904867 169.799772 1518.532142 L 648.883455 1818.495344 Z M 1898.954733 1516.263132 " stroke="#000000" stroke-width="1" stroke-opacity="1" stroke-miterlimit="10"/></g><g mask="url(#id10)"><g transform="matrix(1, 0, 0, 1, 130, 243)"><g clip-path="url(#id12)"><path fill="#f9a11b" d="M 1.71875 77.613281 L 3.542969 47.117188 L 201.578125 1.59375 L 202.164062 29.132812 Z M 1.71875 77.613281 " fill-opacity="1" fill-rule="nonzero"/><g clip-path="url(#id11)"><path stroke-linecap="butt" transform="matrix(0.163488, 0, 0, 0.163549, -104.365619, -219.799278)" fill="none" stroke-linejoin="miter" d="M 648.88346 1818.49533 L 660.041611 1632.030427 L 1871.358028 1353.682536 L 1874.942016 1522.067007 Z M 648.88346 1818.49533 " stroke="#000000" stroke-width="1" stroke-opacity="1" stroke-miterlimit="10"/></g></g></g></g><path stroke-linecap="butt" transform="matrix(0.163488, 0, 0, 0.163549, 25.634382, 23.200719)" fill-opacity="1" fill="#e98d24" fill-rule="nonzero" stroke-linejoin="miter" d="M 1898.954733 1516.263132 L 1874.535825 1503.031217 L 1874.942011 1522.067022 Z M 1898.954733 1516.263132 " stroke="#000000" stroke-width="1" stroke-opacity="1" stroke-miterlimit="10"/><path stroke-linecap="butt" transform="matrix(0.163488, 0, 0, 0.163549, 25.634382, 23.200719)" fill-opacity="1" fill="#e98d24" fill-rule="nonzero" stroke-linejoin="miter" d="M 1888.608953 1349.717754 L 1871.429702 1357.169662 L 1871.358022 1353.682551 Z M 1888.608953 1349.717754 " stroke="#000000" stroke-width="1" stroke-opacity="1" stroke-miterlimit="10"/><path stroke-linecap="butt" transform="matrix(0.163488, 0, 0, 0.163549, 25.634382, 23.200719)" fill-opacity="1" fill="#fce586" fill-rule="nonzero" stroke-linejoin="miter" d="M 1251.805885 1086.846904 L 1572.453385 1263.089317 L 1450.09602 1306.128866 L 1146.627771 1115.412553 Z M 1251.805885 1086.846904 " stroke="#000000" stroke-width="1" stroke-opacity="1" stroke-miterlimit="10"/><path stroke-linecap="butt" transform="matrix(0.163488, 0, 0, 0.163549, 25.634382, 23.200719)" fill-opacity="1" fill="#fce586" fill-rule="nonzero" stroke-linejoin="miter" d="M 1050.266268 1150.641929 L 1354.069022 1331.135751 L 1341.740102 1338.348816 L 1038.295746 1156.684662 Z M 1050.266268 1150.641929 " stroke="#000000" stroke-width="1" stroke-opacity="1" stroke-miterlimit="10"/><path stroke-linecap="butt" transform="matrix(0.163488, 0, 0, 0.163549, 25.634382, 23.200719)" fill-opacity="1" fill="#e5e1d3" fill-rule="nonzero" stroke-linejoin="miter" d="M 195.461129 1397.581935 C 231.49216 1417.979146 267.117005 1439.069003 302.574597 1460.421587 C 320.35118 1471.002341 337.96051 1481.869708 355.665413 1492.593769 L 408.517296 1525.1481 L 461.130246 1558.08458 C 478.596217 1569.19079 496.133867 1580.177578 513.504264 1591.403209 C 548.340632 1613.758935 583.03364 1636.329619 617.29657 1659.592949 C 581.265539 1639.195738 545.640694 1618.105881 510.159208 1596.777182 C 492.382626 1586.172543 474.773296 1575.32906 457.068393 1564.605 L 404.240403 1532.026784 L 351.627452 1499.090304 C 334.161482 1487.984094 316.647725 1476.997306 299.253435 1465.771675 C 264.417067 1443.415949 229.724059 1420.845265 195.461129 1397.581935 Z M 195.461129 1397.581935 " stroke="#000000" stroke-width="1" stroke-opacity="1" stroke-miterlimit="10"/><path stroke-linecap="butt" transform="matrix(0.163488, 0, 0, 0.163549, 25.634382, 23.200719)" fill-opacity="1" fill="#e5e1d3" fill-rule="nonzero" stroke-linejoin="miter" d="M 193.597455 1443.20099 C 229.628486 1463.598202 265.253331 1484.688058 300.710923 1506.040642 C 318.487506 1516.621397 336.096836 1527.488763 353.801739 1538.212824 L 406.653622 1570.767155 L 459.266572 1603.703635 C 476.732543 1614.809845 494.270193 1625.796633 511.64059 1637.022265 C 546.500851 1659.37799 581.169966 1681.948675 615.432896 1705.212004 C 579.401865 1684.814793 543.77702 1663.724937 508.319428 1642.396237 C 490.518952 1631.791598 472.909622 1620.948116 455.228612 1610.224055 L 402.376729 1577.64584 L 349.763778 1544.70936 C 332.321701 1533.60315 314.784051 1522.616362 297.389761 1511.39073 C 262.553393 1489.035005 227.860385 1466.46432 193.597455 1443.20099 Z M 193.597455 1443.20099 " stroke="#000000" stroke-width="1" stroke-opacity="1" stroke-miterlimit="10"/><path stroke-linecap="butt" transform="matrix(0.163488, 0, 0, 0.163549, 25.634382, 23.200719)" fill-opacity="1" fill="#e5e1d3" fill-rule="nonzero" stroke-linejoin="miter" d="M 195.461129 1490.491948 C 231.49216 1510.913044 267.117005 1532.0029 302.574597 1553.3316 C 320.35118 1563.936239 337.96051 1574.779721 355.665413 1585.503782 L 408.517296 1618.081997 L 461.130246 1650.994593 C 478.596217 1662.100803 496.133867 1673.087591 513.504264 1684.337107 C 548.340632 1706.668948 583.03364 1729.263517 617.29657 1752.526846 C 581.265539 1732.129635 545.640694 1711.039779 510.159208 1689.711079 C 492.382626 1679.10644 474.773296 1668.239074 457.068393 1657.515013 L 404.240403 1624.960682 L 351.627452 1592.000317 C 334.161482 1580.917992 316.647725 1569.931204 299.253435 1558.681688 C 264.417067 1536.349847 229.724059 1513.755278 195.461129 1490.491948 Z M 195.461129 1490.491948 " stroke="#000000" stroke-width="1" stroke-opacity="1" stroke-miterlimit="10"/><path stroke-linecap="butt" transform="matrix(0.163488, 0, 0, 0.163549, 25.634382, 23.200719)" fill-opacity="1" fill="#e5e1d3" fill-rule="nonzero" stroke-linejoin="miter" d="M 721.375594 1663.008407 C 813.699137 1637.404414 906.404971 1613.329017 999.230272 1589.826844 C 1045.630976 1577.932452 1092.151146 1566.587399 1138.599637 1554.979618 L 1278.160147 1521.039996 L 1417.911803 1487.912441 L 1487.895151 1471.718871 L 1522.874878 1463.622086 L 1557.902392 1455.692491 C 1651.301131 1434.507097 1744.819337 1413.871043 1838.719834 1394.787469 C 1746.396291 1420.415347 1653.690457 1444.490744 1560.865156 1467.992917 L 1526.052681 1476.830116 L 1491.19242 1485.524009 L 1421.495792 1502.840143 L 1281.935281 1536.779765 L 1142.159732 1569.859551 C 1095.496202 1580.63138 1048.904352 1591.618168 1002.169143 1602.079501 C 908.794297 1623.288779 815.252198 1643.924834 721.375594 1663.008407 Z M 721.375594 1663.008407 " stroke="#000000" stroke-width="1" stroke-opacity="1" stroke-miterlimit="10"/><path stroke-linecap="butt" transform="matrix(0.163488, 0, 0, 0.163549, 25.634382, 23.200719)" fill-opacity="1" fill="#e5e1d3" fill-rule="nonzero" stroke-linejoin="miter" d="M 721.375594 1705.761344 C 813.699137 1680.15735 906.404971 1656.081954 999.230272 1632.579781 C 1045.630976 1620.685388 1092.151146 1609.340335 1138.599637 1597.732555 L 1278.160147 1563.769049 L 1417.911803 1530.665378 L 1487.895151 1514.471808 L 1522.874878 1506.375022 L 1557.902392 1498.445428 C 1651.301131 1477.260034 1744.819337 1456.600095 1838.719834 1437.540406 C 1746.396291 1463.168284 1653.690457 1487.24368 1560.865156 1510.745853 L 1526.052681 1519.583053 L 1491.19242 1528.276946 L 1421.495792 1545.593079 L 1281.935281 1579.532701 L 1142.159732 1612.612487 C 1095.496202 1623.360432 1048.904352 1634.371105 1002.169143 1644.832438 C 908.794297 1666.017832 815.252198 1686.67777 721.375594 1705.761344 Z M 721.375594 1705.761344 " stroke="#000000" stroke-width="1" stroke-opacity="1" stroke-miterlimit="10"/><path stroke-linecap="butt" transform="matrix(0.163488, 0, 0, 0.163549, 25.634382, 23.200719)" fill-opacity="1" fill="#e5e1d3" fill-rule="nonzero" stroke-linejoin="miter" d="M 721.375594 1753.147839 C 813.699137 1727.543845 906.404971 1703.468449 999.230272 1679.966276 C 1045.630976 1668.071883 1092.151146 1656.72683 1138.599637 1645.11905 L 1278.160147 1611.179428 L 1417.911803 1578.051873 L 1487.895151 1561.858303 L 1522.874878 1553.761518 L 1557.902392 1545.831923 C 1651.301131 1524.646529 1744.819337 1504.010475 1838.719834 1484.926901 C 1746.396291 1510.554779 1653.690457 1534.630176 1560.865156 1558.132349 L 1526.052681 1566.969548 L 1491.19242 1575.663441 L 1421.495792 1592.979575 L 1281.935281 1626.919196 L 1142.159732 1659.998982 C 1095.496202 1670.746927 1048.904352 1681.7576 1002.169143 1692.218933 C 908.794297 1713.404327 815.252198 1734.040381 721.375594 1753.147839 Z M 721.375594 1753.147839 " stroke="#000000" stroke-width="1" stroke-opacity="1" stroke-miterlimit="10"/><path stroke-linecap="butt" transform="matrix(0.163488, 0, 0, 0.163549, 25.634382, 23.200719)" fill-opacity="1" fill="#f04d6e" fill-rule="nonzero" stroke-linejoin="miter" d="M 1588.414081 1460.588777 L 1675.098815 1438.734622 C 1675.098815 1438.734622 1688.096746 1488.437897 1676.030652 1528.396367 L 1642.795132 1500.523364 L 1611.662219 1542.105968 C 1611.686112 1542.105968 1611.423286 1477.761605 1588.414081 1460.588777 Z M 1588.414081 1460.588777 " stroke="#000000" stroke-width="1" stroke-opacity="1" stroke-miterlimit="10"/><path stroke-linecap="butt" transform="matrix(0.163488, 0, 0, 0.163549, 25.634382, 23.200719)" fill-opacity="1" fill="#f04d6e" fill-rule="nonzero" stroke-linejoin="miter" d="M 1041.282404 1633.153004 L 1128.34943 1613.472323 C 1128.34943 1613.472323 1141.371254 1662.339646 1129.281267 1702.298117 L 1096.06964 1674.425113 L 1064.936727 1716.007718 C 1064.936727 1716.031602 1064.291609 1650.349716 1041.282404 1633.153004 Z M 1041.282404 1633.153004 " stroke="#000000" stroke-width="1" stroke-opacity="1" stroke-miterlimit="10"/><path stroke-linecap="butt" transform="matrix(0.163488, 0, 0, 0.163549, 25.634382, 23.200719)" fill-opacity="1" fill="#ffffff" fill-rule="nonzero" stroke-linejoin="miter" d="M 1887.724903 1002.893512 L 1896.445941 1220.049769 L 1390.338985 1522.640246 C 1390.338985 1522.640246 1319.447694 1466.918122 1366.397943 1320.125078 Z M 1887.724903 1002.893512 " stroke="#000000" stroke-width="1" stroke-opacity="1" stroke-miterlimit="10"/><path stroke-linecap="butt" transform="matrix(0.163488, 0, 0, 0.163549, 25.634382, 23.200719)" fill-opacity="1" fill="#55c1ae" fill-rule="nonzero" stroke-linejoin="miter" d="M 1892.909739 985.52961 L 1353.75841 1313.341931 L 87.129105 1012.614431 L 653.39928 714.585859 Z M 1892.909739 985.52961 " stroke="#000000" stroke-width="1" stroke-opacity="1" stroke-miterlimit="10"/><g mask="url(#id13)"><g transform="matrix(1, 0, 0, 1, 59, 145)"><g clip-path="url(#id15)"><path fill="#07b28f" d="M 186.652344 86.191406 C 186.539062 86.191406 186.429688 86.179688 186.316406 86.152344 L 2.375 42.460938 C 1.789062 42.324219 1.347656 41.832031 1.273438 41.234375 C 1.199219 40.636719 1.503906 40.050781 2.039062 39.769531 L 73.886719 1.941406 C 74.191406 1.78125 74.539062 1.734375 74.871094 1.808594 L 255.90625 41.394531 C 256.484375 41.519531 256.925781 41.984375 257.023438 42.570312 C 257.121094 43.15625 256.855469 43.738281 256.347656 44.046875 L 187.40625 85.980469 C 187.175781 86.121094 186.914062 86.191406 186.652344 86.191406 Z M 6.804688 40.535156 L 186.410156 83.195312 L 251.75 43.449219 L 74.765625 4.753906 Z M 6.804688 40.535156 " fill-opacity="1" fill-rule="nonzero"/><g clip-path="url(#id14)"><path stroke-linecap="butt" transform="matrix(0.163488, 0, 0, 0.163549, -33.36562, -121.799278)" fill="none" stroke-linejoin="miter" d="M 1345.778074 1271.735427 C 1345.08517 1271.735427 1344.416158 1271.663774 1343.723254 1271.496584 L 218.613706 1004.350441 C 215.029718 1003.51449 212.32978 1000.505065 211.875808 996.850764 C 211.421836 993.196462 213.28551 989.613814 216.558886 987.894143 L 656.02755 756.598367 C 657.891224 755.61911 660.017724 755.332498 662.048651 755.7863 L 1769.381616 997.830021 C 1772.917818 998.594319 1775.617756 1001.436553 1776.215087 1005.019202 C 1776.812419 1008.60185 1775.187677 1012.160614 1772.081554 1014.047476 L 1350.389473 1270.445674 C 1348.97977 1271.305509 1347.378922 1271.735427 1345.778074 1271.735427 Z M 245.708659 992.57547 L 1344.296692 1253.416152 L 1743.959191 1010.393174 L 661.403533 773.795079 Z M 245.708659 992.57547 " stroke="#000000" stroke-width="1" stroke-opacity="1" stroke-miterlimit="10"/></g></g></g></g><path stroke-linecap="butt" transform="matrix(0.163488, 0, 0, 0.163549, 25.634382, 23.200719)" fill-opacity="1" fill="#00b59c" fill-rule="nonzero" stroke-linejoin="miter" d="M 87.129105 1012.614431 C 87.129105 1012.614431 32.055149 1178.77766 97.068699 1234.786395 C 162.08225 1290.771247 1364.582055 1565.32153 1364.582055 1565.32153 L 1922.298445 1240.327558 L 1923.158602 1204.071157 L 1390.338985 1522.640246 C 1390.338985 1522.640246 1352.396494 1496.892947 1353.75841 1429.180893 C 1355.096432 1361.444956 1366.397943 1320.125078 1366.397943 1320.125078 L 1887.701009 1002.893512 L 1891.619504 985.219113 L 1353.734517 1313.341931 Z M 87.129105 1012.614431 " stroke="#000000" stroke-width="1" stroke-opacity="1" stroke-miterlimit="10"/><path stroke-linecap="butt" transform="matrix(0.163488, 0, 0, 0.163549, 25.634382, 23.200719)" fill-opacity="1" fill="#039e84" fill-rule="nonzero" stroke-linejoin="miter" d="M 1923.158602 1204.071157 L 1895.800823 1204.071157 L 1896.445941 1220.049769 Z M 1923.158602 1204.071157 " stroke="#000000" stroke-width="1" stroke-opacity="1" stroke-miterlimit="10"/><path stroke-linecap="butt" transform="matrix(0.163488, 0, 0, 0.163549, 25.634382, 23.200719)" fill-opacity="1" fill="#65c5b3" fill-rule="nonzero" stroke-linejoin="miter" d="M 288.931548 1060.526381 C 288.931548 1060.526381 200.478713 1221.411175 290.508503 1301.113158 L 337.697684 1314.201767 C 337.697684 1314.201767 259.16055 1220.145306 359.129935 1077.197638 Z M 288.931548 1060.526381 " stroke="#000000" stroke-width="1" stroke-opacity="1" stroke-miterlimit="10"/><path stroke-linecap="butt" transform="matrix(0.163488, 0, 0, 0.163549, 25.634382, 23.200719)" fill-opacity="1" fill="#65c5b3" fill-rule="nonzero" stroke-linejoin="miter" d="M 397.502505 1086.249796 C 397.502505 1086.249796 309.073563 1251.051619 399.127246 1330.753602 L 447.081011 1343.388408 C 447.081011 1343.388408 367.7554 1245.892605 467.700892 1102.921053 Z M 397.502505 1086.249796 " stroke="#000000" stroke-width="1" stroke-opacity="1" stroke-miterlimit="10"/><path stroke-linecap="butt" transform="matrix(0.163488, 0, 0, 0.163549, 25.634382, 23.200719)" fill-opacity="1" fill="#65c5b3" fill-rule="nonzero" stroke-linejoin="miter" d="M 923.894835 1210.710999 C 923.894835 1210.710999 836.517197 1382.845308 926.57088 1462.571176 L 973.688381 1473.820691 C 973.688381 1473.820691 894.123838 1370.329924 994.069329 1227.358371 Z M 923.894835 1210.710999 " stroke="#000000" stroke-width="1" stroke-opacity="1" stroke-miterlimit="10"/><path stroke-linecap="butt" transform="matrix(0.163488, 0, 0, 0.163549, 25.634382, 23.200719)" fill-opacity="1" fill="#65c5b3" fill-rule="nonzero" stroke-linejoin="miter" d="M 1032.489685 1236.434414 C 1032.489685 1236.434414 944.944794 1408.688145 1034.998477 1488.414012 L 1083.047816 1499.78295 C 1083.047816 1499.78295 1002.718688 1396.077223 1102.664179 1253.105671 Z M 1032.489685 1236.434414 " stroke="#000000" stroke-width="1" stroke-opacity="1" stroke-miterlimit="10"/><path stroke-linecap="butt" transform="matrix(0.163488, 0, 0, 0.163549, 25.634382, 23.200719)" fill-opacity="1" fill="#e5e1d3" fill-rule="nonzero" stroke-linejoin="miter" d="M 1874.511932 1060.239769 C 1836.808373 1087.70674 1798.196871 1113.668998 1759.250863 1139.081917 C 1739.873432 1151.955566 1720.161496 1164.255992 1700.616812 1176.84303 L 1641.433216 1213.744308 L 1581.771755 1249.833518 C 1561.70142 1261.560721 1541.822231 1273.598419 1521.584643 1285.062894 C 1481.300612 1308.278455 1440.658183 1330.968561 1399.131704 1352.13007 C 1436.811369 1324.6631 1475.422871 1298.700841 1514.344986 1273.264038 C 1533.722417 1260.414273 1553.458246 1248.113847 1573.00293 1235.526809 L 1632.186526 1198.649416 L 1691.87188 1162.58409 C 1711.918323 1150.833003 1731.821405 1138.819189 1752.058993 1127.354714 C 1792.343023 1104.139153 1832.961559 1081.449047 1874.511932 1060.239769 Z M 1874.511932 1060.239769 " stroke="#000000" stroke-width="1" stroke-opacity="1" stroke-miterlimit="10"/><path stroke-linecap="butt" transform="matrix(0.163488, 0, 0, 0.163549, 25.634382, 23.200719)" fill-opacity="1" fill="#e5e1d3" fill-rule="nonzero" stroke-linejoin="miter" d="M 1868.084646 1171.92286 C 1830.381088 1199.365946 1791.769585 1225.328204 1752.847471 1250.765007 C 1733.47004 1263.614772 1713.758103 1275.939082 1694.189526 1288.502236 L 1635.029824 1325.403514 L 1575.368363 1361.492724 C 1555.298027 1373.243811 1535.418838 1385.281509 1515.18125 1396.7221 C 1474.89722 1419.961545 1434.254791 1442.627767 1392.728311 1463.81316 C 1430.407976 1436.34619 1469.019479 1410.383932 1507.941593 1384.947129 C 1527.319024 1372.073479 1547.030961 1359.773053 1566.599537 1347.2099 L 1625.75924 1310.308622 L 1685.444595 1274.243296 C 1705.51493 1262.492209 1725.418012 1250.478395 1745.631707 1239.01392 C 1785.939631 1215.798359 1826.558166 1193.108253 1868.084646 1171.92286 Z M 1868.084646 1171.92286 " stroke="#000000" stroke-width="1" stroke-opacity="1" stroke-miterlimit="10"/><path stroke-linecap="butt" transform="matrix(0.163488, 0, 0, 0.163549, 25.634382, 23.200719)" fill-opacity="1" fill="#e5e1d3" fill-rule="nonzero" stroke-linejoin="miter" d="M 1869.87664 1116.821728 C 1831.456284 1143.094483 1792.653636 1168.72236 1753.444802 1193.729246 C 1714.331541 1218.855553 1674.835989 1243.384751 1635.292649 1267.818413 C 1595.629844 1292.061 1555.871465 1316.160281 1515.778581 1339.686338 C 1475.757377 1363.355702 1435.329987 1386.356304 1394.520305 1408.712029 C 1432.940661 1382.439275 1471.74331 1356.811397 1510.952143 1331.828396 C 1550.065404 1306.702089 1589.560957 1282.149006 1629.104296 1257.739229 C 1668.790995 1233.520526 1708.52548 1209.421245 1748.642258 1185.895188 C 1788.663462 1162.225825 1829.090852 1139.201338 1869.87664 1116.821728 Z M 1869.87664 1116.821728 " stroke="#000000" stroke-width="1" stroke-opacity="1" stroke-miterlimit="10"/><path stroke-linecap="butt" transform="matrix(0.163488, 0, 0, 0.163549, 25.634382, 23.200719)" fill-opacity="1" fill="#ffffff" fill-rule="nonzero" stroke-linejoin="miter" d="M 1914.700389 963.842645 L 1911.140294 795.458174 L 699.823877 1073.829949 L 237.58494 801.548676 C 237.58494 801.548676 227.525879 793.069742 218.900413 797.082308 C 210.298841 801.094874 209.582043 808.666204 209.582043 808.666204 L 203.226437 946.860892 C 203.226437 946.860892 202.36628 955.698091 208.769673 959.758426 C 215.220852 963.842645 688.665726 1260.270967 688.665726 1260.270967 Z M 1914.700389 963.842645 " stroke="#000000" stroke-width="1" stroke-opacity="1" stroke-miterlimit="10"/><path stroke-linecap="butt" transform="matrix(0.163488, 0, 0, 0.163549, 25.634382, 23.200719)" fill-opacity="1" fill="#fecf09" fill-rule="nonzero" stroke-linejoin="miter" d="M 1333.520822 439.820617 L 1928.391225 741.455722 L 704.769781 1033.560981 L 188.149793 723.2081 Z M 1333.520822 439.820617 " stroke="#000000" stroke-width="1" stroke-opacity="1" stroke-miterlimit="10"/><g mask="url(#id16)"><g transform="matrix(1, 0, 0, 1, 71, 100)"><g clip-path="url(#id18)"><path fill="#f9a11b" d="M 70.949219 86.15625 C 70.769531 86.15625 70.59375 86.109375 70.4375 86.015625 L 2.039062 44.914062 C 1.695312 44.707031 1.507812 44.3125 1.570312 43.914062 C 1.628906 43.515625 1.921875 43.191406 2.3125 43.097656 L 171.609375 1.191406 C 171.839844 1.136719 172.085938 1.164062 172.296875 1.269531 L 251.257812 41.328125 C 251.628906 41.515625 251.84375 41.914062 251.796875 42.328125 C 251.746094 42.742188 251.445312 43.082031 251.039062 43.179688 L 71.179688 86.128906 C 71.105469 86.148438 71.027344 86.15625 70.949219 86.15625 Z M 5.128906 44.449219 L 71.113281 84.101562 L 247.945312 41.875 L 171.730469 3.210938 Z M 5.128906 44.449219 " fill-opacity="1" fill-rule="nonzero"/><g clip-path="url(#id17)"><path stroke-linecap="butt" transform="matrix(0.163488, 0, 0, 0.163549, -45.365619, -76.799278)" fill="none" stroke-linejoin="miter" d="M 711.459899 996.373077 C 710.360809 996.373077 709.285612 996.086465 708.329882 995.513242 L 289.958964 744.202404 C 287.856357 742.936535 286.709481 740.524218 287.091773 738.088018 C 287.450172 735.651817 289.242166 733.669418 291.631492 733.096194 L 1327.165222 476.865186 C 1328.574924 476.530806 1330.080199 476.697996 1331.370435 477.342873 L 1814.348718 722.276596 C 1816.618578 723.423044 1817.932707 725.859245 1817.645988 728.390983 C 1817.335375 730.922721 1815.495595 733.000657 1813.010696 733.597765 L 712.869601 996.205887 C 712.415629 996.325309 711.937764 996.373077 711.459899 996.373077 Z M 308.858529 741.36017 L 712.463416 983.809924 L 1794.087237 725.620401 L 1327.905912 489.213381 Z M 308.858529 741.36017 " stroke="#000000" stroke-width="1" stroke-opacity="1" stroke-miterlimit="10"/></g></g></g></g><path fill="#f9a11b" d="M 342.59375 179.886719 L 342.59375 187.832031 L 139.136719 238.738281 L 52.792969 183.210938 C 52.792969 183.210938 46.546875 161.3125 56.394531 141.480469 L 140.855469 192.238281 L 340.902344 144.46875 L 340.902344 152.652344 L 140.046875 198.824219 L 63.535156 153.738281 C 61.957031 152.804688 59.953125 153.886719 59.871094 155.71875 L 58.847656 178.253906 C 58.8125 179.0625 59.214844 179.828125 59.898438 180.261719 L 138.222656 229.316406 Z M 342.59375 179.886719 " fill-opacity="1" fill-rule="nonzero"/><g clip-path="url(#id19)"><path stroke-linecap="butt" transform="matrix(0.163488, 0, 0, 0.163549, 25.634382, 23.200719)" fill="none" stroke-linejoin="miter" d="M 1938.737005 958.038755 L 1938.737005 1006.619466 L 694.256748 1317.879952 L 166.12021 978.364313 C 166.12021 978.364313 127.914893 844.468803 188.149793 723.2081 L 704.769781 1033.560981 L 1928.391225 741.479606 L 1928.391225 791.517261 L 699.823877 1073.829949 L 231.826665 798.157102 C 222.17379 792.448749 209.916549 799.064707 209.414791 810.266454 L 203.154757 948.055108 C 202.939718 952.999163 205.400724 957.68049 209.582043 960.33165 L 688.665726 1260.270967 Z M 1938.737005 958.038755 " stroke="#000000" stroke-width="1" stroke-opacity="1" stroke-miterlimit="10"/></g><g mask="url(#id20)"><g transform="matrix(1, 0, 0, 1, 137, 152)"><g clip-path="url(#id22)"><path fill="#f9a11b" d="M 1.222656 77.316406 L 3.046875 46.824219 L 201.082031 1.296875 L 201.664062 28.835938 Z M 1.222656 77.316406 " fill-opacity="1" fill-rule="nonzero"/><g clip-path="url(#id21)"><path stroke-linecap="butt" transform="matrix(0.163488, 0, 0, 0.163549, -111.365619, -128.799278)" fill="none" stroke-linejoin="miter" d="M 688.665732 1260.270952 L 699.823883 1073.829934 L 1911.1403 795.458159 L 1914.700395 963.84263 Z M 688.665732 1260.270952 " stroke="#000000" stroke-width="1" stroke-opacity="1" stroke-miterlimit="10"/></g></g></g></g><path fill="#e98d24" d="M 342.59375 179.886719 L 338.601562 177.726562 L 338.664062 180.835938 Z M 342.59375 179.886719 " fill-opacity="1" fill-rule="nonzero"/><g clip-path="url(#id23)"><path stroke-linecap="butt" transform="matrix(0.163488, 0, 0, 0.163549, 25.634382, 23.200719)" fill="none" stroke-linejoin="miter" d="M 1938.737005 958.038755 L 1914.318097 944.830725 L 1914.700389 963.842645 Z M 1938.737005 958.038755 " stroke="#000000" stroke-width="1" stroke-opacity="1" stroke-miterlimit="10"/></g><path stroke-linecap="butt" transform="matrix(0.163488, 0, 0, 0.163549, 25.634382, 23.200719)" fill-opacity="1" fill="#e98d24" fill-rule="nonzero" stroke-linejoin="miter" d="M 1928.391225 791.493377 L 1911.211974 798.945285 L 1911.140294 795.458174 Z M 1928.391225 791.493377 " stroke="#000000" stroke-width="1" stroke-opacity="1" stroke-miterlimit="10"/><path stroke-linecap="butt" transform="matrix(0.163488, 0, 0, 0.163549, 25.634382, 23.200719)" fill-opacity="1" fill="#fce586" fill-rule="nonzero" stroke-linejoin="miter" d="M 1291.588157 528.622527 L 1612.235657 704.888824 L 1489.854398 747.904489 L 1186.410043 557.188176 Z M 1291.588157 528.622527 " stroke="#000000" stroke-width="1" stroke-opacity="1" stroke-miterlimit="10"/><path stroke-linecap="butt" transform="matrix(0.163488, 0, 0, 0.163549, 25.634382, 23.200719)" fill-opacity="1" fill="#fce586" fill-rule="nonzero" stroke-linejoin="miter" d="M 1090.04854 592.441436 L 1393.851294 772.911374 L 1381.522374 780.124439 L 1078.078018 598.460285 Z M 1090.04854 592.441436 " stroke="#000000" stroke-width="1" stroke-opacity="1" stroke-miterlimit="10"/><path stroke-linecap="butt" transform="matrix(0.163488, 0, 0, 0.163549, 25.634382, 23.200719)" fill-opacity="1" fill="#e5e1d3" fill-rule="nonzero" stroke-linejoin="miter" d="M 235.219508 839.357558 C 271.274431 859.778654 306.899277 880.86851 342.356869 902.19721 C 360.109558 912.801849 377.742782 923.645331 395.447685 934.369392 L 448.299568 966.923723 L 500.912518 999.860203 C 518.378488 1010.966413 535.916139 1021.953201 553.286536 1033.178832 C 588.122904 1055.534558 622.815912 1078.129127 657.078842 1101.368572 C 621.047811 1080.971361 585.422966 1059.881504 549.94148 1038.552805 C 532.164897 1027.948166 514.555567 1017.104683 496.850664 1006.380623 L 444.022675 973.802407 L 391.409724 940.865927 C 373.943754 929.759717 356.429997 918.772929 339.035706 907.547298 C 304.199339 885.191572 269.50633 862.620888 235.219508 839.357558 Z M 235.219508 839.357558 " stroke="#000000" stroke-width="1" stroke-opacity="1" stroke-miterlimit="10"/><path stroke-linecap="butt" transform="matrix(0.163488, 0, 0, 0.163549, 25.634382, 23.200719)" fill-opacity="1" fill="#e5e1d3" fill-rule="nonzero" stroke-linejoin="miter" d="M 233.379727 884.976613 C 269.410757 905.397709 305.035603 926.487565 340.493195 947.816265 C 358.269778 958.420904 375.879108 969.264386 393.584011 979.988447 L 446.435894 1012.542778 L 499.048844 1045.479258 C 516.514814 1056.585468 534.052465 1067.572256 551.422862 1078.821772 C 586.25923 1101.153613 620.952238 1123.748182 655.215168 1147.011512 C 619.184137 1126.590416 583.559292 1105.50056 548.101699 1084.17186 C 530.301223 1073.591105 512.691893 1062.723739 495.010884 1051.999678 L 442.159001 1019.421463 L 389.54605 986.484982 C 372.08008 975.378773 354.566323 964.391985 337.172032 953.166353 C 302.335665 930.810628 267.642656 908.239943 233.379727 884.976613 Z M 233.379727 884.976613 " stroke="#000000" stroke-width="1" stroke-opacity="1" stroke-miterlimit="10"/><path stroke-linecap="butt" transform="matrix(0.163488, 0, 0, 0.163549, 25.634382, 23.200719)" fill-opacity="1" fill="#e5e1d3" fill-rule="nonzero" stroke-linejoin="miter" d="M 235.219508 932.291456 C 271.274431 952.688667 306.899277 973.778523 342.356869 995.107223 C 360.109558 1005.711862 377.742782 1016.555344 395.447685 1027.279405 L 448.299568 1059.85762 L 500.912518 1092.770216 C 518.378488 1103.90031 535.916139 1114.863214 553.286536 1126.11273 C 588.122904 1148.444571 622.815912 1171.03914 657.078842 1194.302469 C 621.047811 1173.905258 585.422966 1152.815402 549.94148 1131.486702 C 532.164897 1120.882063 514.555567 1110.038581 496.850664 1099.290636 L 444.022675 1066.736305 L 391.409724 1033.799825 C 373.943754 1022.693615 356.429997 1011.706827 339.035706 1000.457311 C 304.199339 978.12547 269.50633 955.530901 235.219508 932.291456 Z M 235.219508 932.291456 " stroke="#000000" stroke-width="1" stroke-opacity="1" stroke-miterlimit="10"/><path stroke-linecap="butt" transform="matrix(0.163488, 0, 0, 0.163549, 25.634382, 23.200719)" fill-opacity="1" fill="#e5e1d3" fill-rule="nonzero" stroke-linejoin="miter" d="M 761.157866 1104.78403 C 853.481409 1079.180037 946.187243 1055.128524 1039.012544 1031.602467 C 1085.389355 1019.708075 1131.909525 1008.363022 1178.381908 996.779125 L 1317.918525 962.815619 L 1457.694075 929.688064 L 1527.677423 913.494494 L 1562.65715 905.397709 L 1597.684664 897.468114 C 1691.083403 876.28272 1784.601608 855.646666 1878.502106 836.563092 C 1786.178563 862.19097 1693.472729 886.266367 1600.647428 909.76854 L 1565.834953 918.629623 L 1530.974692 927.299632 L 1461.278064 944.615766 L 1321.717553 978.555388 L 1181.942004 1011.659058 C 1135.278474 1022.407003 1088.686624 1033.417675 1041.951415 1043.855124 C 948.552676 1065.064402 855.03447 1085.700457 761.157866 1104.78403 Z M 761.157866 1104.78403 " stroke="#000000" stroke-width="1" stroke-opacity="1" stroke-miterlimit="10"/><path stroke-linecap="butt" transform="matrix(0.163488, 0, 0, 0.163549, 25.634382, 23.200719)" fill-opacity="1" fill="#e5e1d3" fill-rule="nonzero" stroke-linejoin="miter" d="M 761.157866 1147.536967 C 853.481409 1121.932973 946.187243 1097.881461 1039.012544 1074.355404 C 1085.389355 1062.461011 1131.909525 1051.115958 1178.381908 1039.508178 L 1317.918525 1005.568556 L 1457.694075 972.441001 L 1527.677423 956.247431 L 1562.65715 948.150645 L 1597.684664 940.221051 C 1691.083403 919.035657 1784.601608 898.399602 1878.502106 879.316029 C 1786.178563 904.943907 1693.472729 929.019303 1600.647428 952.521476 L 1565.834953 961.358676 L 1530.974692 970.052569 L 1461.278064 987.368702 L 1321.717553 1021.308324 L 1181.942004 1054.38811 C 1135.278474 1065.15994 1088.686624 1076.170612 1041.951415 1086.608061 C 948.552676 1107.793455 855.03447 1128.453393 761.157866 1147.536967 Z M 761.157866 1147.536967 " stroke="#000000" stroke-width="1" stroke-opacity="1" stroke-miterlimit="10"/><path stroke-linecap="butt" transform="matrix(0.163488, 0, 0, 0.163549, 25.634382, 23.200719)" fill-opacity="1" fill="#e5e1d3" fill-rule="nonzero" stroke-linejoin="miter" d="M 761.157866 1194.923462 C 853.481409 1169.319468 946.187243 1145.267956 1039.012544 1121.741899 C 1085.389355 1109.847506 1131.909525 1098.502453 1178.381908 1086.918557 L 1317.918525 1052.955051 L 1457.694075 1019.851381 L 1527.677423 1003.633926 L 1562.65715 995.537141 L 1597.684664 987.63143 C 1691.083403 966.422152 1784.601608 945.786098 1878.502106 926.702524 C 1786.178563 952.330402 1693.472729 976.405799 1600.647428 999.931856 L 1565.834953 1008.769055 L 1530.974692 1017.439064 L 1461.278064 1034.755198 L 1321.717553 1068.694819 L 1181.942004 1101.79849 C 1135.278474 1112.546435 1088.686624 1123.557107 1041.951415 1133.994556 C 948.552676 1155.17995 855.03447 1175.839888 761.157866 1194.923462 Z M 761.157866 1194.923462 " stroke="#000000" stroke-width="1" stroke-opacity="1" stroke-miterlimit="10"/><path stroke-linecap="butt" transform="matrix(0.163488, 0, 0, 0.163549, 25.634382, 23.200719)" fill-opacity="1" fill="#f04d6e" fill-rule="nonzero" stroke-linejoin="miter" d="M 1628.196352 902.3644 L 1714.881086 880.510245 C 1714.881086 880.510245 1727.879018 930.21352 1715.78903 970.17199 L 1682.577404 942.298987 L 1651.444491 983.881591 C 1651.468384 983.881591 1651.205558 919.561112 1628.196352 902.3644 Z M 1628.196352 902.3644 " stroke="#000000" stroke-width="1" stroke-opacity="1" stroke-miterlimit="10"/><path stroke-linecap="butt" transform="matrix(0.163488, 0, 0, 0.163549, 25.634382, 23.200719)" fill-opacity="1" fill="#f04d6e" fill-rule="nonzero" stroke-linejoin="miter" d="M 1081.064675 1074.928627 L 1168.131701 1055.27183 C 1168.131701 1055.27183 1181.129633 1104.139153 1169.063538 1144.097624 L 1135.851912 1116.200736 L 1104.718999 1157.783341 C 1104.718999 1157.807225 1104.049988 1092.125339 1081.064675 1074.928627 Z M 1081.064675 1074.928627 " stroke="#000000" stroke-width="1" stroke-opacity="1" stroke-miterlimit="10"/><path stroke-linecap="butt" transform="matrix(0.163488, 0, 0, 0.163549, 25.634382, 23.200719)" fill-opacity="1" fill="#ffffff" fill-rule="nonzero" stroke-linejoin="miter" d="M 161.461025 654.277946 L 166.287463 485.917359 L 1375.501273 773.269639 L 1839.747244 504.451593 C 1839.747244 504.451593 1849.877985 496.020427 1858.455664 500.104646 C 1867.033343 504.188866 1867.702354 511.760196 1867.702354 511.760196 L 1873.03055 649.978768 C 1873.03055 649.978768 1873.842921 658.839851 1867.391742 662.852418 C 1860.916669 666.888868 1385.273615 959.78231 1385.273615 959.78231 Z M 161.461025 654.277946 " stroke="#000000" stroke-width="1" stroke-opacity="1" stroke-miterlimit="10"/><g clip-path="url(#id24)"><path fill="#f0536d" d="M 147.679688 45.207031 L 50.066406 93.820312 L 249.75 143.074219 L 334.585938 92.949219 Z M 147.679688 45.207031 " fill-opacity="1" fill-rule="nonzero"/></g><g clip-path="url(#id25)"><path stroke-linecap="butt" transform="matrix(0.163488, 0, 0, 0.163549, 25.634382, 23.200719)" fill="none" stroke-linejoin="miter" d="M 746.5113 134.555096 L 149.442717 431.795485 L 1370.842088 732.952903 L 1889.75583 426.469281 Z M 746.5113 134.555096 " stroke="#000000" stroke-width="1" stroke-opacity="1" stroke-miterlimit="10"/></g><g mask="url(#id26)"><g transform="matrix(1, 0, 0, 1, 67, 50)"><g clip-path="url(#id28)"><path fill="#ffffff" d="M 181.703125 86.988281 C 181.882812 86.988281 182.058594 86.941406 182.214844 86.847656 L 250.914062 46.253906 C 251.261719 46.050781 251.449219 45.65625 251.394531 45.257812 C 251.335938 44.859375 251.046875 44.535156 250.65625 44.4375 L 81.675781 1.277344 C 81.445312 1.214844 81.199219 1.242188 80.988281 1.347656 L 1.734375 40.816406 C 1.359375 41.003906 1.144531 41.402344 1.1875 41.816406 C 1.234375 42.230469 1.535156 42.570312 1.9375 42.671875 L 181.472656 86.957031 C 181.546875 86.976562 181.625 86.988281 181.703125 86.988281 Z M 247.832031 45.765625 L 181.554688 84.929688 L 5.042969 41.390625 L 81.542969 3.292969 Z M 247.832031 45.765625 " fill-opacity="1" fill-rule="nonzero"/><g clip-path="url(#id27)"><path stroke-linecap="butt" transform="matrix(0.163488, 0, 0, 0.163549, -41.365619, -26.799281)" fill="none" stroke-linejoin="miter" d="M 1364.438701 695.741129 C 1365.537791 695.741129 1366.612988 695.454517 1367.568718 694.881294 L 1787.779417 446.675418 C 1789.905917 445.433433 1791.052793 443.021117 1790.718288 440.584916 C 1790.359889 438.148715 1788.591788 436.166316 1786.202462 435.569208 L 752.604086 171.671333 C 751.194384 171.289184 749.689109 171.456374 748.398873 172.101251 L 263.628595 413.428441 C 261.334843 414.574889 260.020713 417.01109 260.283539 419.542828 C 260.570258 422.074566 262.410039 424.152502 264.871044 424.773494 L 1363.028999 695.550055 C 1363.482971 695.669476 1363.960836 695.741129 1364.438701 695.741129 Z M 1768.927638 443.689878 L 1363.530758 683.154091 L 283.866183 416.939437 L 751.791716 183.995643 Z M 1768.927638 443.689878 " stroke="#000000" stroke-width="1" stroke-opacity="1" stroke-miterlimit="10"/></g></g></g></g><path stroke-linecap="butt" transform="matrix(0.163488, 0, 0, 0.163549, 25.634382, 23.200719)" fill-opacity="1" fill="#ed184a" fill-rule="nonzero" stroke-linejoin="miter" d="M 137.472196 648.282981 L 137.113797 696.863692 L 1379.252514 1017.367411 L 1909.921738 681.768801 C 1909.921738 681.768801 1949.106678 548.159903 1889.75583 426.469281 L 1370.842088 732.952903 L 149.442717 431.795485 L 149.060425 481.83314 L 1375.501273 773.269639 L 1845.529412 501.083904 C 1855.206181 495.447204 1867.415635 502.158698 1867.845713 513.360445 L 1873.078337 651.172984 C 1873.269483 656.140923 1870.760691 660.798366 1866.555478 663.401757 L 1385.249722 959.806195 Z M 137.472196 648.282981 " stroke="#000000" stroke-width="1" stroke-opacity="1" stroke-miterlimit="10"/><g mask="url(#id29)"><g transform="matrix(1, 0, 0, 1, 51, 101)"><g clip-path="url(#id31)"><path fill="#f9a11b" d="M 201.109375 79.171875 L 199.511719 48.667969 L 1.820312 1.671875 L 1.03125 29.207031 Z M 201.109375 79.171875 " fill-opacity="1" fill-rule="nonzero"/><g clip-path="url(#id30)"><path stroke-linecap="butt" transform="matrix(0.163488, 0, 0, 0.163549, -25.365618, -77.799278)" fill="none" stroke-linejoin="miter" d="M 1385.273615 959.782296 L 1375.501273 773.269624 L 166.287463 485.917344 L 161.461025 654.277931 Z M 1385.273615 959.782296 " stroke="#000000" stroke-width="1" stroke-opacity="1" stroke-miterlimit="10"/></g></g></g></g><path stroke-linecap="butt" transform="matrix(0.163488, 0, 0, 0.163549, 25.634382, 23.200719)" fill-opacity="1" fill="#e98d24" fill-rule="nonzero" stroke-linejoin="miter" d="M 137.472196 648.282981 L 162.01057 635.242141 L 161.461025 654.277946 Z M 137.472196 648.282981 " stroke="#000000" stroke-width="1" stroke-opacity="1" stroke-miterlimit="10"/><path stroke-linecap="butt" transform="matrix(0.163488, 0, 0, 0.163549, 25.634382, 23.200719)" fill-opacity="1" fill="#e98d24" fill-rule="nonzero" stroke-linejoin="miter" d="M 149.060425 481.83314 L 166.19189 489.40447 L 166.287463 485.917359 Z M 149.060425 481.83314 " stroke="#000000" stroke-width="1" stroke-opacity="1" stroke-miterlimit="10"/><path stroke-linecap="butt" transform="matrix(0.163488, 0, 0, 0.163549, 25.634382, 23.200719)" fill-opacity="1" fill="#f7acbc" fill-rule="nonzero" stroke-linejoin="miter" d="M 787.798847 223.691386 L 465.861111 397.545367 L 587.907864 441.49252 L 892.761922 253.021334 Z M 787.798847 223.691386 " stroke="#000000" stroke-width="1" stroke-opacity="1" stroke-miterlimit="10"/><path stroke-linecap="butt" transform="matrix(0.163488, 0, 0, 0.163549, 25.634382, 23.200719)" fill-opacity="1" fill="#f7acbc" fill-rule="nonzero" stroke-linejoin="miter" d="M 988.860599 288.991123 L 683.719822 467.215935 L 696.000956 474.500653 L 1000.783334 295.10551 Z M 988.860599 288.991123 " stroke="#000000" stroke-width="1" stroke-opacity="1" stroke-miterlimit="10"/><path stroke-linecap="butt" transform="matrix(0.163488, 0, 0, 0.163549, 25.634382, 23.200719)" fill-opacity="1" fill="#e5e1d3" fill-rule="nonzero" stroke-linejoin="miter" d="M 1841.825957 542.260475 C 1805.627674 562.394959 1769.859469 583.222088 1734.234624 604.28806 C 1716.386361 614.749393 1698.681459 625.449569 1680.904876 636.054208 L 1627.81406 668.22639 L 1574.938284 700.780721 C 1557.400634 711.743625 1539.791304 722.610992 1522.325333 733.717201 C 1487.321713 755.786315 1452.461452 778.118156 1418.03127 801.118758 C 1454.229553 781.008159 1489.997758 760.18103 1525.622603 739.115058 C 1543.470865 728.629841 1561.175768 717.929664 1578.928458 707.325025 L 1632.019273 675.128959 L 1684.871156 642.598512 C 1702.408807 631.611724 1720.04203 620.768242 1737.508 609.638148 C 1772.511621 587.569034 1807.371882 565.261077 1841.825957 542.260475 Z M 1841.825957 542.260475 " stroke="#000000" stroke-width="1" stroke-opacity="1" stroke-miterlimit="10"/><path stroke-linecap="butt" transform="matrix(0.163488, 0, 0, 0.163549, 25.634382, 23.200719)" fill-opacity="1" fill="#e5e1d3" fill-rule="nonzero" stroke-linejoin="miter" d="M 1843.331232 587.87953 C 1807.156842 608.014014 1771.388638 628.841143 1735.739899 649.907115 C 1717.891637 660.368448 1700.210627 671.092509 1682.410151 681.697148 L 1629.319335 713.86933 L 1576.467452 746.399776 C 1558.929802 757.386565 1541.320472 768.230047 1523.854502 779.336257 C 1488.850881 801.429255 1453.99062 823.761096 1419.560438 846.761698 C 1455.734828 826.627214 1491.526926 805.800086 1527.151771 784.734113 C 1545.000034 774.27278 1562.681043 763.54872 1580.457626 752.944081 L 1633.548442 720.771899 L 1686.400325 688.217568 C 1703.937975 677.254664 1721.571198 666.387297 1739.013275 655.281087 C 1774.040789 633.211974 1808.90105 610.880133 1843.331232 587.87953 Z M 1843.331232 587.87953 " stroke="#000000" stroke-width="1" stroke-opacity="1" stroke-miterlimit="10"/><path stroke-linecap="butt" transform="matrix(0.163488, 0, 0, 0.163549, 25.634382, 23.200719)" fill-opacity="1" fill="#e5e1d3" fill-rule="nonzero" stroke-linejoin="miter" d="M 1841.133053 635.170488 C 1804.93477 655.304972 1769.166565 676.132101 1733.54172 697.198073 C 1715.693457 707.659406 1697.988554 718.383466 1680.211971 728.988106 L 1627.121156 761.160287 L 1574.269273 793.690734 C 1556.731623 804.677522 1539.098399 815.521005 1521.632429 826.627214 C 1486.628808 848.720212 1451.768547 871.028169 1417.338365 894.052656 C 1453.536648 873.918172 1489.304853 853.091043 1524.929698 832.025071 C 1542.777961 821.563738 1560.482864 810.839677 1578.259447 800.235038 L 1631.326369 768.062857 L 1684.178252 735.508525 C 1701.739795 724.545622 1719.349125 713.678255 1736.815096 702.572045 C 1771.818716 680.479047 1806.678977 658.17109 1841.133053 635.170488 Z M 1841.133053 635.170488 " stroke="#000000" stroke-width="1" stroke-opacity="1" stroke-miterlimit="10"/><path stroke-linecap="butt" transform="matrix(0.163488, 0, 0, 0.163549, 25.634382, 23.200719)" fill-opacity="1" fill="#e5e1d3" fill-rule="nonzero" stroke-linejoin="miter" d="M 1313.952245 803.769918 C 1221.819848 777.473279 1129.281267 752.729122 1036.647112 728.534303 C 990.341981 716.281646 943.917384 704.602213 897.540573 692.660052 L 758.242889 657.66952 L 618.730165 623.514939 L 548.866284 606.772029 L 513.934343 598.436401 L 478.978509 590.244078 C 385.747022 568.366039 292.372177 547.037339 198.615039 527.261121 C 290.747435 553.581644 383.262124 578.325801 475.920172 602.52062 L 510.660967 611.620547 L 545.449548 620.553283 L 615.02671 638.394872 L 754.324395 673.385404 L 893.861012 707.5161 C 940.428968 718.598425 986.949139 729.967363 1033.588775 740.763076 C 1126.820261 762.641115 1220.195107 783.993699 1313.952245 803.769918 Z M 1313.952245 803.769918 " stroke="#000000" stroke-width="1" stroke-opacity="1" stroke-miterlimit="10"/><path stroke-linecap="butt" transform="matrix(0.163488, 0, 0, 0.163549, 25.634382, 23.200719)" fill-opacity="1" fill="#e5e1d3" fill-rule="nonzero" stroke-linejoin="miter" d="M 1313.641633 846.522855 C 1221.485343 820.226216 1128.970654 795.482058 1036.312606 771.28724 C 990.031369 759.034583 943.606772 747.355149 897.229961 735.389104 L 757.908383 700.398572 L 618.395659 666.243991 L 548.555671 649.524966 L 513.62373 641.165453 L 478.644003 632.997015 C 385.412517 611.095091 292.061564 589.766392 198.304426 569.990173 C 290.436823 596.310696 382.951511 621.078738 475.60956 645.273556 L 510.350354 654.373483 L 545.138936 663.30622 L 614.692205 681.147808 L 754.013782 716.114456 L 893.526506 750.245152 C 940.118356 761.351362 986.614633 772.720299 1033.278163 783.492129 C 1126.509649 805.394052 1219.884495 826.722752 1313.641633 846.522855 Z M 1313.641633 846.522855 " stroke="#000000" stroke-width="1" stroke-opacity="1" stroke-miterlimit="10"/><path stroke-linecap="butt" transform="matrix(0.163488, 0, 0, 0.163549, 25.634382, 23.200719)" fill-opacity="1" fill="#e5e1d3" fill-rule="nonzero" stroke-linejoin="miter" d="M 1313.283234 893.90935 C 1221.150837 867.588827 1128.612255 842.868553 1035.978101 818.649851 C 989.67297 806.421078 943.248373 794.741644 896.871562 782.775599 L 757.573878 747.785067 L 618.061154 713.630486 L 513.265332 688.551948 L 478.309498 680.359626 C 385.078011 658.481587 291.703165 637.152887 197.946028 617.376668 C 290.078424 643.697191 382.593113 668.441349 475.251161 692.660052 L 509.991955 701.759978 L 544.780537 710.66883 L 614.357699 728.510419 L 753.655384 763.500951 L 893.168107 797.631647 C 939.759957 808.737857 986.280127 820.08291 1032.919764 830.878624 C 1126.15125 852.780547 1219.526096 874.109247 1313.283234 893.90935 Z M 1313.283234 893.90935 " stroke="#000000" stroke-width="1" stroke-opacity="1" stroke-miterlimit="10"/><path stroke-linecap="butt" transform="matrix(0.163488, 0, 0, 0.163549, 25.634382, 23.200719)" fill-opacity="1" fill="#f04d6e" fill-rule="nonzero" stroke-linejoin="miter" d="M 448.419034 594.901521 L 361.901553 572.426374 C 361.901553 572.426374 348.521329 622.034111 360.300704 662.088119 L 393.72737 634.453958 L 424.549671 676.251522 C 424.549671 676.251522 425.290362 611.931043 448.419034 594.901521 Z M 448.419034 594.901521 " stroke="#000000" stroke-width="1" stroke-opacity="1" stroke-miterlimit="10"/><path stroke-linecap="butt" transform="matrix(0.163488, 0, 0, 0.163549, 25.634382, 23.200719)" fill-opacity="1" fill="#f04d6e" fill-rule="nonzero" stroke-linejoin="miter" d="M 994.260475 771.549968 L 907.336808 751.224409 C 907.336808 751.224409 893.980478 799.996195 905.759854 840.050203 L 939.186519 812.416043 L 970.00882 854.237491 C 970.00882 854.237491 971.131803 788.555605 994.260475 771.549968 Z M 994.260475 771.549968 " stroke="#000000" stroke-width="1" stroke-opacity="1" stroke-miterlimit="10"/><g mask="url(#id32)"><g transform="matrix(1, 0, 0, 1, 310, 138)"><g clip-path="url(#id34)"><path fill="#010101" d="M 20.660156 1.269531 L 26.789062 4.382812 L 1.261719 13.542969 Z M 20.660156 1.269531 " fill-opacity="1" fill-rule="nonzero"/><g clip-path="url(#id33)"><path stroke-linecap="butt" transform="matrix(0.163488, 0, 0, 0.163549, -284.365612, -114.799278)" fill="none" stroke-linejoin="miter" d="M 1865.743069 709.689559 L 1903.231588 728.725363 L 1747.089158 784.734099 Z M 1865.743069 709.689559 " stroke="#000000" stroke-width="1" stroke-opacity="1" stroke-miterlimit="10"/></g></g></g></g></svg>