<svg xmlns="http://www.w3.org/2000/svg" xmlns:xlink="http://www.w3.org/1999/xlink" width="500" zoomAndPan="magnify" viewBox="0 0 375 374.999991" height="500" preserveAspectRatio="xMidYMid meet" version="1.0"><defs><clipPath id="id1"><path d="M 54 57 L 321 57 L 321 339.132812 L 54 339.132812 Z M 54 57 " clip-rule="nonzero"/></clipPath><clipPath id="id2"><path d="M 40 36.132812 L 335 36.132812 L 335 52 L 40 52 Z M 40 36.132812 " clip-rule="nonzero"/></clipPath><clipPath id="id3"><path d="M 39.4375 110.675781 L 335.6875 110.675781 L 335.6875 170 L 39.4375 170 Z M 39.4375 110.675781 " clip-rule="nonzero"/></clipPath><clipPath id="id4"><path d="M 69 183 L 138 183 L 138 339.132812 L 69 339.132812 Z M 69 183 " clip-rule="nonzero"/></clipPath></defs><g clip-path="url(#id1)"><path fill="#fbc97f" d="M 320.402344 339.128906 L 54.75 339.128906 L 54.75 57.824219 L 320.402344 57.824219 L 320.402344 339.128906 " fill-opacity="1" fill-rule="nonzero"/></g><g clip-path="url(#id2)"><path fill="#dc6537" d="M 334.207031 51.207031 L 40.945312 51.207031 L 40.945312 36.140625 L 334.207031 36.140625 L 334.207031 51.207031 " fill-opacity="1" fill-rule="nonzero"/></g><g clip-path="url(#id3)"><path fill="#dc6537" d="M 335.714844 169.773438 L 39.4375 169.773438 L 39.4375 128.777344 C 39.4375 118.832031 47.492188 110.777344 57.425781 110.777344 L 317.722656 110.777344 C 327.660156 110.777344 335.714844 118.832031 335.714844 128.777344 L 335.714844 169.773438 " fill-opacity="1" fill-rule="nonzero"/></g><path fill="#d99a2c" d="M 312.117188 169.773438 L 63.035156 169.773438 L 63.035156 127.28125 C 63.035156 118.164062 70.417969 110.777344 79.53125 110.777344 L 295.621094 110.777344 C 304.734375 110.777344 312.117188 118.164062 312.117188 127.28125 L 312.117188 169.773438 " fill-opacity="1" fill-rule="nonzero"/><path fill="#dc6537" d="M 284.363281 169.773438 L 90.789062 169.773438 L 90.789062 125.324219 C 90.789062 117.289062 97.300781 110.777344 105.332031 110.777344 L 269.820312 110.777344 C 277.851562 110.777344 284.363281 117.289062 284.363281 125.324219 L 284.363281 169.773438 " fill-opacity="1" fill-rule="nonzero"/><path fill="#d99a2c" d="M 256.792969 169.773438 L 118.359375 169.773438 L 118.359375 123.082031 C 118.359375 116.285156 123.867188 110.777344 130.65625 110.777344 L 244.496094 110.777344 C 251.289062 110.777344 256.792969 116.285156 256.792969 123.082031 L 256.792969 169.773438 " fill-opacity="1" fill-rule="nonzero"/><path fill="#dc6537" d="M 226.367188 169.773438 L 148.785156 169.773438 L 148.785156 119.988281 C 148.785156 114.898438 152.90625 110.777344 157.992188 110.777344 L 217.160156 110.777344 C 222.246094 110.777344 226.367188 114.898438 226.367188 119.988281 L 226.367188 169.773438 " fill-opacity="1" fill-rule="nonzero"/><path fill="#d99a2c" d="M 201.378906 169.773438 L 173.773438 169.773438 L 173.773438 116.269531 C 173.773438 113.234375 176.234375 110.777344 179.265625 110.777344 L 195.886719 110.777344 C 198.917969 110.777344 201.378906 113.234375 201.378906 116.269531 L 201.378906 169.773438 " fill-opacity="1" fill-rule="nonzero"/><g clip-path="url(#id4)"><path fill="#dc6537" d="M 137.914062 339.128906 L 69.347656 339.128906 L 69.347656 183.992188 L 137.914062 183.992188 L 137.914062 339.128906 " fill-opacity="1" fill-rule="nonzero"/></g><path fill="#d99a2c" d="M 127.046875 269.847656 C 124.621094 269.847656 122.652344 271.816406 122.652344 274.242188 C 122.652344 276.671875 124.621094 278.640625 127.046875 278.640625 C 129.476562 278.640625 131.445312 276.671875 131.445312 274.242188 C 131.445312 271.816406 129.476562 269.847656 127.046875 269.847656 Z M 146.902344 190.605469 L 320.402344 190.605469 L 320.402344 183.992188 L 146.902344 183.992188 Z M 146.902344 302.070312 L 320.402344 302.070312 L 320.402344 295.457031 L 146.902344 295.457031 Z M 326.652344 51.207031 L 326.652344 57.824219 L 48.5 57.824219 L 48.5 51.207031 L 326.652344 51.207031 " fill-opacity="1" fill-rule="nonzero"/><path fill="#cceef9" d="M 76.1875 261.558594 L 131.074219 261.558594 L 131.074219 190.605469 L 76.1875 190.605469 Z M 320.402344 190.605469 L 320.402344 295.457031 L 153.292969 295.457031 L 153.292969 190.605469 L 320.402344 190.605469 " fill-opacity="1" fill-rule="nonzero"/><path fill="#def4f9" d="M 202.21875 190.605469 L 153.292969 219.003906 L 153.292969 277.765625 L 303.449219 190.605469 Z M 187.433594 190.605469 L 153.292969 210.425781 L 153.292969 214.890625 L 195.128906 190.605469 Z M 131.074219 231.902344 L 79.984375 261.558594 L 131.074219 261.558594 Z M 76.1875 259.648438 L 131.074219 227.792969 L 131.074219 223.324219 L 76.1875 255.179688 Z M 320.402344 201.882812 L 159.199219 295.457031 L 153.292969 295.457031 L 153.292969 284.851562 L 315.660156 190.605469 L 320.402344 190.605469 L 320.402344 201.882812 " fill-opacity="1" fill-rule="nonzero"/><path fill="#dc6537" d="M 224.34375 73.160156 C 225.050781 73.144531 225.898438 73.285156 226.410156 73.820312 C 226.96875 74.394531 226.910156 75.308594 226.605469 75.992188 C 225.949219 77.480469 224.097656 78.425781 222.679688 79.027344 C 221.175781 79.664062 219.601562 80.046875 218.011719 80.386719 C 218.042969 80.113281 218.085938 79.839844 218.152344 79.542969 C 218.792969 76.722656 221.125 73.226562 224.34375 73.160156 Z M 233.726562 86.085938 C 229.683594 86.496094 219.480469 87.488281 218.121094 82.308594 C 220.203125 81.863281 222.269531 81.375 224.210938 80.4375 C 225.996094 79.574219 227.910156 78.265625 228.546875 76.289062 C 229.1875 74.3125 228.300781 72.292969 226.339844 71.558594 C 222.5 70.113281 218.699219 73.367188 217.144531 76.640625 C 216.542969 77.90625 216.121094 79.316406 216.066406 80.730469 C 213.804688 81.203125 211.621094 81.925781 209.476562 82.761719 C 209.316406 78.144531 209.417969 72.808594 212.722656 69.5 C 214.535156 67.683594 217.1875 66.675781 219.667969 67.613281 C 220.832031 68.050781 221.335938 66.1875 220.183594 65.753906 C 217.792969 64.851562 215.105469 65.410156 213.011719 66.792969 C 210.703125 68.3125 209.238281 70.660156 208.453125 73.277344 C 207.605469 76.109375 207.527344 79.128906 207.558594 82.058594 C 207.5625 82.546875 207.578125 83.03125 207.589844 83.519531 C 205.808594 84.253906 204.042969 85.023438 202.253906 85.726562 C 201.429688 86.050781 200.304688 86.636719 199.386719 86.457031 C 198.632812 86.316406 198.773438 85.558594 198.867188 84.957031 C 199.121094 83.359375 200.003906 81.425781 199.074219 79.898438 C 198.824219 79.488281 198.171875 79.230469 197.753906 79.550781 C 193.820312 82.535156 189.4375 85.101562 184.792969 86.804688 C 184.164062 87.035156 182.632812 87.613281 182.28125 86.675781 C 181.972656 85.839844 183.0625 84.742188 183.605469 84.261719 C 185.34375 82.738281 187.503906 81.542969 189.636719 80.679688 C 190.109375 80.488281 190.589844 80.316406 191.066406 80.15625 C 191.289062 80.085938 191.507812 80.011719 191.726562 79.945312 C 193.617188 79.375 195.570312 79.035156 197.542969 78.941406 C 198.777344 78.882812 198.785156 76.953125 197.542969 77.011719 C 195.402344 77.113281 193.28125 77.464844 191.234375 78.078125 C 191.230469 78.082031 191.222656 78.082031 191.21875 78.085938 C 191.199219 78.089844 191.1875 78.09375 191.171875 78.097656 C 191.160156 78.101562 191.148438 78.105469 191.132812 78.109375 C 177.433594 82.21875 167.042969 93.980469 152.445312 95.613281 C 149.441406 95.949219 145.410156 96.023438 143.417969 93.289062 C 141.894531 91.195312 142.34375 88.417969 143.46875 86.257812 C 145.285156 82.777344 148.582031 80.457031 151.730469 78.273438 C 154.636719 76.261719 157.675781 74.433594 160.875 72.921875 C 168.042969 69.546875 175.875 68.113281 183.695312 67.234375 C 184.917969 67.097656 184.929688 65.164062 183.695312 65.304688 C 176.253906 66.140625 168.84375 67.421875 161.914062 70.359375 C 158.519531 71.800781 155.292969 73.589844 152.214844 75.621094 C 148.824219 77.863281 145.277344 80.238281 142.867188 83.570312 C 141.113281 86 139.941406 89.183594 140.777344 92.179688 C 141.71875 95.546875 144.84375 97.230469 148.125 97.601562 C 151.8125 98.015625 155.726562 97.207031 159.238281 96.125 C 162.816406 95.027344 166.222656 93.414062 169.488281 91.589844 C 173.273438 89.476562 176.921875 87.082031 180.6875 84.925781 C 180.476562 85.382812 180.335938 85.867188 180.320312 86.371094 C 180.28125 87.554688 181.066406 88.617188 182.195312 88.964844 C 183.449219 89.347656 184.78125 88.878906 185.941406 88.417969 C 187.335938 87.863281 188.714844 87.257812 190.058594 86.59375 C 192.675781 85.304688 195.164062 83.78125 197.53125 82.082031 C 197.464844 82.492188 197.339844 82.90625 197.265625 83.226562 C 197.066406 84.117188 196.816406 85.050781 196.890625 85.96875 C 197.09375 88.519531 199.757812 88.675781 201.695312 87.996094 C 203.714844 87.285156 205.679688 86.441406 207.652344 85.617188 C 207.734375 87.828125 207.847656 90.039062 207.945312 92.246094 C 208.113281 96.085938 208.277344 99.921875 208.445312 103.761719 C 208.5 105 210.429688 105.003906 210.375 103.761719 C 210.105469 97.566406 209.804688 91.371094 209.570312 85.175781 C 209.566406 85.066406 209.5625 84.949219 209.554688 84.835938 C 210.632812 84.402344 211.714844 83.988281 212.816406 83.621094 C 212.828125 83.617188 212.839844 83.617188 212.855469 83.609375 C 213.972656 83.238281 215.109375 82.957031 216.253906 82.707031 C 216.265625 82.746094 216.269531 82.78125 216.277344 82.820312 C 216.75 84.585938 218.023438 86 219.621094 86.839844 C 221.417969 87.785156 223.484375 88.121094 225.492188 88.238281 C 228.234375 88.398438 230.996094 88.289062 233.726562 88.015625 C 234.949219 87.890625 234.964844 85.960938 233.726562 86.085938 " fill-opacity="1" fill-rule="nonzero"/><path fill="#d99a2c" d="M 245.738281 78.949219 C 244.070312 78.949219 242.71875 80.304688 242.71875 81.972656 C 242.71875 83.640625 244.070312 84.992188 245.738281 84.992188 C 247.410156 84.992188 248.757812 83.640625 248.757812 81.972656 C 248.757812 80.304688 247.410156 78.949219 245.738281 78.949219 Z M 132.332031 81.972656 C 132.332031 83.640625 130.980469 84.992188 129.3125 84.992188 C 127.644531 84.992188 126.292969 83.640625 126.292969 81.972656 C 126.292969 80.304688 127.644531 78.949219 129.3125 78.949219 C 130.980469 78.949219 132.332031 80.304688 132.332031 81.972656 " fill-opacity="1" fill-rule="nonzero"/></svg>