<svg xmlns="http://www.w3.org/2000/svg" xmlns:xlink="http://www.w3.org/1999/xlink" width="500" zoomAndPan="magnify" viewBox="0 0 375 374.999991" height="500" preserveAspectRatio="xMidYMid meet" version="1.0"><defs><clipPath id="id1"><path d="M 34.316406 87 L 340.316406 87 L 340.316406 287.957031 L 34.316406 287.957031 Z M 34.316406 87 " clip-rule="nonzero"/></clipPath></defs><g clip-path="url(#id1)"><path fill="#34a853" d="M 322.785156 87.476562 L 51.585938 87.476562 C 51.019531 87.476562 50.449219 87.503906 49.882812 87.5625 C 49.316406 87.617188 48.753906 87.703125 48.195312 87.8125 C 47.640625 87.925781 47.085938 88.0625 46.542969 88.230469 C 46 88.394531 45.464844 88.585938 44.9375 88.804688 C 44.414062 89.023438 43.898438 89.265625 43.398438 89.535156 C 42.894531 89.804688 42.40625 90.097656 41.933594 90.414062 C 41.460938 90.730469 41.003906 91.070312 40.566406 91.429688 C 40.125 91.792969 39.703125 92.171875 39.300781 92.578125 C 38.898438 92.980469 38.515625 93.402344 38.15625 93.839844 C 37.796875 94.28125 37.457031 94.738281 37.140625 95.210938 C 36.824219 95.683594 36.53125 96.171875 36.261719 96.675781 C 35.996094 97.175781 35.75 97.691406 35.53125 98.21875 C 35.316406 98.742188 35.125 99.277344 34.957031 99.824219 C 34.792969 100.367188 34.652344 100.921875 34.542969 101.480469 C 34.429688 102.039062 34.347656 102.601562 34.289062 103.167969 C 34.234375 103.734375 34.207031 104.300781 34.203125 104.871094 L 34.203125 270.296875 C 34.207031 270.867188 34.234375 271.433594 34.289062 272 C 34.347656 272.566406 34.429688 273.128906 34.542969 273.6875 C 34.652344 274.246094 34.792969 274.800781 34.957031 275.34375 C 35.125 275.890625 35.316406 276.425781 35.53125 276.949219 C 35.75 277.476562 35.996094 277.992188 36.261719 278.492188 C 36.53125 278.996094 36.824219 279.484375 37.140625 279.957031 C 37.457031 280.429688 37.796875 280.886719 38.15625 281.328125 C 38.515625 281.769531 38.898438 282.1875 39.300781 282.59375 C 39.703125 282.996094 40.125 283.375 40.566406 283.738281 C 41.003906 284.101562 41.460938 284.4375 41.933594 284.753906 C 42.40625 285.070312 42.894531 285.363281 43.398438 285.632812 C 43.898438 285.902344 44.414062 286.144531 44.9375 286.363281 C 45.464844 286.582031 46 286.773438 46.542969 286.9375 C 47.085938 287.105469 47.640625 287.242188 48.195312 287.355469 C 48.753906 287.464844 49.316406 287.550781 49.882812 287.605469 C 50.449219 287.664062 51.019531 287.691406 51.585938 287.691406 L 322.785156 287.691406 C 323.351562 287.691406 323.921875 287.664062 324.488281 287.605469 C 325.054688 287.550781 325.617188 287.46875 326.175781 287.355469 C 326.734375 287.242188 327.285156 287.105469 327.828125 286.941406 C 328.375 286.773438 328.910156 286.582031 329.433594 286.363281 C 329.960938 286.144531 330.472656 285.902344 330.976562 285.632812 C 331.476562 285.363281 331.964844 285.074219 332.4375 284.757812 C 332.910156 284.441406 333.367188 284.101562 333.808594 283.738281 C 334.246094 283.378906 334.667969 282.996094 335.070312 282.59375 C 335.472656 282.191406 335.855469 281.769531 336.21875 281.328125 C 336.578125 280.886719 336.917969 280.429688 337.234375 279.957031 C 337.550781 279.484375 337.84375 278.996094 338.109375 278.496094 C 338.378906 277.992188 338.621094 277.476562 338.839844 276.953125 C 339.058594 276.425781 339.25 275.890625 339.417969 275.34375 C 339.582031 274.800781 339.71875 274.25 339.832031 273.691406 C 339.945312 273.132812 340.027344 272.566406 340.082031 272 C 340.140625 271.433594 340.167969 270.867188 340.167969 270.296875 L 340.167969 104.871094 C 340.167969 104.300781 340.140625 103.734375 340.082031 103.167969 C 340.027344 102.601562 339.945312 102.039062 339.832031 101.480469 C 339.71875 100.921875 339.582031 100.367188 339.417969 99.824219 C 339.25 99.277344 339.058594 98.742188 338.839844 98.214844 C 338.621094 97.691406 338.378906 97.175781 338.109375 96.675781 C 337.84375 96.171875 337.550781 95.683594 337.234375 95.210938 C 336.917969 94.738281 336.578125 94.28125 336.21875 93.839844 C 335.855469 93.398438 335.472656 92.976562 335.070312 92.574219 C 334.667969 92.171875 334.246094 91.789062 333.808594 91.429688 C 333.367188 91.066406 332.910156 90.730469 332.4375 90.414062 C 331.964844 90.09375 331.476562 89.804688 330.976562 89.535156 C 330.472656 89.265625 329.960938 89.023438 329.433594 88.804688 C 328.910156 88.585938 328.375 88.394531 327.828125 88.226562 C 327.285156 88.0625 326.734375 87.925781 326.175781 87.8125 C 325.617188 87.703125 325.054688 87.617188 324.488281 87.5625 C 323.921875 87.503906 323.351562 87.476562 322.785156 87.476562 Z M 235.273438 187.585938 L 330.753906 102.40625 C 331.015625 103.207031 331.152344 104.027344 331.164062 104.871094 L 331.164062 270.296875 C 331.152344 271.140625 331.015625 271.960938 330.753906 272.761719 Z M 322.773438 96.492188 C 323.09375 96.503906 323.410156 96.535156 323.726562 96.585938 L 192.730469 213.441406 C 192.351562 213.78125 191.945312 214.082031 191.507812 214.347656 C 191.074219 214.613281 190.617188 214.835938 190.144531 215.015625 C 189.667969 215.199219 189.179688 215.335938 188.679688 215.425781 C 188.175781 215.519531 187.671875 215.566406 187.164062 215.566406 C 186.65625 215.566406 186.148438 215.519531 185.648438 215.425781 C 185.148438 215.335938 184.660156 215.199219 184.183594 215.015625 C 183.710938 214.835938 183.253906 214.613281 182.820312 214.347656 C 182.382812 214.082031 181.976562 213.78125 181.597656 213.441406 L 50.636719 96.585938 C 50.953125 96.535156 51.269531 96.503906 51.585938 96.492188 Z M 43.625 272.761719 C 43.359375 271.960938 43.222656 271.140625 43.210938 270.296875 L 43.210938 104.871094 C 43.222656 104.027344 43.359375 103.207031 43.625 102.40625 L 139.101562 187.585938 Z M 51.585938 278.683594 C 51.269531 278.671875 50.953125 278.640625 50.636719 278.589844 L 145.859375 193.628906 L 175.628906 220.171875 C 176.417969 220.875 177.261719 221.5 178.167969 222.050781 C 179.070312 222.601562 180.015625 223.0625 181.003906 223.441406 C 181.988281 223.816406 183.003906 224.101562 184.042969 224.292969 C 185.082031 224.484375 186.128906 224.578125 187.1875 224.578125 C 188.242188 224.578125 189.292969 224.484375 190.332031 224.292969 C 191.371094 224.101562 192.382812 223.816406 193.371094 223.441406 C 194.359375 223.0625 195.304688 222.601562 196.207031 222.050781 C 197.109375 221.5 197.957031 220.875 198.746094 220.171875 L 228.507812 193.621094 L 323.730469 278.582031 C 323.414062 278.632812 323.097656 278.664062 322.777344 278.679688 Z M 51.585938 278.683594 " fill-opacity="1" fill-rule="nonzero"/></g></svg>