<svg xmlns="http://www.w3.org/2000/svg" xmlns:xlink="http://www.w3.org/1999/xlink" width="500" zoomAndPan="magnify" viewBox="0 0 375 374.999991" height="500" preserveAspectRatio="xMidYMid meet" version="1.0"><defs><clipPath id="id1"><path d="M 29.277344 29.277344 L 345.777344 29.277344 L 345.777344 344 L 29.277344 344 Z M 29.277344 29.277344 " clip-rule="nonzero"/></clipPath><clipPath id="id2"><path d="M 122 91 L 258 91 L 258 345.777344 L 122 345.777344 Z M 122 91 " clip-rule="nonzero"/></clipPath></defs><g clip-path="url(#id1)"><path fill="#1877f2" d="M 345.777344 187.527344 C 345.777344 100.128906 274.929688 29.277344 187.527344 29.277344 C 100.128906 29.277344 29.277344 100.128906 29.277344 187.527344 C 29.277344 266.515625 87.148438 331.984375 162.800781 343.855469 L 162.800781 233.273438 L 122.621094 233.273438 L 122.621094 187.527344 L 162.800781 187.527344 L 162.800781 152.664062 C 162.800781 113.003906 186.429688 91.09375 222.574219 91.09375 C 239.890625 91.09375 258 94.1875 258 94.1875 L 258 133.128906 L 238.042969 133.128906 C 218.386719 133.128906 212.253906 145.328125 212.253906 157.84375 L 212.253906 187.527344 L 256.144531 187.527344 L 249.128906 233.273438 L 212.253906 233.273438 L 212.253906 343.855469 C 287.910156 331.984375 345.777344 266.515625 345.777344 187.527344 " fill-opacity="1" fill-rule="nonzero"/></g><g clip-path="url(#id2)"><path fill="#ffffff" d="M 249.128906 233.273438 L 256.144531 187.527344 L 212.253906 187.527344 L 212.253906 157.84375 C 212.253906 145.328125 218.386719 133.128906 238.042969 133.128906 L 258 133.128906 L 258 94.1875 C 258 94.1875 239.890625 91.09375 222.574219 91.09375 C 186.429688 91.09375 162.800781 113.003906 162.800781 152.664062 L 162.800781 187.527344 L 122.621094 187.527344 L 122.621094 233.273438 L 162.800781 233.273438 L 162.800781 343.855469 C 170.859375 345.121094 179.117188 345.777344 187.527344 345.777344 C 195.941406 345.777344 204.199219 345.121094 212.253906 343.855469 L 212.253906 233.273438 L 249.128906 233.273438 " fill-opacity="1" fill-rule="nonzero"/></g></svg>