<svg xmlns="http://www.w3.org/2000/svg" xmlns:xlink="http://www.w3.org/1999/xlink" width="500" zoomAndPan="magnify" viewBox="0 0 375 374.999991" height="500" preserveAspectRatio="xMidYMid meet" version="1.0"><defs><clipPath id="id1"><path d="M 39.183594 97 L 143 97 L 143 277 L 39.183594 277 Z M 39.183594 97 " clip-rule="nonzero"/></clipPath><clipPath id="id2"><path d="M 332.472656 159.820312 L 191.003906 159.820312 L 191.003906 218.351562 L 272.433594 218.351562 C 264.84375 255.535156 233.097656 276.882812 191.003906 276.882812 C 141.316406 276.882812 101.292969 236.941406 101.292969 187.363281 C 101.292969 137.78125 141.316406 97.84375 191.003906 97.84375 C 212.398438 97.84375 231.71875 105.417969 246.902344 117.8125 L 291.066406 73.742188 C 264.152344 50.328125 229.648438 35.867188 191.003906 35.867188 C 106.8125 35.867188 39.183594 103.351562 39.183594 187.363281 C 39.183594 271.375 106.8125 338.859375 191.003906 338.859375 C 266.914062 338.859375 335.921875 283.769531 335.921875 187.363281 C 335.921875 178.410156 334.542969 168.769531 332.472656 159.820312 Z M 332.472656 159.820312 " clip-rule="nonzero"/></clipPath><clipPath id="id3"><path d="M 39.183594 35 L 335.921875 35 L 335.921875 188 L 39.183594 188 Z M 39.183594 35 " clip-rule="nonzero"/></clipPath><clipPath id="id4"><path d="M 332.472656 159.820312 L 191.003906 159.820312 L 191.003906 218.351562 L 272.433594 218.351562 C 264.84375 255.535156 233.097656 276.882812 191.003906 276.882812 C 141.316406 276.882812 101.292969 236.941406 101.292969 187.363281 C 101.292969 137.78125 141.316406 97.84375 191.003906 97.84375 C 212.398438 97.84375 231.71875 105.417969 246.902344 117.8125 L 291.066406 73.742188 C 264.152344 50.328125 229.648438 35.867188 191.003906 35.867188 C 106.8125 35.867188 39.183594 103.351562 39.183594 187.363281 C 39.183594 271.375 106.8125 338.859375 191.003906 338.859375 C 266.914062 338.859375 335.921875 283.769531 335.921875 187.363281 C 335.921875 178.410156 334.542969 168.769531 332.472656 159.820312 Z M 332.472656 159.820312 " clip-rule="nonzero"/></clipPath><clipPath id="id5"><path d="M 39.183594 35 L 335.921875 35 L 335.921875 338.859375 L 39.183594 338.859375 Z M 39.183594 35 " clip-rule="nonzero"/></clipPath><clipPath id="id6"><path d="M 332.472656 159.820312 L 191.003906 159.820312 L 191.003906 218.351562 L 272.433594 218.351562 C 264.84375 255.535156 233.097656 276.882812 191.003906 276.882812 C 141.316406 276.882812 101.292969 236.941406 101.292969 187.363281 C 101.292969 137.78125 141.316406 97.84375 191.003906 97.84375 C 212.398438 97.84375 231.71875 105.417969 246.902344 117.8125 L 291.066406 73.742188 C 264.152344 50.328125 229.648438 35.867188 191.003906 35.867188 C 106.8125 35.867188 39.183594 103.351562 39.183594 187.363281 C 39.183594 271.375 106.8125 338.859375 191.003906 338.859375 C 266.914062 338.859375 335.921875 283.769531 335.921875 187.363281 C 335.921875 178.410156 334.542969 168.769531 332.472656 159.820312 Z M 332.472656 159.820312 " clip-rule="nonzero"/></clipPath><clipPath id="id7"><path d="M 115 97 L 335.921875 97 L 335.921875 338.859375 L 115 338.859375 Z M 115 97 " clip-rule="nonzero"/></clipPath><clipPath id="id8"><path d="M 332.472656 159.820312 L 191.003906 159.820312 L 191.003906 218.351562 L 272.433594 218.351562 C 264.84375 255.535156 233.097656 276.882812 191.003906 276.882812 C 141.316406 276.882812 101.292969 236.941406 101.292969 187.363281 C 101.292969 137.78125 141.316406 97.84375 191.003906 97.84375 C 212.398438 97.84375 231.71875 105.417969 246.902344 117.8125 L 291.066406 73.742188 C 264.152344 50.328125 229.648438 35.867188 191.003906 35.867188 C 106.8125 35.867188 39.183594 103.351562 39.183594 187.363281 C 39.183594 271.375 106.8125 338.859375 191.003906 338.859375 C 266.914062 338.859375 335.921875 283.769531 335.921875 187.363281 C 335.921875 178.410156 334.542969 168.769531 332.472656 159.820312 Z M 332.472656 159.820312 " clip-rule="nonzero"/></clipPath></defs><g clip-path="url(#id1)"><g clip-path="url(#id2)"><path fill="#fbbc05" d="M 25.382812 276.882812 L 25.382812 97.84375 L 142.695312 187.363281 Z M 25.382812 276.882812 " fill-opacity="1" fill-rule="nonzero"/></g></g><g clip-path="url(#id3)"><g clip-path="url(#id4)"><path fill="#ea4335" d="M 25.382812 97.84375 L 142.695312 187.363281 L 191.003906 145.359375 L 356.625 118.5 L 356.625 22.097656 L 25.382812 22.097656 Z M 25.382812 97.84375 " fill-opacity="1" fill-rule="nonzero"/></g></g><g clip-path="url(#id5)"><g clip-path="url(#id6)"><path fill="#34a853" d="M 25.382812 276.882812 L 232.410156 118.5 L 286.925781 125.386719 L 356.625 22.097656 L 356.625 352.628906 L 25.382812 352.628906 Z M 25.382812 276.882812 " fill-opacity="1" fill-rule="nonzero"/></g></g><g clip-path="url(#id7)"><g clip-path="url(#id8)"><path fill="#4285f4" d="M 356.625 352.628906 L 142.695312 187.363281 L 115.09375 166.703125 L 356.625 97.84375 Z M 356.625 352.628906 " fill-opacity="1" fill-rule="nonzero"/></g></g></svg>