<svg xmlns="http://www.w3.org/2000/svg" xmlns:xlink="http://www.w3.org/1999/xlink" width="500" zoomAndPan="magnify" viewBox="0 0 375 374.999991" height="500" preserveAspectRatio="xMidYMid meet" version="1.0"><defs><clipPath id="id1"><path d="M 24.007812 24.007812 L 351.007812 24.007812 L 351.007812 351.007812 L 24.007812 351.007812 Z M 24.007812 24.007812 " clip-rule="nonzero"/></clipPath></defs><g clip-path="url(#id1)"><path fill="#ffffff" d="M 351.007812 187.507812 C 351.007812 190.183594 350.941406 192.855469 350.808594 195.527344 C 350.679688 198.203125 350.480469 200.871094 350.21875 203.53125 C 349.957031 206.195312 349.628906 208.851562 349.238281 211.496094 C 348.84375 214.144531 348.386719 216.777344 347.863281 219.402344 C 347.34375 222.027344 346.757812 224.636719 346.105469 227.234375 C 345.457031 229.828125 344.742188 232.40625 343.964844 234.96875 C 343.1875 237.527344 342.351562 240.070312 341.449219 242.585938 C 340.546875 245.105469 339.585938 247.601562 338.5625 250.074219 C 337.535156 252.546875 336.453125 254.992188 335.308594 257.410156 C 334.164062 259.832031 332.960938 262.21875 331.699219 264.578125 C 330.4375 266.941406 329.121094 269.265625 327.746094 271.5625 C 326.371094 273.855469 324.9375 276.117188 323.453125 278.34375 C 321.964844 280.566406 320.425781 282.753906 318.832031 284.902344 C 317.238281 287.050781 315.589844 289.160156 313.894531 291.230469 C 312.195312 293.296875 310.449219 295.324219 308.652344 297.304688 C 306.855469 299.289062 305.011719 301.226562 303.117188 303.117188 C 301.226562 305.011719 299.289062 306.855469 297.304688 308.652344 C 295.324219 310.449219 293.296875 312.195312 291.230469 313.894531 C 289.160156 315.589844 287.050781 317.238281 284.902344 318.832031 C 282.753906 320.425781 280.566406 321.964844 278.34375 323.453125 C 276.117188 324.9375 273.855469 326.371094 271.5625 327.746094 C 269.265625 329.121094 266.941406 330.4375 264.578125 331.699219 C 262.21875 332.960938 259.832031 334.164062 257.410156 335.308594 C 254.992188 336.453125 252.546875 337.535156 250.074219 338.558594 C 247.601562 339.585938 245.105469 340.546875 242.585938 341.449219 C 240.070312 342.351562 237.527344 343.1875 234.96875 343.964844 C 232.40625 344.742188 229.828125 345.457031 227.234375 346.105469 C 224.636719 346.757812 222.027344 347.34375 219.402344 347.863281 C 216.777344 348.386719 214.144531 348.84375 211.496094 349.238281 C 208.851562 349.628906 206.195312 349.957031 203.53125 350.21875 C 200.871094 350.480469 198.203125 350.679688 195.527344 350.808594 C 192.855469 350.941406 190.183594 351.007812 187.507812 351.007812 C 184.832031 351.007812 182.15625 350.941406 179.484375 350.808594 C 176.8125 350.679688 174.144531 350.480469 171.480469 350.21875 C 168.816406 349.957031 166.164062 349.628906 163.515625 349.238281 C 160.867188 348.84375 158.234375 348.386719 155.609375 347.863281 C 152.984375 347.34375 150.375 346.757812 147.777344 346.105469 C 145.183594 345.457031 142.605469 344.742188 140.042969 343.964844 C 137.484375 343.1875 134.945312 342.351562 132.425781 341.449219 C 129.90625 340.546875 127.410156 339.585938 124.9375 338.558594 C 122.464844 337.535156 120.019531 336.453125 117.601562 335.308594 C 115.183594 334.164062 112.792969 332.960938 110.433594 331.699219 C 108.074219 330.4375 105.746094 329.121094 103.449219 327.746094 C 101.15625 326.371094 98.894531 324.9375 96.671875 323.453125 C 94.445312 321.964844 92.257812 320.425781 90.109375 318.832031 C 87.960938 317.238281 85.851562 315.589844 83.78125 313.894531 C 81.714844 312.195312 79.6875 310.449219 77.707031 308.652344 C 75.722656 306.855469 73.785156 305.011719 71.894531 303.117188 C 70.003906 301.226562 68.15625 299.289062 66.359375 297.304688 C 64.5625 295.324219 62.816406 293.296875 61.117188 291.230469 C 59.421875 289.160156 57.777344 287.050781 56.183594 284.902344 C 54.589844 282.753906 53.046875 280.566406 51.5625 278.34375 C 50.074219 276.117188 48.644531 273.855469 47.269531 271.5625 C 45.890625 269.265625 44.574219 266.941406 43.3125 264.578125 C 42.050781 262.21875 40.847656 259.832031 39.703125 257.410156 C 38.558594 254.992188 37.476562 252.546875 36.453125 250.074219 C 35.429688 247.601562 34.464844 245.105469 33.5625 242.585938 C 32.664062 240.070312 31.824219 237.527344 31.046875 234.96875 C 30.269531 232.40625 29.554688 229.828125 28.90625 227.234375 C 28.257812 224.636719 27.671875 222.027344 27.148438 219.402344 C 26.625 216.777344 26.167969 214.144531 25.777344 211.496094 C 25.382812 208.851562 25.054688 206.195312 24.792969 203.53125 C 24.53125 200.871094 24.335938 198.203125 24.203125 195.527344 C 24.070312 192.855469 24.007812 190.183594 24.007812 187.507812 C 24.007812 184.832031 24.070312 182.15625 24.203125 179.484375 C 24.335938 176.8125 24.53125 174.144531 24.792969 171.480469 C 25.054688 168.816406 25.382812 166.164062 25.777344 163.515625 C 26.167969 160.867188 26.625 158.234375 27.148438 155.609375 C 27.671875 152.984375 28.257812 150.375 28.90625 147.777344 C 29.554688 145.183594 30.269531 142.605469 31.046875 140.042969 C 31.824219 137.484375 32.664062 134.945312 33.5625 132.425781 C 34.464844 129.90625 35.429688 127.410156 36.453125 124.9375 C 37.476562 122.464844 38.558594 120.019531 39.703125 117.601562 C 40.847656 115.183594 42.050781 112.792969 43.3125 110.433594 C 44.574219 108.074219 45.890625 105.746094 47.269531 103.449219 C 48.644531 101.15625 50.074219 98.894531 51.5625 96.671875 C 53.046875 94.445312 54.589844 92.257812 56.183594 90.109375 C 57.777344 87.960938 59.421875 85.851562 61.117188 83.78125 C 62.816406 81.714844 64.5625 79.6875 66.359375 77.707031 C 68.15625 75.722656 70.003906 73.785156 71.894531 71.894531 C 73.785156 70.003906 75.722656 68.15625 77.707031 66.359375 C 79.6875 64.5625 81.714844 62.816406 83.78125 61.117188 C 85.851562 59.421875 87.960938 57.777344 90.109375 56.183594 C 92.257812 54.589844 94.445312 53.046875 96.671875 51.5625 C 98.894531 50.074219 101.15625 48.644531 103.449219 47.269531 C 105.746094 45.890625 108.074219 44.574219 110.433594 43.3125 C 112.792969 42.050781 115.183594 40.847656 117.601562 39.703125 C 120.019531 38.558594 122.464844 37.476562 124.9375 36.453125 C 127.410156 35.429688 129.90625 34.464844 132.425781 33.5625 C 134.945312 32.664062 137.484375 31.824219 140.042969 31.046875 C 142.605469 30.269531 145.183594 29.554688 147.777344 28.90625 C 150.375 28.257812 152.984375 27.671875 155.609375 27.148438 C 158.234375 26.625 160.867188 26.167969 163.515625 25.777344 C 166.164062 25.382812 168.816406 25.054688 171.480469 24.792969 C 174.144531 24.53125 176.8125 24.335938 179.484375 24.203125 C 182.15625 24.070312 184.832031 24.007812 187.507812 24.007812 C 190.183594 24.007812 192.855469 24.070312 195.527344 24.203125 C 198.203125 24.335938 200.871094 24.53125 203.53125 24.792969 C 206.195312 25.054688 208.851562 25.382812 211.496094 25.777344 C 214.144531 26.167969 216.777344 26.625 219.402344 27.148438 C 222.027344 27.671875 224.636719 28.257812 227.234375 28.90625 C 229.828125 29.554688 232.40625 30.269531 234.96875 31.046875 C 237.527344 31.824219 240.070312 32.664062 242.585938 33.5625 C 245.105469 34.464844 247.601562 35.429688 250.074219 36.453125 C 252.546875 37.476562 254.992188 38.558594 257.410156 39.703125 C 259.832031 40.847656 262.21875 42.050781 264.578125 43.3125 C 266.941406 44.574219 269.265625 45.890625 271.5625 47.269531 C 273.855469 48.644531 276.117188 50.074219 278.34375 51.5625 C 280.566406 53.046875 282.753906 54.589844 284.902344 56.183594 C 287.050781 57.777344 289.160156 59.421875 291.230469 61.117188 C 293.296875 62.816406 295.324219 64.5625 297.304688 66.359375 C 299.289062 68.15625 301.226562 70.003906 303.117188 71.894531 C 305.011719 73.785156 306.855469 75.722656 308.652344 77.707031 C 310.449219 79.6875 312.195312 81.714844 313.894531 83.78125 C 315.589844 85.851562 317.238281 87.960938 318.832031 90.109375 C 320.425781 92.257812 321.964844 94.445312 323.453125 96.671875 C 324.9375 98.894531 326.371094 101.15625 327.746094 103.449219 C 329.121094 105.746094 330.4375 108.074219 331.699219 110.433594 C 332.960938 112.792969 334.164062 115.183594 335.308594 117.601562 C 336.453125 120.019531 337.535156 122.464844 338.5625 124.9375 C 339.585938 127.410156 340.546875 129.90625 341.449219 132.425781 C 342.351562 134.945312 343.1875 137.484375 343.964844 140.042969 C 344.742188 142.605469 345.457031 145.183594 346.105469 147.777344 C 346.757812 150.375 347.34375 152.984375 347.863281 155.609375 C 348.386719 158.234375 348.84375 160.867188 349.238281 163.515625 C 349.628906 166.164062 349.957031 168.816406 350.21875 171.480469 C 350.480469 174.144531 350.679688 176.8125 350.808594 179.484375 C 350.941406 182.15625 351.007812 184.832031 351.007812 187.507812 Z M 351.007812 187.507812 " fill-opacity="1" fill-rule="nonzero"/></g><path fill="#ffffff" d="M 158.730469 94.855469 C 134.96875 103.140625 114.476562 120.796875 103.140625 143.46875 C 99.214844 151.316406 96.382812 159.382812 94.636719 168.105469 C 90.277344 189.46875 93.332031 212.140625 103.140625 231.542969 C 109.460938 244.1875 118.617188 255.523438 129.734375 264.242188 C 140.199219 272.527344 152.410156 278.847656 165.269531 282.117188 C 181.621094 286.476562 199.058594 286.261719 215.410156 282.554688 C 230.234375 279.066406 244.40625 272.089844 255.742188 261.625 C 267.730469 250.726562 276.015625 236.339844 280.59375 220.859375 C 285.386719 204.074219 286.042969 185.980469 282.992188 168.757812 C 252.253906 168.757812 221.515625 168.757812 190.777344 168.757812 C 190.777344 181.621094 190.777344 194.265625 190.777344 207.125 C 208.652344 207.125 226.308594 207.125 244.1875 207.125 C 242.222656 219.335938 234.8125 230.671875 224.566406 237.429688 C 218.027344 241.789062 210.613281 244.621094 202.984375 245.929688 C 195.355469 247.238281 187.289062 247.457031 179.441406 245.929688 C 171.59375 244.402344 164.179688 241.132812 157.640625 236.339844 C 147.175781 228.925781 139.109375 218.246094 135.1875 206.253906 C 131.042969 194.046875 131.042969 180.3125 135.1875 168.105469 C 138.238281 159.601562 143.035156 151.535156 149.355469 144.996094 C 157.203125 136.929688 167.449219 131.042969 178.785156 128.644531 C 188.378906 126.683594 198.1875 126.902344 207.5625 129.734375 C 215.410156 132.132812 222.605469 136.496094 228.707031 142.164062 C 234.8125 136.058594 240.699219 130.171875 246.800781 124.066406 C 250.074219 120.796875 253.34375 117.746094 256.394531 114.476562 C 247.238281 105.972656 236.554688 99.214844 224.785156 94.855469 C 203.636719 87.664062 180.09375 87.445312 158.730469 94.855469 Z M 158.730469 94.855469 " fill-opacity="1" fill-rule="nonzero"/><path fill="#ea4335" d="M 158.730469 95.074219 C 179.875 87.878906 203.636719 87.878906 224.785156 95.726562 C 236.339844 100.089844 247.238281 106.628906 256.175781 115.347656 C 253.125 118.617188 249.855469 121.671875 246.800781 124.941406 C 240.699219 131.042969 234.8125 136.929688 228.707031 143.035156 C 222.824219 137.367188 215.628906 133.007812 207.5625 130.609375 C 198.40625 127.773438 188.160156 127.339844 178.785156 129.519531 C 167.886719 131.917969 157.421875 137.800781 149.574219 145.867188 C 143.253906 152.410156 138.238281 160.257812 135.40625 168.976562 C 124.722656 160.691406 114.039062 152.410156 103.359375 144.125 C 114.695312 121.015625 134.96875 103.140625 158.730469 95.074219 Z M 158.730469 95.074219 " fill-opacity="1" fill-rule="nonzero"/><path fill="#fbbc05" d="M 94.855469 168.105469 C 96.601562 159.601562 99.433594 151.316406 103.359375 143.46875 C 114.039062 151.753906 124.722656 160.039062 135.40625 168.324219 C 131.261719 180.53125 131.261719 194.265625 135.40625 206.472656 C 124.722656 214.757812 114.039062 223.039062 103.359375 231.324219 C 93.546875 212.140625 90.496094 189.46875 94.855469 168.105469 Z M 94.855469 168.105469 " fill-opacity="1" fill-rule="nonzero"/><path fill="#4285f4" d="M 190.777344 169.195312 C 221.515625 169.195312 252.253906 169.195312 282.992188 169.195312 C 286.042969 186.417969 285.386719 204.292969 280.59375 221.078125 C 276.015625 236.554688 267.730469 250.726562 255.742188 261.84375 C 245.277344 253.777344 235.03125 245.710938 224.566406 237.644531 C 234.8125 230.671875 242.007812 219.550781 244.1875 207.34375 C 226.308594 207.34375 208.652344 207.34375 190.777344 207.34375 C 190.777344 194.699219 190.777344 181.839844 190.777344 169.195312 Z M 190.777344 169.195312 " fill-opacity="1" fill-rule="nonzero"/><path fill="#34a853" d="M 103.359375 231.542969 C 114.039062 223.257812 124.722656 214.972656 135.40625 206.691406 C 139.546875 218.679688 147.394531 229.363281 157.859375 236.773438 C 164.398438 241.351562 171.808594 244.621094 179.660156 246.148438 C 187.289062 247.675781 195.355469 247.457031 202.984375 246.148438 C 210.613281 244.839844 218.027344 242.007812 224.566406 237.644531 C 235.03125 245.710938 245.277344 253.777344 255.742188 261.84375 C 244.40625 272.308594 230.453125 279.285156 215.628906 282.773438 C 199.277344 286.476562 181.839844 286.695312 165.488281 282.335938 C 152.625 278.847656 140.417969 272.746094 129.953125 264.460938 C 118.835938 255.523438 109.679688 243.96875 103.359375 231.542969 Z M 103.359375 231.542969 " fill-opacity="1" fill-rule="nonzero"/></svg>