<svg xmlns="http://www.w3.org/2000/svg" xmlns:xlink="http://www.w3.org/1999/xlink" width="500" zoomAndPan="magnify" viewBox="0 0 375 374.999991" height="500" preserveAspectRatio="xMidYMid meet" version="1.0"><defs><clipPath id="id1"><path d="M 69.375 18.75 L 305.625 18.75 L 305.625 356.25 L 69.375 356.25 Z M 69.375 18.75 " clip-rule="nonzero"/></clipPath></defs><g clip-path="url(#id1)"><path fill="#ff1616" d="M 187.5 18.75 C 122.277344 18.75 69.375 71.652344 69.375 136.875 C 69.375 225.46875 187.5 356.25 187.5 356.25 C 187.5 356.25 305.625 225.46875 305.625 136.875 C 305.625 71.652344 252.722656 18.75 187.5 18.75 Z M 187.5 179.0625 C 164.210938 179.0625 145.3125 160.164062 145.3125 136.875 C 145.3125 113.589844 164.210938 94.6875 187.5 94.6875 C 210.789062 94.6875 229.6875 113.589844 229.6875 136.875 C 229.6875 160.164062 210.789062 179.0625 187.5 179.0625 Z M 187.5 179.0625 " fill-opacity="1" fill-rule="nonzero"/></g></svg>