<svg xmlns="http://www.w3.org/2000/svg" xmlns:xlink="http://www.w3.org/1999/xlink" width="500" zoomAndPan="magnify" viewBox="0 0 375 374.999991" height="500" preserveAspectRatio="xMidYMid meet" version="1.0"><defs><clipPath id="id1"><path d="M 37.433594 37.433594 L 337.433594 37.433594 L 337.433594 337.433594 L 37.433594 337.433594 Z M 37.433594 37.433594 " clip-rule="nonzero"/></clipPath></defs><g clip-path="url(#id1)"><path fill="#34a853" d="M 187.433594 337.433594 C 184.980469 337.433594 182.527344 337.375 180.074219 337.253906 C 177.621094 337.132812 175.175781 336.953125 172.730469 336.710938 C 170.289062 336.472656 167.855469 336.171875 165.425781 335.8125 C 162.996094 335.453125 160.578125 335.03125 158.171875 334.550781 C 155.761719 334.074219 153.367188 333.535156 150.988281 332.941406 C 148.605469 332.34375 146.242188 331.6875 143.890625 330.976562 C 141.542969 330.261719 139.210938 329.492188 136.902344 328.667969 C 134.589844 327.839844 132.300781 326.957031 130.03125 326.015625 C 127.765625 325.078125 125.519531 324.082031 123.300781 323.035156 C 121.082031 321.984375 118.890625 320.878906 116.726562 319.722656 C 114.558594 318.566406 112.425781 317.355469 110.320312 316.09375 C 108.214844 314.832031 106.140625 313.519531 104.097656 312.15625 C 102.058594 310.792969 100.050781 309.378906 98.078125 307.917969 C 96.109375 306.453125 94.171875 304.945312 92.277344 303.386719 C 90.378906 301.828125 88.519531 300.226562 86.699219 298.578125 C 84.882812 296.929688 83.105469 295.238281 81.367188 293.5 C 79.632812 291.765625 77.941406 289.988281 76.292969 288.167969 C 74.644531 286.351562 73.039062 284.492188 71.484375 282.59375 C 69.925781 280.695312 68.417969 278.761719 66.953125 276.789062 C 65.492188 274.816406 64.078125 272.8125 62.714844 270.769531 C 61.351562 268.730469 60.039062 266.65625 58.777344 264.550781 C 57.511719 262.445312 56.304688 260.308594 55.148438 258.144531 C 53.988281 255.980469 52.886719 253.789062 51.835938 251.566406 C 50.785156 249.347656 49.792969 247.105469 48.851562 244.835938 C 47.914062 242.570312 47.03125 240.28125 46.203125 237.96875 C 45.375 235.65625 44.605469 233.328125 43.894531 230.976562 C 43.179688 228.628906 42.527344 226.261719 41.929688 223.882812 C 41.332031 221.5 40.796875 219.105469 40.316406 216.699219 C 39.839844 214.289062 39.417969 211.871094 39.058594 209.445312 C 38.699219 207.015625 38.398438 204.582031 38.15625 202.136719 C 37.917969 199.695312 37.734375 197.246094 37.617188 194.796875 C 37.496094 192.34375 37.433594 189.890625 37.433594 187.433594 C 37.433594 184.980469 37.496094 182.527344 37.617188 180.074219 C 37.734375 177.621094 37.917969 175.175781 38.15625 172.730469 C 38.398438 170.289062 38.699219 167.855469 39.058594 165.425781 C 39.417969 162.996094 39.839844 160.578125 40.316406 158.171875 C 40.796875 155.765625 41.332031 153.371094 41.929688 150.988281 C 42.527344 148.605469 43.179688 146.242188 43.894531 143.890625 C 44.605469 141.542969 45.375 139.210938 46.203125 136.902344 C 47.03125 134.589844 47.914062 132.300781 48.851562 130.03125 C 49.792969 127.765625 50.785156 125.519531 51.835938 123.300781 C 52.886719 121.082031 53.988281 118.890625 55.148438 116.726562 C 56.304688 114.558594 57.511719 112.425781 58.777344 110.320312 C 60.039062 108.214844 61.351562 106.140625 62.714844 104.097656 C 64.078125 102.058594 65.492188 100.050781 66.953125 98.078125 C 68.417969 96.109375 69.925781 94.171875 71.484375 92.277344 C 73.039062 90.378906 74.644531 88.519531 76.292969 86.699219 C 77.941406 84.882812 79.632812 83.105469 81.367188 81.367188 C 83.105469 79.632812 84.882812 77.941406 86.699219 76.292969 C 88.519531 74.644531 90.378906 73.039062 92.277344 71.484375 C 94.171875 69.925781 96.109375 68.417969 98.078125 66.953125 C 100.050781 65.492188 102.058594 64.078125 104.097656 62.714844 C 106.140625 61.351562 108.214844 60.039062 110.320312 58.777344 C 112.425781 57.511719 114.558594 56.304688 116.726562 55.148438 C 118.890625 53.988281 121.082031 52.886719 123.300781 51.835938 C 125.519531 50.785156 127.765625 49.792969 130.03125 48.851562 C 132.300781 47.914062 134.589844 47.03125 136.902344 46.203125 C 139.210938 45.375 141.542969 44.605469 143.890625 43.894531 C 146.242188 43.179688 148.605469 42.527344 150.988281 41.929688 C 153.367188 41.332031 155.761719 40.796875 158.171875 40.316406 C 160.578125 39.839844 162.996094 39.417969 165.425781 39.058594 C 167.855469 38.699219 170.289062 38.398438 172.730469 38.15625 C 175.175781 37.917969 177.621094 37.734375 180.074219 37.617188 C 182.527344 37.496094 184.980469 37.433594 187.433594 37.433594 C 189.890625 37.433594 192.34375 37.496094 194.796875 37.617188 C 197.246094 37.734375 199.695312 37.917969 202.136719 38.15625 C 204.582031 38.398438 207.015625 38.699219 209.445312 39.058594 C 211.871094 39.417969 214.289062 39.839844 216.699219 40.316406 C 219.105469 40.796875 221.5 41.332031 223.882812 41.929688 C 226.261719 42.527344 228.628906 43.179688 230.976562 43.894531 C 233.328125 44.605469 235.65625 45.375 237.96875 46.203125 C 240.28125 47.03125 242.570312 47.914062 244.835938 48.851562 C 247.105469 49.792969 249.347656 50.785156 251.566406 51.835938 C 253.789062 52.886719 255.980469 53.988281 258.144531 55.148438 C 260.308594 56.304688 262.445312 57.511719 264.550781 58.777344 C 266.65625 60.039062 268.730469 61.351562 270.769531 62.714844 C 272.8125 64.078125 274.816406 65.492188 276.789062 66.953125 C 278.761719 68.417969 280.695312 69.925781 282.59375 71.484375 C 284.492188 73.039062 286.351562 74.644531 288.167969 76.292969 C 289.988281 77.941406 291.765625 79.632812 293.5 81.367188 C 295.238281 83.105469 296.929688 84.882812 298.578125 86.699219 C 300.226562 88.519531 301.828125 90.378906 303.386719 92.277344 C 304.945312 94.171875 306.453125 96.109375 307.914062 98.078125 C 309.378906 100.050781 310.792969 102.058594 312.15625 104.097656 C 313.519531 106.140625 314.832031 108.214844 316.09375 110.320312 C 317.355469 112.425781 318.566406 114.558594 319.722656 116.726562 C 320.878906 118.890625 321.984375 121.082031 323.03125 123.300781 C 324.082031 125.519531 325.078125 127.765625 326.015625 130.03125 C 326.957031 132.300781 327.839844 134.589844 328.667969 136.902344 C 329.492188 139.210938 330.261719 141.542969 330.976562 143.890625 C 331.6875 146.242188 332.34375 148.605469 332.9375 150.988281 C 333.535156 153.371094 334.074219 155.765625 334.550781 158.171875 C 335.03125 160.578125 335.449219 162.996094 335.8125 165.425781 C 336.171875 167.855469 336.472656 170.289062 336.710938 172.730469 C 336.953125 175.175781 337.132812 177.621094 337.253906 180.074219 C 337.375 182.527344 337.433594 184.980469 337.433594 187.433594 C 337.433594 189.890625 337.367188 192.339844 337.246094 194.792969 C 337.121094 197.242188 336.941406 199.691406 336.695312 202.132812 C 336.453125 204.574219 336.152344 207.007812 335.789062 209.4375 C 335.425781 211.863281 335.003906 214.28125 334.523438 216.6875 C 334.042969 219.09375 333.503906 221.484375 332.90625 223.867188 C 332.308594 226.246094 331.652344 228.609375 330.9375 230.957031 C 330.222656 233.304688 329.453125 235.636719 328.625 237.945312 C 327.796875 240.253906 326.910156 242.542969 325.96875 244.808594 C 325.03125 247.078125 324.035156 249.320312 322.984375 251.539062 C 321.933594 253.753906 320.828125 255.945312 319.671875 258.109375 C 318.515625 260.273438 317.304688 262.40625 316.042969 264.511719 C 314.777344 266.617188 313.464844 268.6875 312.101562 270.730469 C 310.738281 272.769531 309.324219 274.773438 307.863281 276.746094 C 306.398438 278.714844 304.890625 280.652344 303.332031 282.546875 C 301.777344 284.445312 300.171875 286.300781 298.523438 288.121094 C 296.878906 289.9375 295.183594 291.714844 293.449219 293.449219 C 291.714844 295.183594 289.9375 296.878906 288.121094 298.527344 C 286.300781 300.171875 284.445312 301.777344 282.546875 303.332031 C 280.648438 304.890625 278.714844 306.398438 276.746094 307.863281 C 274.773438 309.324219 272.769531 310.738281 270.730469 312.101562 C 268.6875 313.464844 266.617188 314.777344 264.511719 316.042969 C 262.40625 317.304688 260.273438 318.515625 258.109375 319.671875 C 255.945312 320.828125 253.753906 321.933594 251.539062 322.984375 C 249.320312 324.035156 247.078125 325.03125 244.808594 325.96875 C 242.542969 326.910156 240.253906 327.796875 237.945312 328.625 C 235.636719 329.453125 233.304688 330.222656 230.957031 330.9375 C 228.609375 331.652344 226.246094 332.308594 223.867188 332.90625 C 221.484375 333.503906 219.09375 334.042969 216.6875 334.523438 C 214.28125 335.003906 211.863281 335.425781 209.4375 335.789062 C 207.007812 336.152344 204.574219 336.453125 202.132812 336.695312 C 199.691406 336.941406 197.242188 337.121094 194.792969 337.246094 C 192.339844 337.367188 189.890625 337.433594 187.433594 337.433594 Z M 116.855469 301.5625 C 119.488281 303.191406 122.175781 304.730469 124.917969 306.175781 C 127.660156 307.621094 130.445312 308.96875 133.28125 310.21875 C 136.113281 311.472656 138.988281 312.625 141.902344 313.675781 C 144.816406 314.730469 147.765625 315.679688 150.746094 316.527344 C 153.722656 317.375 156.730469 318.117188 159.761719 318.757812 C 162.792969 319.398438 165.84375 319.933594 168.910156 320.359375 C 171.980469 320.789062 175.058594 321.109375 178.152344 321.324219 C 181.242188 321.539062 184.335938 321.644531 187.433594 321.644531 C 190.53125 321.644531 193.628906 321.539062 196.71875 321.324219 C 199.808594 321.109375 202.890625 320.789062 205.957031 320.359375 C 209.027344 319.933594 212.078125 319.398438 215.109375 318.757812 C 218.140625 318.117188 221.144531 317.375 224.125 316.527344 C 227.105469 315.679688 230.050781 314.730469 232.964844 313.675781 C 235.878906 312.625 238.753906 311.472656 241.589844 310.21875 C 244.421875 308.96875 247.210938 307.621094 249.953125 306.175781 C 252.691406 304.730469 255.378906 303.191406 258.015625 301.5625 C 254.144531 281.933594 236.382812 209.066406 187.433594 209.066406 C 138.488281 209.066406 120.722656 281.933594 116.855469 301.5625 Z M 215.964844 200.066406 C 251.523438 218.144531 266.714844 267.960938 272.066406 291.566406 C 273.847656 290.121094 275.585938 288.628906 277.289062 287.09375 C 278.992188 285.5625 280.65625 283.984375 282.277344 282.363281 C 283.898438 280.742188 285.480469 279.082031 287.015625 277.382812 C 288.554688 275.679688 290.046875 273.941406 291.492188 272.164062 C 292.941406 270.386719 294.34375 268.574219 295.699219 266.722656 C 297.050781 264.875 298.359375 262.992188 299.617188 261.074219 C 300.875 259.160156 302.085938 257.210938 303.242188 255.234375 C 304.402344 253.253906 305.507812 251.246094 306.566406 249.214844 C 307.621094 247.179688 308.625 245.117188 309.574219 243.03125 C 310.523438 240.945312 311.421875 238.835938 312.261719 236.703125 C 313.105469 234.570312 313.890625 232.417969 314.625 230.246094 C 315.355469 228.074219 316.03125 225.882812 316.652344 223.675781 C 317.269531 221.46875 317.832031 219.246094 318.339844 217.011719 C 318.84375 214.773438 319.292969 212.527344 319.683594 210.265625 C 320.074219 208.007812 320.40625 205.742188 320.679688 203.464844 C 320.957031 201.1875 321.171875 198.90625 321.328125 196.621094 C 321.484375 194.332031 321.585938 192.042969 321.625 189.75 C 321.664062 187.457031 321.644531 185.167969 321.570312 182.875 C 321.492188 180.585938 321.355469 178.296875 321.160156 176.011719 C 320.964844 173.726562 320.714844 171.449219 320.402344 169.179688 C 320.089844 166.90625 319.722656 164.644531 319.292969 162.394531 C 318.867188 160.140625 318.382812 157.898438 317.839844 155.671875 C 317.296875 153.445312 316.699219 151.234375 316.042969 149.035156 C 315.390625 146.839844 314.675781 144.660156 313.910156 142.5 C 313.144531 140.339844 312.320312 138.199219 311.445312 136.082031 C 310.570312 133.964844 309.636719 131.867188 308.652344 129.796875 C 307.671875 127.726562 306.632812 125.683594 305.542969 123.664062 C 304.457031 121.648438 303.316406 119.660156 302.125 117.699219 C 300.933594 115.742188 299.695312 113.8125 298.40625 111.917969 C 297.117188 110.023438 295.777344 108.160156 294.394531 106.335938 C 293.007812 104.507812 291.578125 102.71875 290.101562 100.964844 C 288.625 99.210938 287.105469 97.496094 285.539062 95.820312 C 283.976562 94.144531 282.371094 92.507812 280.722656 90.914062 C 279.074219 89.320312 277.386719 87.769531 275.65625 86.265625 C 273.929688 84.757812 272.164062 83.296875 270.363281 81.878906 C 268.558594 80.460938 266.722656 79.09375 264.847656 77.769531 C 262.976562 76.449219 261.070312 75.175781 259.132812 73.949219 C 257.195312 72.722656 255.226562 71.550781 253.226562 70.425781 C 251.230469 69.300781 249.203125 68.230469 247.152344 67.210938 C 245.097656 66.191406 243.019531 65.222656 240.917969 64.308594 C 238.816406 63.394531 236.691406 62.535156 234.542969 61.730469 C 232.398438 60.925781 230.230469 60.179688 228.046875 59.484375 C 225.859375 58.789062 223.660156 58.152344 221.441406 57.574219 C 219.222656 56.992188 216.992188 56.46875 214.746094 56 C 212.503906 55.535156 210.25 55.125 207.984375 54.773438 C 205.71875 54.425781 203.445312 54.132812 201.164062 53.898438 C 198.882812 53.664062 196.597656 53.488281 194.308594 53.367188 C 192.019531 53.25 189.726562 53.191406 187.433594 53.191406 C 185.140625 53.191406 182.851562 53.25 180.5625 53.367188 C 178.273438 53.488281 175.988281 53.664062 173.707031 53.898438 C 171.425781 54.132812 169.152344 54.425781 166.886719 54.773438 C 164.621094 55.125 162.367188 55.535156 160.121094 56 C 157.878906 56.46875 155.644531 56.992188 153.429688 57.574219 C 151.210938 58.152344 149.007812 58.789062 146.824219 59.484375 C 144.640625 60.179688 142.472656 60.925781 140.324219 61.730469 C 138.179688 62.535156 136.054688 63.394531 133.953125 64.308594 C 131.847656 65.222656 129.769531 66.191406 127.71875 67.210938 C 125.664062 68.230469 123.640625 69.300781 121.640625 70.425781 C 119.644531 71.550781 117.675781 72.722656 115.738281 73.949219 C 113.796875 75.175781 111.894531 76.449219 110.019531 77.769531 C 108.148438 79.09375 106.308594 80.460938 104.507812 81.878906 C 102.703125 83.296875 100.941406 84.757812 99.210938 86.265625 C 97.484375 87.769531 95.796875 89.320312 94.148438 90.914062 C 92.5 92.507812 90.894531 94.144531 89.328125 95.820312 C 87.765625 97.496094 86.246094 99.210938 84.769531 100.964844 C 83.292969 102.71875 81.859375 104.507812 80.476562 106.335938 C 79.089844 108.160156 77.753906 110.023438 76.464844 111.917969 C 75.175781 113.8125 73.933594 115.742188 72.742188 117.699219 C 71.554688 119.660156 70.414062 121.648438 69.324219 123.664062 C 68.234375 125.683594 67.199219 127.726562 66.214844 129.796875 C 65.230469 131.867188 64.300781 133.964844 63.425781 136.082031 C 62.546875 138.199219 61.726562 140.339844 60.960938 142.5 C 60.191406 144.660156 59.480469 146.839844 58.824219 149.035156 C 58.171875 151.234375 57.570312 153.445312 57.027344 155.671875 C 56.488281 157.898438 56.003906 160.140625 55.574219 162.394531 C 55.148438 164.644531 54.777344 166.90625 54.46875 169.179688 C 54.15625 171.449219 53.902344 173.726562 53.707031 176.011719 C 53.515625 178.296875 53.378906 180.585938 53.300781 182.875 C 53.222656 185.167969 53.203125 187.457031 53.246094 189.75 C 53.285156 192.042969 53.382812 194.332031 53.542969 196.621094 C 53.699219 198.90625 53.914062 201.1875 54.1875 203.464844 C 54.464844 205.742188 54.796875 208.007812 55.1875 210.265625 C 55.578125 212.527344 56.023438 214.773438 56.53125 217.011719 C 57.035156 219.246094 57.597656 221.46875 58.21875 223.675781 C 58.839844 225.882812 59.515625 228.074219 60.246094 230.246094 C 60.976562 232.417969 61.765625 234.570312 62.605469 236.703125 C 63.449219 238.835938 64.34375 240.945312 65.296875 243.03125 C 66.246094 245.117188 67.25 247.179688 68.304688 249.214844 C 69.359375 251.246094 70.46875 253.253906 71.625 255.234375 C 72.785156 257.210938 73.992188 259.160156 75.25 261.074219 C 76.511719 262.992188 77.816406 264.875 79.171875 266.722656 C 80.527344 268.574219 81.929688 270.386719 83.375 272.164062 C 84.824219 273.941406 86.316406 275.679688 87.855469 277.382812 C 89.390625 279.082031 90.96875 280.742188 92.59375 282.363281 C 94.214844 283.984375 95.875 285.5625 97.578125 287.09375 C 99.28125 288.628906 101.023438 290.121094 102.804688 291.566406 C 108.15625 268.007812 123.328125 218.144531 158.902344 200.066406 C 158.191406 199.566406 157.492188 199.046875 156.808594 198.507812 C 156.125 197.96875 155.453125 197.414062 154.796875 196.839844 C 154.140625 196.269531 153.503906 195.679688 152.878906 195.070312 C 152.253906 194.464844 151.644531 193.839844 151.054688 193.203125 C 150.460938 192.5625 149.886719 191.910156 149.332031 191.242188 C 148.773438 190.570312 148.234375 189.886719 147.714844 189.191406 C 147.191406 188.492188 146.691406 187.78125 146.207031 187.058594 C 145.722656 186.332031 145.257812 185.597656 144.8125 184.847656 C 144.371094 184.101562 143.945312 183.339844 143.539062 182.570312 C 143.136719 181.800781 142.75 181.019531 142.386719 180.226562 C 142.023438 179.433594 141.679688 178.636719 141.359375 177.824219 C 141.039062 177.015625 140.738281 176.199219 140.460938 175.375 C 140.179688 174.550781 139.925781 173.71875 139.691406 172.878906 C 139.453125 172.042969 139.242188 171.195312 139.050781 170.347656 C 138.863281 169.496094 138.695312 168.644531 138.550781 167.785156 C 138.40625 166.925781 138.28125 166.066406 138.183594 165.199219 C 138.082031 164.335938 138.003906 163.46875 137.953125 162.597656 C 137.898438 161.730469 137.867188 160.859375 137.859375 159.988281 C 137.851562 159.117188 137.863281 158.246094 137.902344 157.378906 C 137.941406 156.507812 138 155.640625 138.082031 154.773438 C 138.167969 153.90625 138.273438 153.042969 138.402344 152.179688 C 138.53125 151.320312 138.683594 150.464844 138.855469 149.609375 C 139.03125 148.757812 139.226562 147.910156 139.445312 147.066406 C 139.664062 146.222656 139.90625 145.386719 140.167969 144.554688 C 140.429688 143.726562 140.714844 142.902344 141.019531 142.089844 C 141.328125 141.273438 141.65625 140.46875 142.003906 139.667969 C 142.351562 138.871094 142.722656 138.082031 143.113281 137.304688 C 143.5 136.527344 143.914062 135.757812 144.34375 135 C 144.773438 134.246094 145.222656 133.5 145.695312 132.765625 C 146.164062 132.035156 146.652344 131.3125 147.160156 130.605469 C 147.667969 129.898438 148.195312 129.207031 148.738281 128.527344 C 149.28125 127.847656 149.84375 127.179688 150.421875 126.53125 C 151.003906 125.882812 151.597656 125.246094 152.210938 124.628906 C 152.824219 124.011719 153.453125 123.40625 154.097656 122.824219 C 154.742188 122.238281 155.402344 121.667969 156.074219 121.117188 C 156.75 120.566406 157.4375 120.035156 158.140625 119.519531 C 158.84375 119.007812 159.558594 118.511719 160.289062 118.035156 C 161.015625 117.558594 161.757812 117.097656 162.511719 116.660156 C 163.261719 116.222656 164.027344 115.804688 164.800781 115.410156 C 165.574219 115.011719 166.359375 114.632812 167.15625 114.277344 C 167.949219 113.921875 168.753906 113.585938 169.566406 113.273438 C 170.378906 112.960938 171.199219 112.667969 172.023438 112.398438 C 172.851562 112.125 173.6875 111.878906 174.527344 111.652344 C 175.367188 111.425781 176.214844 111.21875 177.066406 111.039062 C 177.917969 110.855469 178.773438 110.695312 179.632812 110.558594 C 180.492188 110.421875 181.355469 110.308594 182.222656 110.214844 C 183.085938 110.125 183.953125 110.054688 184.824219 110.011719 C 185.695312 109.964844 186.5625 109.941406 187.433594 109.941406 C 188.304688 109.941406 189.175781 109.964844 190.046875 110.011719 C 190.914062 110.054688 191.78125 110.125 192.648438 110.214844 C 193.515625 110.308594 194.378906 110.421875 195.238281 110.558594 C 196.097656 110.695312 196.953125 110.855469 197.804688 111.039062 C 198.65625 111.21875 199.5 111.425781 200.34375 111.652344 C 201.183594 111.878906 202.015625 112.125 202.84375 112.398438 C 203.671875 112.667969 204.492188 112.960938 205.304688 113.273438 C 206.117188 113.585938 206.921875 113.921875 207.714844 114.277344 C 208.507812 114.632812 209.292969 115.011719 210.070312 115.410156 C 210.84375 115.804688 211.605469 116.222656 212.359375 116.660156 C 213.113281 117.097656 213.851562 117.558594 214.582031 118.035156 C 215.308594 118.511719 216.027344 119.003906 216.726562 119.519531 C 217.429688 120.035156 218.117188 120.566406 218.792969 121.117188 C 219.46875 121.667969 220.128906 122.238281 220.773438 122.824219 C 221.417969 123.40625 222.046875 124.011719 222.65625 124.628906 C 223.269531 125.246094 223.867188 125.882812 224.445312 126.53125 C 225.023438 127.179688 225.585938 127.847656 226.132812 128.527344 C 226.675781 129.207031 227.203125 129.898438 227.710938 130.605469 C 228.21875 131.3125 228.707031 132.035156 229.175781 132.765625 C 229.644531 133.5 230.097656 134.246094 230.527344 135 C 230.957031 135.757812 231.367188 136.527344 231.757812 137.304688 C 232.148438 138.082031 232.515625 138.871094 232.867188 139.667969 C 233.214844 140.46875 233.542969 141.273438 233.847656 142.089844 C 234.15625 142.902344 234.4375 143.726562 234.703125 144.554688 C 234.964844 145.386719 235.207031 146.222656 235.425781 147.066406 C 235.644531 147.910156 235.839844 148.757812 236.011719 149.609375 C 236.1875 150.464844 236.339844 151.320312 236.46875 152.179688 C 236.597656 153.042969 236.703125 153.90625 236.785156 154.773438 C 236.871094 155.640625 236.929688 156.507812 236.96875 157.378906 C 237.003906 158.246094 237.019531 159.117188 237.011719 159.988281 C 237.003906 160.859375 236.972656 161.730469 236.917969 162.597656 C 236.863281 163.46875 236.789062 164.335938 236.6875 165.199219 C 236.585938 166.066406 236.464844 166.925781 236.320312 167.785156 C 236.175781 168.644531 236.007812 169.496094 235.816406 170.347656 C 235.625 171.195312 235.414062 172.042969 235.179688 172.878906 C 234.945312 173.71875 234.6875 174.550781 234.410156 175.375 C 234.132812 176.199219 233.832031 177.015625 233.511719 177.824219 C 233.1875 178.636719 232.847656 179.433594 232.484375 180.226562 C 232.117188 181.019531 231.734375 181.800781 231.328125 182.570312 C 230.925781 183.339844 230.5 184.101562 230.054688 184.847656 C 229.609375 185.597656 229.144531 186.332031 228.664062 187.058594 C 228.179688 187.78125 227.675781 188.492188 227.15625 189.191406 C 226.632812 189.886719 226.09375 190.570312 225.539062 191.242188 C 224.980469 191.910156 224.40625 192.5625 223.816406 193.203125 C 223.222656 193.839844 222.617188 194.464844 221.992188 195.070312 C 221.367188 195.679688 220.726562 196.269531 220.070312 196.839844 C 219.417969 197.414062 218.746094 197.96875 218.0625 198.507812 C 217.375 199.046875 216.679688 199.566406 215.964844 200.066406 Z M 187.433594 125.699219 C 186.328125 125.699219 185.222656 125.753906 184.121094 125.859375 C 183.023438 125.96875 181.929688 126.132812 180.84375 126.347656 C 179.757812 126.5625 178.683594 126.832031 177.625 127.152344 C 176.566406 127.472656 175.527344 127.847656 174.503906 128.269531 C 173.480469 128.695312 172.484375 129.167969 171.507812 129.6875 C 170.53125 130.210938 169.582031 130.777344 168.664062 131.394531 C 167.742188 132.007812 166.855469 132.664062 166 133.367188 C 165.144531 134.070312 164.324219 134.8125 163.542969 135.59375 C 162.757812 136.378906 162.015625 137.195312 161.316406 138.050781 C 160.613281 138.90625 159.953125 139.796875 159.339844 140.714844 C 158.726562 141.636719 158.15625 142.582031 157.636719 143.558594 C 157.113281 144.535156 156.640625 145.535156 156.21875 146.558594 C 155.792969 147.578125 155.421875 148.621094 155.101562 149.679688 C 154.777344 150.738281 154.511719 151.808594 154.292969 152.894531 C 154.078125 153.980469 153.917969 155.074219 153.808594 156.175781 C 153.699219 157.277344 153.644531 158.382812 153.644531 159.488281 C 153.644531 160.59375 153.699219 161.699219 153.808594 162.800781 C 153.917969 163.902344 154.078125 164.996094 154.292969 166.078125 C 154.511719 167.164062 154.777344 168.238281 155.101562 169.296875 C 155.421875 170.355469 155.792969 171.394531 156.21875 172.417969 C 156.640625 173.441406 157.113281 174.441406 157.636719 175.414062 C 158.15625 176.390625 158.726562 177.339844 159.339844 178.261719 C 159.953125 179.179688 160.613281 180.066406 161.316406 180.921875 C 162.015625 181.777344 162.757812 182.597656 163.542969 183.378906 C 164.324219 184.164062 165.144531 184.90625 166 185.605469 C 166.855469 186.308594 167.742188 186.96875 168.664062 187.582031 C 169.582031 188.199219 170.53125 188.765625 171.507812 189.289062 C 172.484375 189.808594 173.480469 190.28125 174.503906 190.703125 C 175.527344 191.128906 176.566406 191.5 177.625 191.820312 C 178.683594 192.144531 179.757812 192.410156 180.84375 192.628906 C 181.929688 192.84375 183.023438 193.007812 184.121094 193.113281 C 185.222656 193.222656 186.328125 193.277344 187.433594 193.277344 C 188.542969 193.277344 189.644531 193.222656 190.746094 193.113281 C 191.847656 193.007812 192.941406 192.84375 194.027344 192.628906 C 195.113281 192.410156 196.183594 192.144531 197.242188 191.820312 C 198.300781 191.5 199.34375 191.128906 200.367188 190.703125 C 201.386719 190.28125 202.386719 189.808594 203.363281 189.289062 C 204.339844 188.765625 205.285156 188.199219 206.207031 187.582031 C 207.128906 186.96875 208.015625 186.308594 208.871094 185.605469 C 209.726562 184.90625 210.546875 184.164062 211.328125 183.378906 C 212.109375 182.597656 212.851562 181.777344 213.554688 180.921875 C 214.257812 180.066406 214.914062 179.179688 215.53125 178.261719 C 216.144531 177.339844 216.710938 176.390625 217.234375 175.414062 C 217.757812 174.441406 218.230469 173.441406 218.652344 172.417969 C 219.074219 171.394531 219.449219 170.355469 219.769531 169.296875 C 220.089844 168.238281 220.359375 167.164062 220.574219 166.078125 C 220.789062 164.996094 220.953125 163.902344 221.0625 162.800781 C 221.171875 161.699219 221.222656 160.59375 221.222656 159.488281 C 221.222656 158.382812 221.167969 157.277344 221.058594 156.175781 C 220.949219 155.074219 220.785156 153.984375 220.570312 152.898438 C 220.351562 151.8125 220.085938 150.742188 219.761719 149.683594 C 219.441406 148.625 219.066406 147.582031 218.644531 146.5625 C 218.21875 145.539062 217.746094 144.542969 217.226562 143.566406 C 216.703125 142.589844 216.136719 141.640625 215.519531 140.722656 C 214.90625 139.804688 214.246094 138.914062 213.542969 138.058594 C 212.84375 137.207031 212.101562 136.386719 211.316406 135.605469 C 210.535156 134.820312 209.71875 134.078125 208.863281 133.378906 C 208.007812 132.675781 207.121094 132.015625 206.199219 131.402344 C 205.28125 130.789062 204.332031 130.21875 203.355469 129.695312 C 202.382812 129.175781 201.382812 128.703125 200.359375 128.277344 C 199.339844 127.855469 198.296875 127.480469 197.238281 127.160156 C 196.179688 126.839844 195.109375 126.570312 194.023438 126.351562 C 192.941406 126.136719 191.847656 125.972656 190.746094 125.863281 C 189.644531 125.753906 188.542969 125.699219 187.433594 125.699219 Z M 187.433594 125.699219 " fill-opacity="1" fill-rule="nonzero"/></g></svg>