<svg xmlns="http://www.w3.org/2000/svg" xmlns:xlink="http://www.w3.org/1999/xlink" width="500" zoomAndPan="magnify" viewBox="0 0 375 374.999991" height="500" preserveAspectRatio="xMidYMid meet" version="1.0"><defs><clipPath id="id1"><path d="M 24.289062 57 L 350 57 L 350 317.929688 L 24.289062 317.929688 Z M 24.289062 57 " clip-rule="nonzero"/></clipPath></defs><g clip-path="url(#id1)"><path fill="#000000" d="M 175.160156 57.390625 C 172.367188 57.390625 169.523438 58.445312 167.199219 60.75 L 89.214844 138.738281 L 56.75 138.738281 C 38.816406 138.738281 24.289062 153.265625 24.289062 171.199219 L 24.289062 203.664062 C 24.289062 221.597656 38.816406 236.125 56.75 236.125 L 89.214844 236.125 L 167.199219 314.113281 C 169.523438 316.433594 172.367188 317.472656 175.160156 317.472656 C 181 317.472656 186.601562 312.941406 186.601562 306.09375 L 186.601562 68.769531 C 186.601562 61.921875 181 57.390625 175.160156 57.390625 Z M 235.136719 122.347656 C 234.335938 122.347656 233.535156 122.40625 232.742188 122.523438 C 231.949219 122.644531 231.167969 122.820312 230.398438 123.054688 C 229.632812 123.289062 228.886719 123.578125 228.160156 123.925781 C 227.4375 124.269531 226.742188 124.667969 226.074219 125.113281 C 225.410156 125.5625 224.78125 126.058594 224.1875 126.601562 C 223.59375 127.140625 223.046875 127.722656 222.539062 128.347656 C 222.035156 128.972656 221.578125 129.628906 221.167969 130.320312 C 220.761719 131.011719 220.40625 131.726562 220.101562 132.472656 C 219.800781 133.214844 219.554688 133.976562 219.367188 134.757812 C 219.175781 135.539062 219.046875 136.328125 218.972656 137.128906 C 218.902344 137.925781 218.890625 138.726562 218.9375 139.527344 C 218.984375 140.332031 219.089844 141.125 219.253906 141.910156 C 219.417969 142.695312 219.640625 143.464844 219.917969 144.21875 C 220.199219 144.96875 220.53125 145.699219 220.917969 146.402344 C 221.304688 147.105469 221.742188 147.777344 222.226562 148.414062 C 222.714844 149.054688 223.246094 149.652344 223.820312 150.214844 L 261.039062 187.429688 L 223.820312 224.648438 C 223.433594 225.023438 223.0625 225.414062 222.714844 225.824219 C 222.363281 226.234375 222.035156 226.660156 221.730469 227.101562 C 221.421875 227.542969 221.136719 228 220.875 228.472656 C 220.613281 228.941406 220.375 229.425781 220.164062 229.917969 C 219.949219 230.414062 219.761719 230.917969 219.597656 231.429688 C 219.433594 231.945312 219.296875 232.464844 219.183594 232.988281 C 219.070312 233.515625 218.988281 234.046875 218.929688 234.582031 C 218.867188 235.117188 218.835938 235.65625 218.832031 236.195312 C 218.824219 236.734375 218.847656 237.269531 218.894531 237.804688 C 218.941406 238.34375 219.019531 238.875 219.117188 239.40625 C 219.21875 239.933594 219.347656 240.457031 219.5 240.972656 C 219.652344 241.488281 219.832031 241.996094 220.035156 242.496094 C 220.238281 242.992188 220.464844 243.480469 220.71875 243.957031 C 220.96875 244.433594 221.246094 244.894531 221.542969 245.34375 C 221.839844 245.792969 222.160156 246.226562 222.503906 246.640625 C 222.84375 247.058594 223.203125 247.457031 223.585938 247.835938 C 223.964844 248.21875 224.363281 248.578125 224.78125 248.921875 C 225.199219 249.261719 225.628906 249.582031 226.078125 249.878906 C 226.527344 250.175781 226.988281 250.453125 227.464844 250.703125 C 227.941406 250.957031 228.429688 251.183594 228.925781 251.386719 C 229.425781 251.589844 229.933594 251.769531 230.449219 251.921875 C 230.964844 252.074219 231.488281 252.203125 232.019531 252.304688 C 232.546875 252.40625 233.078125 252.480469 233.617188 252.527344 C 234.152344 252.574219 234.691406 252.597656 235.226562 252.589844 C 235.765625 252.585938 236.304688 252.554688 236.839844 252.496094 C 237.375 252.4375 237.90625 252.351562 238.433594 252.238281 C 238.960938 252.128906 239.480469 251.988281 239.992188 251.824219 C 240.503906 251.664062 241.007812 251.472656 241.503906 251.261719 C 241.996094 251.046875 242.480469 250.808594 242.949219 250.546875 C 243.421875 250.285156 243.878906 250 244.320312 249.695312 C 244.761719 249.386719 245.1875 249.058594 245.597656 248.710938 C 246.007812 248.359375 246.398438 247.992188 246.773438 247.601562 L 283.992188 210.382812 L 321.207031 247.601562 C 321.582031 247.992188 321.972656 248.359375 322.382812 248.710938 C 322.792969 249.058594 323.21875 249.386719 323.660156 249.695312 C 324.101562 250 324.558594 250.285156 325.03125 250.546875 C 325.5 250.808594 325.984375 251.046875 326.476562 251.261719 C 326.972656 251.472656 327.476562 251.664062 327.988281 251.824219 C 328.503906 251.988281 329.023438 252.128906 329.550781 252.238281 C 330.074219 252.351562 330.605469 252.4375 331.140625 252.496094 C 331.675781 252.554688 332.214844 252.585938 332.753906 252.589844 C 333.292969 252.597656 333.828125 252.574219 334.367188 252.527344 C 334.902344 252.480469 335.433594 252.40625 335.964844 252.304688 C 336.492188 252.203125 337.015625 252.074219 337.53125 251.921875 C 338.046875 251.769531 338.554688 251.589844 339.054688 251.386719 C 339.550781 251.183594 340.039062 250.957031 340.515625 250.703125 C 340.992188 250.453125 341.453125 250.175781 341.902344 249.878906 C 342.351562 249.582031 342.785156 249.261719 343.199219 248.921875 C 343.617188 248.578125 344.015625 248.21875 344.394531 247.835938 C 344.777344 247.457031 345.136719 247.058594 345.480469 246.640625 C 345.820312 246.226562 346.140625 245.792969 346.4375 245.34375 C 346.734375 244.894531 347.011719 244.433594 347.261719 243.957031 C 347.515625 243.480469 347.742188 242.992188 347.945312 242.496094 C 348.148438 241.996094 348.328125 241.488281 348.480469 240.972656 C 348.632812 240.457031 348.761719 239.933594 348.863281 239.40625 C 348.964844 238.875 349.039062 238.34375 349.085938 237.804688 C 349.132812 237.269531 349.15625 236.734375 349.148438 236.195312 C 349.144531 235.65625 349.113281 235.117188 349.054688 234.582031 C 348.996094 234.046875 348.910156 233.515625 348.796875 232.988281 C 348.6875 232.464844 348.546875 231.945312 348.382812 231.429688 C 348.222656 230.917969 348.03125 230.414062 347.820312 229.917969 C 347.605469 229.425781 347.367188 228.941406 347.105469 228.472656 C 346.84375 228 346.558594 227.542969 346.253906 227.101562 C 345.945312 226.660156 345.617188 226.234375 345.269531 225.824219 C 344.917969 225.414062 344.550781 225.023438 344.160156 224.648438 L 306.941406 187.429688 L 344.160156 150.214844 C 344.742188 149.644531 345.28125 149.039062 345.773438 148.390625 C 346.265625 147.742188 346.707031 147.0625 347.09375 146.351562 C 347.484375 145.636719 347.820312 144.898438 348.097656 144.132812 C 348.375 143.371094 348.59375 142.589844 348.757812 141.792969 C 348.917969 140.996094 349.019531 140.191406 349.058594 139.378906 C 349.097656 138.566406 349.078125 137.753906 348.996094 136.945312 C 348.914062 136.136719 348.773438 135.339844 348.574219 134.550781 C 348.371094 133.761719 348.113281 132.996094 347.796875 132.246094 C 347.480469 131.496094 347.109375 130.777344 346.683594 130.082031 C 346.257812 129.390625 345.78125 128.734375 345.257812 128.109375 C 344.734375 127.488281 344.167969 126.910156 343.554688 126.375 C 342.945312 125.835938 342.296875 125.351562 341.613281 124.910156 C 340.929688 124.472656 340.214844 124.085938 339.472656 123.753906 C 338.730469 123.421875 337.96875 123.148438 337.183594 122.929688 C 336.398438 122.710938 335.605469 122.554688 334.796875 122.457031 C 333.992188 122.359375 333.179688 122.324219 332.367188 122.347656 C 330.257812 122.410156 328.238281 122.867188 326.308594 123.714844 C 324.378906 124.566406 322.679688 125.746094 321.207031 127.261719 L 283.992188 164.480469 L 246.773438 127.261719 C 245.246094 125.691406 243.472656 124.476562 241.453125 123.625 C 239.433594 122.773438 237.328125 122.347656 235.136719 122.347656 Z M 235.136719 122.347656 " fill-opacity="1" fill-rule="nonzero"/></g></svg>