<svg xmlns="http://www.w3.org/2000/svg" xmlns:xlink="http://www.w3.org/1999/xlink" width="500" zoomAndPan="magnify" viewBox="0 0 375 374.999991" height="500" preserveAspectRatio="xMidYMid meet" version="1.0"><defs><clipPath id="id1"><path d="M 32.160156 32.160156 L 342.660156 32.160156 L 342.660156 342.660156 L 32.160156 342.660156 Z M 32.160156 32.160156 " clip-rule="nonzero"/></clipPath></defs><g clip-path="url(#id1)"><path fill="#000000" d="M 330.46875 126.980469 C 322.648438 108.492188 311.457031 91.890625 297.203125 77.636719 C 282.945312 63.378906 266.34375 52.183594 247.851562 44.367188 C 228.703125 36.265625 208.371094 32.160156 187.417969 32.160156 C 166.460938 32.160156 146.128906 36.265625 126.980469 44.367188 C 108.492188 52.183594 91.890625 63.378906 77.636719 77.636719 C 63.378906 91.890625 52.183594 108.492188 44.367188 126.980469 C 36.265625 146.128906 32.160156 166.460938 32.160156 187.417969 C 32.160156 203.828125 34.710938 219.988281 39.738281 235.460938 C 42.078125 242.65625 44.941406 249.652344 48.296875 256.410156 C 49.964844 259.769531 51.757812 263.070312 53.667969 266.300781 C 57.113281 272.128906 64.628906 274.050781 70.441406 270.585938 L 125.871094 236.980469 C 143.046875 254.886719 171.085938 259.226562 193.132812 245.859375 L 234.121094 221.003906 C 235.847656 219.957031 236.402344 217.6875 235.355469 215.964844 L 228.054688 203.921875 L 259 185.160156 C 263.886719 182.195312 265.449219 175.828125 262.484375 170.941406 C 259.519531 166.050781 253.15625 164.492188 248.265625 167.457031 L 217.320312 186.21875 L 200.988281 159.28125 L 231.933594 140.519531 C 236.761719 137.589844 238.339844 131.34375 235.523438 126.476562 C 232.605469 121.441406 226.054688 119.867188 221.078125 122.886719 L 190.253906 141.578125 L 182.953125 129.535156 C 181.90625 127.8125 179.636719 127.257812 177.914062 128.300781 L 136.921875 153.15625 C 114.875 166.523438 105.757812 193.390625 113.695312 216.902344 L 69.492188 243.605469 C 68.9375 243.9375 68.222656 243.71875 67.953125 243.136719 C 57.144531 220.03125 53.257812 194.089844 57.066406 167.699219 C 64.613281 115.382812 113.804688 65.582031 166.015625 57.335938 C 248.160156 44.359375 319.195312 107.695312 319.195312 187.417969 C 319.195312 260.078125 260.078125 319.195312 187.417969 319.195312 C 157.816406 319.195312 129.398438 309.347656 106.300781 291.277344 C 101.484375 287.511719 94.585938 288.074219 90.441406 292.5625 C 85.789062 297.605469 86.433594 305.550781 91.835938 309.777344 C 119.054688 331.074219 152.542969 342.671875 187.417969 342.671875 C 208.371094 342.671875 228.703125 338.566406 247.851562 330.46875 C 266.34375 322.648438 282.945312 311.457031 297.203125 297.203125 C 311.457031 282.945312 322.648438 266.34375 330.46875 247.851562 C 338.566406 228.703125 342.671875 208.371094 342.671875 187.417969 C 342.671875 166.460938 338.566406 146.128906 330.46875 126.980469 " fill-opacity="1" fill-rule="nonzero"/></g></svg>