<svg xmlns="http://www.w3.org/2000/svg" xmlns:xlink="http://www.w3.org/1999/xlink" width="500" zoomAndPan="magnify" viewBox="0 0 375 374.999991" height="500" preserveAspectRatio="xMidYMid meet" version="1.0"><defs><clipPath id="id1"><path d="M 84.433594 105 L 144 105 L 144 156 L 84.433594 156 Z M 84.433594 105 " clip-rule="nonzero"/></clipPath></defs><path fill="#3d5421" d="M 229.753906 126.257812 C 233.023438 120.050781 216.949219 110.378906 212.925781 118.488281 C 208.558594 115.933594 201.078125 111.253906 196.269531 112.792969 C 190.480469 114.648438 185.351562 123.8125 191.5625 127.597656 C 186.148438 123.046875 179.53125 130.050781 178.925781 135.667969 C 178.492188 139.773438 183.21875 148.558594 187.144531 149.660156 C 187.371094 152.597656 189.273438 156.578125 190.976562 158.304688 C 195.6875 163.097656 204.949219 161.058594 206.066406 154.582031 C 206.351562 160.160156 212.289062 162.992188 217.566406 162.457031 C 227.222656 161.484375 223.953125 157.597656 227.453125 151.480469 C 230.070312 146.902344 231.769531 147.996094 235.460938 143.859375 C 240.15625 138.585938 237.445312 125.179688 229.753906 126.257812 " fill-opacity="1" fill-rule="nonzero"/><path fill="#3d5421" d="M 175.890625 140.773438 C 179.15625 134.570312 163.085938 124.898438 159.058594 133.007812 C 154.691406 130.453125 147.210938 125.773438 142.402344 127.316406 C 136.617188 129.167969 131.484375 138.332031 137.695312 142.117188 C 132.28125 137.570312 125.664062 144.570312 125.0625 150.191406 C 124.628906 154.292969 129.351562 163.078125 133.277344 164.175781 C 133.507812 167.117188 135.414062 171.097656 137.109375 172.824219 C 141.824219 177.617188 151.085938 175.574219 152.199219 169.101562 C 152.484375 174.679688 158.421875 177.511719 163.699219 176.976562 C 173.359375 176.003906 170.089844 172.121094 173.589844 165.996094 C 176.207031 161.417969 177.90625 162.515625 181.59375 158.375 C 186.292969 153.105469 183.582031 139.703125 175.890625 140.773438 " fill-opacity="1" fill-rule="nonzero"/><path fill="#3d5421" d="M 257.964844 166.378906 C 261.230469 160.175781 245.160156 150.503906 241.132812 158.613281 C 236.773438 156.054688 229.289062 151.375 224.476562 152.921875 C 218.691406 154.773438 213.5625 163.933594 219.773438 167.71875 C 214.355469 163.175781 207.742188 170.171875 207.136719 175.792969 C 206.703125 179.894531 211.429688 188.683594 215.355469 189.78125 C 215.582031 192.726562 217.488281 196.703125 219.1875 198.425781 C 223.898438 203.21875 233.164062 201.183594 234.277344 194.707031 C 234.5625 200.285156 240.5 203.113281 245.777344 202.582031 C 255.433594 201.609375 252.167969 197.722656 255.664062 191.597656 C 258.28125 187.023438 259.976562 188.117188 263.671875 183.980469 C 268.367188 178.714844 265.65625 165.304688 257.964844 166.378906 " fill-opacity="1" fill-rule="nonzero"/><g clip-path="url(#id1)"><path fill="#3d5421" d="M 135.699219 119.226562 C 138.96875 113.023438 122.894531 103.351562 118.871094 111.460938 C 114.503906 108.90625 107.023438 104.230469 102.214844 105.769531 C 96.421875 107.621094 91.292969 116.785156 97.503906 120.570312 C 92.09375 116.019531 85.472656 123.023438 84.871094 128.644531 C 84.4375 132.746094 89.160156 141.535156 93.085938 142.628906 C 93.3125 145.570312 95.21875 149.550781 96.917969 151.277344 C 101.628906 156.070312 110.890625 154.027344 112.011719 147.554688 C 112.296875 153.132812 118.230469 155.960938 123.511719 155.429688 C 133.164062 154.457031 129.898438 150.570312 133.398438 144.449219 C 136.015625 139.871094 137.714844 140.96875 141.40625 136.828125 C 146.101562 131.558594 143.390625 118.15625 135.699219 119.226562 " fill-opacity="1" fill-rule="nonzero"/></g><path fill="#65962c" d="M 257.964844 76.015625 C 261.230469 69.808594 245.160156 60.136719 241.132812 68.246094 C 236.773438 65.6875 229.289062 61.011719 224.476562 62.554688 C 218.691406 64.40625 213.5625 73.570312 219.773438 77.355469 C 214.355469 72.808594 207.742188 79.808594 207.136719 85.429688 C 206.703125 89.527344 211.429688 98.316406 215.355469 99.417969 C 215.582031 102.359375 217.488281 106.339844 219.1875 108.0625 C 223.898438 112.855469 233.164062 110.816406 234.277344 104.339844 C 234.5625 109.917969 240.5 112.746094 245.777344 112.214844 C 255.433594 111.246094 252.167969 107.359375 255.664062 101.234375 C 258.28125 96.65625 259.976562 97.753906 263.671875 93.617188 C 268.367188 88.347656 265.65625 74.9375 257.964844 76.015625 " fill-opacity="1" fill-rule="nonzero"/><path fill="#65962c" d="M 272.613281 151.269531 C 275.878906 145.066406 259.804688 135.394531 255.78125 143.503906 C 251.410156 140.949219 243.933594 136.269531 239.121094 137.8125 C 233.332031 139.664062 228.207031 148.828125 234.417969 152.613281 C 229.003906 148.0625 222.382812 155.066406 221.78125 160.6875 C 221.347656 164.789062 226.070312 173.574219 229.992188 174.671875 C 230.222656 177.617188 232.132812 181.59375 233.832031 183.320312 C 238.539062 188.113281 247.800781 186.070312 248.921875 179.597656 C 249.203125 185.175781 255.140625 188.003906 260.421875 187.472656 C 270.078125 186.503906 266.808594 182.617188 270.308594 176.496094 C 272.925781 171.914062 274.625 173.007812 278.316406 168.871094 C 283.011719 163.605469 280.300781 150.195312 272.613281 151.269531 " fill-opacity="1" fill-rule="nonzero"/><path fill="#65962c" d="M 201.347656 48.035156 C 205.121094 40.863281 186.539062 29.679688 181.890625 39.058594 C 176.839844 36.105469 168.195312 30.695312 162.628906 32.476562 C 155.941406 34.617188 150.011719 45.210938 157.191406 49.585938 C 150.933594 44.328125 143.28125 52.421875 142.585938 58.917969 C 142.082031 63.660156 147.546875 73.820312 152.078125 75.09375 C 152.347656 78.488281 154.550781 83.089844 156.511719 85.085938 C 161.960938 90.621094 172.667969 88.269531 173.960938 80.785156 C 174.285156 87.226562 181.148438 90.503906 187.253906 89.882812 C 198.414062 88.761719 194.640625 84.265625 198.683594 77.191406 C 201.707031 71.902344 203.671875 73.167969 207.9375 68.382812 C 213.367188 62.292969 210.238281 46.792969 201.347656 48.035156 " fill-opacity="1" fill-rule="nonzero"/><path fill="#9b6736" d="M 251.144531 173.078125 C 243.453125 172.75 239.214844 174.9375 231.785156 176.898438 C 235.59375 166.265625 248.457031 163.105469 251.25 153.277344 C 252.5 148.878906 254.78125 145.609375 248.789062 144.367188 C 240.761719 142.703125 243.375 150.039062 239.9375 154.628906 C 226.910156 172.007812 215.542969 187.558594 204.824219 207.023438 C 208.820312 190.941406 203.542969 179.734375 215.453125 166.4375 C 226.539062 154.0625 229.066406 146.089844 235.574219 131.160156 C 238.9375 123.4375 263.457031 104.484375 242.183594 113.964844 C 226.375 121.007812 227.4375 139.429688 218.097656 151.59375 C 215.207031 146.890625 212.679688 141.285156 208.488281 136.550781 C 205.957031 140.476562 208.117188 144.074219 207.199219 147 C 205.75 151.636719 204.488281 155.773438 202.171875 161.226562 C 198.898438 168.953125 194.5625 179.714844 192.886719 187.621094 C 189.121094 205.425781 193.582031 225.234375 186.738281 242.652344 C 181.386719 231.425781 184.710938 216.242188 182.417969 204.851562 C 179.046875 188.109375 178.777344 180.242188 183.695312 163.796875 C 187.0625 152.546875 183.070312 137.878906 189.019531 126.589844 C 192.019531 120.894531 197.96875 117.164062 201.238281 111.375 C 204.410156 105.757812 205.433594 98.652344 208.722656 92.890625 C 206.074219 90.308594 205.78125 87.019531 205.898438 83.363281 L 196.054688 83.363281 C 196.300781 88.75 197.515625 93.921875 195.628906 99.226562 C 192.898438 106.914062 185.511719 114.710938 181.382812 122.554688 C 179.558594 110.9375 172.394531 101.84375 168.171875 90.984375 C 167.265625 88.65625 168.109375 85.703125 168.125 83.363281 L 156.632812 83.363281 C 155.941406 86.429688 157.582031 90.730469 158.257812 94.210938 C 160.832031 107.480469 166.945312 116.761719 167.878906 130.867188 C 168.628906 142.277344 168.15625 154.207031 167.898438 166.113281 C 160.628906 152.800781 159.273438 137.820312 149.292969 125.304688 C 145.289062 120.277344 141.160156 116.117188 136.832031 112.339844 L 136.832031 146.980469 C 147.128906 155.140625 156.203125 162.019531 161.300781 177.023438 C 167.5625 195.457031 169.925781 216.628906 170.230469 237.738281 C 170.386719 238.144531 170.5 238.59375 170.515625 239.097656 C 171.699219 272.910156 176.328125 308.046875 169.746094 341.476562 C 178.121094 341.578125 185.734375 345.429688 193.46875 340.628906 C 190.058594 323.390625 193.339844 306.730469 192.953125 289.25 C 192.5625 271.242188 194.996094 253.746094 203.859375 237.769531 C 208.09375 230.132812 215 221.703125 217.800781 214.082031 C 220.941406 205.535156 220.15625 197.992188 226.066406 190.332031 C 239.347656 173.125 256.429688 190.296875 269.515625 171.984375 C 259.058594 177.464844 260.828125 173.488281 251.144531 173.078125 " fill-opacity="1" fill-rule="nonzero"/><path fill="#8d5b31" d="M 225.472656 175.027344 C 224.773438 177.847656 222.421875 180.046875 220.855469 182.421875 C 219.242188 184.871094 218.261719 187.757812 216.882812 190.34375 C 214.074219 195.574219 213.09375 201.640625 210.929688 207.140625 C 209.84375 209.910156 208.503906 212.515625 207.058594 215.109375 C 206.082031 216.851562 204.867188 217.578125 203.566406 219.046875 C 202.859375 219.84375 202.164062 220.699219 201.488281 221.59375 C 202.292969 212.78125 201.320312 203.648438 200.464844 195.003906 C 199.316406 183.402344 201.457031 168.535156 210.210938 160.007812 C 212.242188 158.027344 209.125 154.917969 207.09375 156.898438 C 199.285156 164.503906 196.558594 176.082031 195.6875 186.613281 C 195.253906 191.863281 196.109375 197.390625 196.832031 202.59375 C 197.644531 208.472656 197.699219 215.359375 196.832031 221.21875 C 195.265625 231.816406 192.484375 242.351562 189.5625 252.679688 C 188.835938 255.257812 188.539062 257.765625 188.316406 260.429688 C 188.089844 263.089844 186.664062 266.234375 186.863281 268.882812 C 187.089844 271.914062 186.484375 274.695312 185.523438 277.53125 C 185.648438 272.859375 185.769531 268.183594 185.722656 263.488281 C 185.621094 254.019531 181.625 245.050781 181.339844 235.710938 C 181.1875 231.023438 180.449219 226.375 180.449219 221.691406 C 180.449219 218.128906 180.125 214.34375 179.265625 210.878906 C 178.226562 206.679688 178.601562 202.503906 177.890625 198.289062 C 177.277344 194.609375 176.839844 190.929688 175.769531 187.34375 C 174.382812 182.710938 175.230469 177.652344 174.789062 172.863281 C 174.542969 170.148438 174.816406 166.835938 175.046875 164.171875 C 175.425781 159.78125 176.835938 155.542969 177.089844 151.140625 C 177.195312 149.296875 177.496094 147.640625 177.90625 146.0625 L 177.9375 146.0625 C 178.117188 144.589844 178.457031 143.148438 178.921875 141.738281 C 179.273438 140.691406 179.839844 139.753906 180.554688 138.992188 C 180.632812 138.648438 180.710938 138.300781 180.796875 137.953125 L 180.8125 137.921875 C 180.878906 137.738281 180.921875 137.570312 180.945312 137.402344 C 181.535156 135.265625 182.367188 133.164062 182.957031 131.859375 C 184.625 128.183594 187.609375 125.175781 189.515625 121.589844 C 191.152344 118.507812 192.515625 115.285156 194.136719 112.203125 C 195.828125 108.996094 198.039062 106.105469 199.539062 102.808594 C 200.699219 100.25 196.90625 98.007812 195.734375 100.589844 C 194.050781 104.277344 191.589844 107.59375 189.695312 111.191406 C 187.445312 115.46875 185.878906 120.390625 182.796875 124.175781 C 180.371094 127.167969 178.492188 130.371094 177.554688 134.113281 C 177.398438 134.738281 177.21875 135.363281 177.035156 135.992188 C 176.84375 136.195312 176.679688 136.449219 176.5625 136.75 C 176.53125 136.835938 176.496094 136.921875 176.460938 137.011719 C 175.820312 134.785156 175.035156 132.578125 174.660156 130.476562 C 174.1875 127.859375 173.53125 125.554688 172.617188 123.042969 C 171.933594 121.171875 169.964844 117.550781 170.679688 115.480469 C 170.949219 114.695312 170.769531 114.042969 170.363281 113.578125 C 169.351562 114.390625 168.015625 114.898438 166.351562 114.898438 L 166.273438 114.894531 C 165.371094 118.769531 168.1875 123.6875 169.425781 127.140625 C 170.433594 129.949219 170.621094 133.0625 171.308594 135.972656 C 171.941406 138.644531 173.308594 141.148438 172.957031 143.9375 C 172.886719 144.507812 173.027344 144.960938 173.273438 145.300781 C 173.199219 145.53125 173.109375 145.75 173.039062 145.988281 C 172.554688 147.546875 172.734375 149.527344 172.683594 151.140625 C 172.59375 153.902344 171.839844 156.71875 171.363281 159.445312 C 170.085938 166.761719 171.054688 173.449219 170.632812 180.828125 C 170.378906 185.214844 172.503906 188.902344 172.523438 193.136719 C 172.546875 196.890625 173.808594 200.460938 173.871094 204.269531 C 173.933594 208.523438 175.398438 212.492188 175.671875 216.707031 C 175.953125 220.988281 176.144531 225.234375 176.648438 229.507812 C 177.171875 233.929688 176.707031 238.289062 177.886719 242.628906 C 179.152344 247.300781 179.90625 252.113281 180.707031 256.886719 C 181.480469 261.527344 181.371094 266.171875 181.167969 270.863281 C 180.972656 275.316406 181.300781 279.640625 180.941406 284.117188 C 180.574219 288.605469 180.96875 293.191406 180.816406 297.695312 C 180.652344 302.554688 180 307.378906 179.734375 312.226562 C 179.457031 317.289062 179.144531 322.335938 178.015625 327.296875 C 177.253906 330.660156 176.867188 334.757812 175.507812 338.050781 C 176.691406 339.023438 177.855469 340.019531 179.007812 341.03125 C 180.585938 337.878906 180.574219 334.867188 181.496094 331.347656 C 182.609375 327.074219 183.34375 322.863281 183.746094 318.464844 C 184.601562 309.082031 185.296875 299.582031 185.296875 290.164062 L 185.296875 290.023438 C 186.527344 288.785156 186.957031 287.136719 187.507812 285.480469 C 188.523438 282.449219 189.648438 279.429688 190.496094 276.351562 C 191.292969 273.484375 190.964844 270.984375 191.382812 268.144531 C 191.773438 265.554688 192.464844 263.0625 192.71875 260.429688 C 193.578125 251.679688 196.546875 243.308594 198.878906 234.828125 C 199.472656 234.628906 199.980469 234.175781 200.203125 233.390625 C 201.628906 228.1875 205.390625 224.089844 208.882812 220.28125 C 211.824219 217.082031 213.570312 212.304688 215.179688 208.3125 C 217.65625 202.175781 219.136719 195.910156 222.03125 189.917969 C 223.492188 186.902344 224.847656 184.101562 226.953125 181.453125 C 228.214844 179.859375 229.234375 178.175781 229.71875 176.195312 C 230.402344 173.441406 226.148438 172.273438 225.472656 175.027344 " fill-opacity="1" fill-rule="nonzero"/><path fill="#8d5b31" d="M 148.988281 142.199219 C 147.765625 139.742188 146.789062 137.054688 145.300781 134.769531 C 143.363281 131.800781 140.371094 129.757812 138.289062 126.984375 C 138.019531 126.621094 137.683594 126.378906 137.328125 126.234375 C 137.125 127.578125 136.96875 128.929688 136.832031 130.296875 L 136.832031 131.695312 C 137.566406 132.402344 138.296875 133.113281 138.894531 133.933594 C 139.5625 134.851562 140.152344 135.945312 141 136.691406 C 142.527344 138.042969 141.878906 138.910156 142.859375 140.207031 C 144.464844 142.328125 145.296875 144.824219 146.0625 147.355469 C 146.203125 147.824219 146.394531 148.300781 146.597656 148.777344 C 147.796875 147.539062 149.121094 146.632812 150.617188 146.054688 C 150.121094 144.703125 149.574219 143.371094 148.988281 142.199219 " fill-opacity="1" fill-rule="nonzero"/><path fill="#80cc28" d="M 227.695312 82.339844 C 223.003906 74.433594 218.886719 80.328125 213.105469 83.359375 C 217.890625 77.386719 219.238281 67.300781 210.648438 63.582031 C 205.125 61.1875 197.863281 66.21875 196.457031 72.519531 C 193.632812 69.917969 185.992188 71.035156 182.699219 75.28125 C 179.53125 79.375 179.121094 85.132812 181.046875 89.753906 C 177.007812 89.945312 171.1875 94.195312 171.890625 100.246094 C 172.625 106.519531 182.351562 112.957031 187.632812 112.742188 L 189.730469 111.691406 C 186.566406 118.050781 193.894531 129.8125 200.1875 130.457031 C 205.09375 130.957031 211.027344 123.730469 209.398438 118.777344 C 218.578125 124.078125 229.503906 107.171875 221.867188 97.660156 C 227.054688 94.878906 231.136719 88.136719 227.695312 82.339844 " fill-opacity="1" fill-rule="nonzero"/><path fill="#80cc28" d="M 184.183594 59.484375 C 188.234375 51.792969 168.308594 39.796875 163.3125 49.855469 C 157.902344 46.6875 148.625 40.882812 142.660156 42.789062 C 135.480469 45.09375 129.125 56.453125 136.820312 61.148438 C 130.109375 55.507812 121.902344 64.191406 121.160156 71.15625 C 120.617188 76.246094 126.476562 87.140625 131.339844 88.503906 C 131.628906 92.148438 133.992188 97.085938 136.097656 99.222656 C 141.9375 105.167969 153.421875 102.636719 154.808594 94.609375 C 155.160156 101.527344 162.519531 105.03125 169.066406 104.371094 C 181.042969 103.167969 176.988281 98.347656 181.332031 90.761719 C 184.574219 85.082031 186.679688 86.441406 191.257812 81.308594 C 197.082031 74.777344 193.722656 58.152344 184.183594 59.484375 " fill-opacity="1" fill-rule="nonzero"/><path fill="#65962c" d="M 198.394531 109.058594 C 202.445312 101.363281 182.515625 89.371094 177.519531 99.425781 C 172.109375 96.257812 162.832031 90.460938 156.867188 92.367188 C 149.6875 94.667969 143.332031 106.03125 151.03125 110.722656 C 144.316406 105.082031 136.109375 113.761719 135.367188 120.734375 C 134.824219 125.816406 140.683594 136.714844 145.550781 138.078125 C 145.835938 141.722656 148.199219 146.660156 150.308594 148.796875 C 156.148438 154.738281 167.632812 152.210938 169.019531 144.183594 C 169.371094 151.097656 176.730469 154.605469 183.277344 153.949219 C 195.25 152.742188 191.199219 147.925781 195.539062 140.332031 C 198.785156 134.660156 200.886719 136.011719 205.464844 130.882812 C 211.289062 124.351562 207.933594 107.726562 198.394531 109.058594 " fill-opacity="1" fill-rule="nonzero"/><path fill="#65962c" d="M 146.453125 93.199219 C 149.71875 86.996094 133.644531 77.324219 129.621094 85.433594 C 125.257812 82.878906 117.777344 78.199219 112.964844 79.742188 C 107.175781 81.597656 102.046875 90.757812 108.253906 94.546875 C 102.839844 89.996094 96.222656 96.996094 95.625 102.617188 C 95.191406 106.71875 99.914062 115.507812 103.839844 116.605469 C 104.066406 119.546875 105.972656 123.527344 107.667969 125.25 C 112.382812 130.042969 121.644531 128.003906 122.765625 121.527344 C 123.042969 127.101562 128.984375 129.9375 134.265625 129.402344 C 143.917969 128.429688 140.652344 124.546875 144.152344 118.421875 C 146.769531 113.84375 148.464844 114.941406 152.15625 110.804688 C 156.855469 105.535156 154.144531 92.128906 146.453125 93.199219 " fill-opacity="1" fill-rule="nonzero"/><path fill="#80cc28" d="M 255.960938 103.035156 C 261.75 91.519531 247.988281 87.460938 239.9375 90.765625 C 236.191406 92.296875 226.8125 100.6875 226.992188 105.738281 C 218.695312 106.179688 208.164062 125.746094 226.105469 134.304688 C 227.480469 133.007812 229.371094 132.035156 230.523438 130.511719 L 228.429688 133.648438 C 227.417969 140.011719 222.511719 152.320312 230.496094 155.855469 C 235.96875 158.277344 244.644531 151.523438 246.230469 145.738281 C 256.332031 166.820312 281.589844 128.574219 264.066406 124.613281 C 283.039062 121.515625 272.746094 81.980469 255.960938 103.035156 " fill-opacity="1" fill-rule="nonzero"/><path fill="#80cc28" d="M 144.746094 106.464844 L 142.660156 104.371094 C 155.386719 77.574219 86.265625 84.277344 120.320312 110.492188 C 108.675781 106.5625 97.5625 117.007812 95.71875 128.683594 C 94.300781 137.65625 105.472656 156.390625 113.214844 155.816406 C 113.832031 161.917969 119.503906 170.628906 127.375 170.15625 C 140.5 169.359375 142.675781 153.550781 138.769531 143.113281 C 145.132812 147.890625 157.226562 140.828125 160.539062 132.859375 C 163.863281 124.855469 156.511719 96.253906 144.746094 106.464844 " fill-opacity="1" fill-rule="nonzero"/><path fill="#80cc28" d="M 276.96875 174.683594 C 282.789062 166.152344 282.761719 155.257812 270.269531 152.238281 C 263.53125 150.609375 252.003906 158.660156 253.25 165.019531 C 248.605469 165.101562 238.828125 165.734375 236.933594 171.207031 C 234.414062 178.5 244.847656 185.410156 251.09375 184.300781 C 242.464844 187.316406 244.371094 195.734375 249.53125 200.476562 C 256.65625 207.011719 269.71875 201.101562 267.578125 191.433594 C 270.820312 201.820312 284.675781 198.015625 287.867188 189.109375 C 290.675781 181.269531 283.640625 168.46875 276.96875 174.683594 " fill-opacity="1" fill-rule="nonzero"/></svg>