<svg xmlns="http://www.w3.org/2000/svg" xmlns:xlink="http://www.w3.org/1999/xlink" width="500" zoomAndPan="magnify" viewBox="0 0 375 374.999991" height="500" preserveAspectRatio="xMidYMid meet" version="1.0"><defs><clipPath id="id1"><path d="M 70.550781 28 L 304.550781 28 L 304.550781 347.390625 L 70.550781 347.390625 Z M 70.550781 28 " clip-rule="nonzero"/></clipPath></defs><g clip-path="url(#id1)"><path fill="#34a853" d="M 91.820312 177 L 81.1875 177 C 75.316406 177 70.550781 181.765625 70.550781 187.640625 L 70.550781 336.613281 C 70.550781 342.488281 75.316406 347.253906 81.1875 347.253906 L 293.914062 347.253906 C 299.785156 347.253906 304.550781 342.488281 304.550781 336.613281 L 304.550781 187.640625 C 304.550781 181.765625 299.785156 177 293.914062 177 L 283.277344 177 L 283.277344 117.570312 C 283.277344 93.820312 273.84375 71.046875 257.058594 54.257812 C 240.273438 37.464844 217.511719 28.027344 193.773438 28.027344 C 189.632812 28.027344 185.464844 28.027344 181.328125 28.027344 C 157.585938 28.027344 134.824219 37.464844 118.039062 54.257812 C 101.257812 71.046875 91.820312 93.820312 91.820312 117.570312 Z M 272.703125 198.28125 L 91.820312 198.28125 C 91.820312 198.28125 91.820312 325.972656 91.820312 325.972656 C 91.820312 325.972656 283.277344 325.972656 283.277344 325.972656 L 283.277344 198.28125 Z M 176.914062 270.949219 L 176.914062 294.050781 C 176.914062 299.921875 181.679688 304.691406 187.550781 304.691406 C 193.421875 304.691406 198.1875 299.921875 198.1875 294.050781 L 198.1875 270.949219 C 210.578125 266.5625 219.457031 254.730469 219.457031 240.84375 C 219.457031 223.222656 205.164062 208.921875 187.550781 208.921875 C 169.9375 208.921875 155.640625 223.222656 155.640625 240.84375 C 155.640625 254.730469 164.523438 266.5625 176.914062 270.949219 Z M 187.550781 230.203125 C 193.421875 230.203125 198.1875 234.972656 198.1875 240.84375 C 198.1875 246.71875 193.421875 251.484375 187.550781 251.484375 C 181.679688 251.484375 176.914062 246.71875 176.914062 240.84375 C 176.914062 234.972656 181.679688 230.203125 187.550781 230.203125 Z M 113.09375 177 C 113.09375 177 113.09375 117.570312 113.09375 117.570312 C 113.09375 99.457031 120.285156 82.101562 133.082031 69.300781 C 145.875 56.5 163.222656 49.308594 181.328125 49.308594 C 185.464844 49.308594 189.632812 49.308594 193.773438 49.308594 C 211.875 49.308594 229.222656 56.5 242.019531 69.300781 C 254.8125 82.101562 262.003906 99.457031 262.003906 117.570312 L 262.003906 177 Z M 113.09375 177 " fill-opacity="1" fill-rule="evenodd"/></g></svg>