<svg xmlns="http://www.w3.org/2000/svg" xmlns:xlink="http://www.w3.org/1999/xlink" width="500" zoomAndPan="magnify" viewBox="0 0 375 374.999991" height="500" preserveAspectRatio="xMidYMid meet" version="1.0"><defs><clipPath id="id1"><path d="M 46.21875 46.21875 L 328 46.21875 L 328 328 L 46.21875 328 Z M 46.21875 46.21875 " clip-rule="nonzero"/></clipPath></defs><g clip-path="url(#id1)"><path fill="#000000" d="M 227.957031 252.980469 L 297.210938 322.210938 C 304.066406 329.066406 315.203125 329.0625 322.058594 322.207031 C 328.914062 315.347656 328.914062 304.210938 322.054688 297.355469 L 252.847656 228.171875 C 266.769531 209.234375 275 185.851562 275 160.558594 C 275 97.453125 223.769531 46.21875 160.664062 46.21875 C 97.558594 46.21875 46.324219 97.453125 46.324219 160.558594 C 46.324219 223.664062 97.558594 274.894531 160.664062 274.894531 C 185.8125 274.894531 209.070312 266.761719 227.957031 252.980469 Z M 160.664062 81.363281 C 204.371094 81.363281 239.859375 116.847656 239.859375 160.558594 C 239.859375 204.265625 204.371094 239.753906 160.664062 239.753906 C 116.953125 239.753906 81.46875 204.265625 81.46875 160.558594 C 81.46875 116.847656 116.953125 81.363281 160.664062 81.363281 Z M 160.664062 81.363281 " fill-opacity="1" fill-rule="evenodd"/></g></svg>