<svg xmlns="http://www.w3.org/2000/svg" xmlns:xlink="http://www.w3.org/1999/xlink" width="500" zoomAndPan="magnify" viewBox="0 0 375 374.999991" height="500" preserveAspectRatio="xMidYMid meet" version="1.0"><defs><clipPath id="id1"><path d="M 29.105469 37.5 L 345.605469 37.5 L 345.605469 339 L 29.105469 339 Z M 29.105469 37.5 " clip-rule="nonzero"/></clipPath></defs><g clip-path="url(#id1)"><path fill="#f4c01e" d="M 187.355469 37.5 L 228.109375 129.289062 C 229.675781 132.8125 232.140625 135.863281 235.257812 138.132812 C 238.371094 140.398438 242.03125 141.804688 245.859375 142.207031 L 345.59375 152.671875 L 271.046875 219.863281 C 268.183594 222.445312 266.050781 225.734375 264.859375 229.402344 C 263.667969 233.074219 263.464844 236.992188 264.265625 240.765625 L 285.152344 339.019531 L 198.328125 288.757812 C 194.992188 286.828125 191.207031 285.8125 187.355469 285.8125 C 183.503906 285.8125 179.722656 286.828125 176.386719 288.757812 L 89.5625 339.019531 L 110.445312 240.765625 C 111.25 236.992188 111.042969 233.074219 109.855469 229.402344 C 108.664062 225.734375 106.53125 222.445312 103.667969 219.863281 L 29.121094 152.671875 L 128.855469 142.207031 C 132.683594 141.804688 136.339844 140.398438 139.457031 138.132812 C 142.574219 135.863281 145.039062 132.8125 146.605469 129.289062 Z M 187.355469 37.5 " fill-opacity="1" fill-rule="evenodd"/></g></svg>