<svg xmlns="http://www.w3.org/2000/svg" xmlns:xlink="http://www.w3.org/1999/xlink" width="500" zoomAndPan="magnify" viewBox="0 0 375 374.999991" height="500" preserveAspectRatio="xMidYMid meet" version="1.0"><defs><clipPath id="id1"><path d="M 18.75 54.1875 L 356.25 54.1875 L 356.25 149 L 18.75 149 Z M 18.75 54.1875 " clip-rule="nonzero"/></clipPath></defs><path fill="#000000" d="M 90.121094 195.757812 C 117.144531 169.46875 149.59375 155.375 187.554688 155.382812 C 225.503906 155.394531 257.9375 169.507812 284.78125 195.652344 C 292.730469 187.714844 300.605469 179.859375 308.476562 172 C 240.761719 103.308594 130.335938 106.335938 66.457031 172.136719 C 74.300781 179.96875 82.148438 187.796875 90.121094 195.757812 Z M 137.402344 243.574219 C 151.414062 229.949219 168.03125 222.605469 187.511719 222.601562 C 207.023438 222.597656 223.679688 229.980469 237.265625 243.21875 C 245.292969 235.199219 253.164062 227.347656 261.027344 219.488281 C 218.1875 176.460938 151.0625 180.878906 113.769531 219.84375 C 113.90625 220.007812 114.027344 220.191406 114.175781 220.347656 C 121.863281 228.035156 129.554688 235.71875 137.402344 243.574219 Z M 214.699219 293.941406 C 214.703125 278.957031 202.628906 266.84375 187.6875 266.851562 C 172.847656 266.859375 160.734375 278.949219 160.675781 293.804688 C 160.617188 308.746094 172.722656 320.933594 187.640625 320.960938 C 202.617188 320.988281 214.6875 308.925781 214.699219 293.941406 Z M 214.699219 293.941406 " fill-opacity="1" fill-rule="nonzero"/><g clip-path="url(#id1)"><path fill="#000000" d="M 356.261719 125.074219 C 355.792969 125.4375 355.273438 125.75 354.851562 126.167969 C 347.882812 133.136719 340.917969 140.117188 333.972656 147.105469 C 333.539062 147.542969 333.230469 148.105469 332.84375 148.640625 C 292.132812 109.148438 243.972656 88.179688 187.511719 88.179688 C 131.097656 88.179688 82.976562 109.105469 42.414062 148.398438 C 42.039062 148.035156 41.601562 147.628906 41.179688 147.207031 C 34.175781 140.195312 27.179688 133.171875 20.164062 126.167969 C 19.746094 125.75 19.226562 125.4375 18.75 125.074219 C 18.75 124.851562 18.75 124.625 18.75 124.398438 C 19.1875 124.058594 19.652344 123.753906 20.039062 123.371094 C 28.515625 115.097656 37.460938 107.375 47.019531 100.386719 C 72.28125 81.921875 100.070312 68.832031 130.433594 61.308594 C 143.710938 58.015625 157.171875 55.824219 170.847656 55.007812 C 173.527344 54.851562 176.207031 54.582031 178.894531 54.363281 C 184.632812 54.363281 190.378906 54.363281 196.121094 54.363281 C 196.503906 54.441406 196.882812 54.558594 197.269531 54.589844 C 204.214844 55.199219 211.175781 55.644531 218.101562 56.421875 C 232.257812 58.019531 246.089844 61.207031 259.648438 65.566406 C 295.085938 76.964844 326.203125 95.640625 353.007812 121.515625 C 354.046875 122.523438 355.175781 123.441406 356.261719 124.398438 C 356.261719 124.625 356.261719 124.851562 356.261719 125.074219 Z M 356.261719 125.074219 " fill-opacity="1" fill-rule="nonzero"/></g><path fill="#000000" d="M 90.121094 195.757812 C 82.144531 187.796875 74.300781 179.96875 66.457031 172.136719 C 130.335938 106.335938 240.761719 103.308594 308.476562 172 C 300.605469 179.855469 292.730469 187.714844 284.78125 195.652344 C 257.9375 169.507812 225.503906 155.394531 187.554688 155.382812 C 149.59375 155.375 117.144531 169.46875 90.121094 195.757812 Z M 90.121094 195.757812 " fill-opacity="1" fill-rule="nonzero"/><path fill="#000000" d="M 137.402344 243.574219 C 129.554688 235.71875 121.863281 228.035156 114.175781 220.347656 C 114.027344 220.191406 113.90625 220.011719 113.769531 219.847656 C 151.066406 180.878906 218.1875 176.460938 261.027344 219.488281 C 253.164062 227.347656 245.292969 235.203125 237.265625 243.222656 C 223.679688 229.984375 207.023438 222.597656 187.511719 222.601562 C 168.03125 222.605469 151.414062 229.949219 137.402344 243.574219 Z M 137.402344 243.574219 " fill-opacity="1" fill-rule="nonzero"/><path fill="#000000" d="M 214.699219 293.941406 C 214.6875 308.925781 202.617188 320.988281 187.640625 320.960938 C 172.722656 320.933594 160.617188 308.746094 160.675781 293.804688 C 160.730469 278.949219 172.847656 266.859375 187.6875 266.851562 C 202.628906 266.84375 214.703125 278.957031 214.699219 293.941406 Z M 214.699219 293.941406 " fill-opacity="1" fill-rule="nonzero"/></svg>