<svg xmlns="http://www.w3.org/2000/svg" xmlns:xlink="http://www.w3.org/1999/xlink" width="500" zoomAndPan="magnify" viewBox="0 0 375 374.999991" height="500" preserveAspectRatio="xMidYMid meet" version="1.0"><defs><clipPath id="id1"><path d="M 38 38.085938 L 337 38.085938 L 337 336.585938 L 38 336.585938 Z M 38 38.085938 " clip-rule="nonzero"/></clipPath></defs><path fill="#34a853" d="M 211.460938 187.503906 L 333.535156 309.410156 L 309.65625 333.253906 L 187.582031 211.347656 L 65.507812 333.253906 L 41.628906 309.410156 L 163.703125 187.503906 L 41.628906 65.597656 L 65.507812 41.75 L 187.582031 163.660156 L 309.65625 41.75 L 333.535156 65.597656 Z M 211.460938 187.503906 " fill-opacity="1" fill-rule="nonzero"/><g clip-path="url(#id1)"><path fill="#34a853" d="M 309.65625 336.585938 C 308.804688 336.585938 307.945312 336.261719 307.296875 335.613281 L 187.582031 216.0625 L 67.867188 335.613281 C 67.242188 336.238281 66.390625 336.585938 65.507812 336.585938 C 64.625 336.585938 63.773438 336.238281 63.148438 335.613281 L 39.269531 311.765625 C 37.96875 310.46875 37.96875 308.359375 39.269531 307.054688 L 158.984375 187.503906 L 39.269531 67.953125 C 37.96875 66.652344 37.96875 64.546875 39.269531 63.238281 L 63.148438 39.394531 C 63.773438 38.769531 64.625 38.421875 65.507812 38.421875 C 66.390625 38.421875 67.242188 38.769531 67.867188 39.394531 L 187.582031 158.945312 L 307.296875 39.394531 C 308.597656 38.09375 310.707031 38.09375 312.015625 39.394531 L 335.894531 63.238281 C 337.195312 64.539062 337.195312 66.644531 335.894531 67.953125 L 216.179688 187.503906 L 335.894531 307.054688 C 336.519531 307.679688 336.871094 308.527344 336.871094 309.410156 C 336.871094 310.292969 336.519531 311.144531 335.894531 311.765625 L 312.015625 335.613281 C 311.367188 336.261719 310.507812 336.585938 309.65625 336.585938 Z M 187.582031 208.015625 C 188.433594 208.015625 189.292969 208.339844 189.941406 208.992188 L 309.65625 328.542969 L 328.8125 309.410156 L 209.101562 189.859375 C 208.472656 189.234375 208.125 188.386719 208.125 187.503906 C 208.125 186.621094 208.472656 185.769531 209.101562 185.144531 L 328.8125 65.597656 L 309.65625 46.464844 L 189.941406 166.015625 C 188.640625 167.316406 186.523438 167.316406 185.222656 166.015625 L 65.507812 46.464844 L 46.351562 65.597656 L 166.066406 185.144531 C 167.367188 186.445312 167.367188 188.554688 166.066406 189.859375 L 46.351562 309.410156 L 65.507812 328.542969 L 185.222656 208.992188 C 185.871094 208.339844 186.730469 208.015625 187.582031 208.015625 Z M 187.582031 208.015625 " fill-opacity="1" fill-rule="nonzero"/></g></svg>