<svg xmlns="http://www.w3.org/2000/svg" xmlns:xlink="http://www.w3.org/1999/xlink" width="500" zoomAndPan="magnify" viewBox="0 0 375 374.999991" height="500" preserveAspectRatio="xMidYMid meet" version="1.0"><defs><clipPath id="id1"><path d="M 32.625 34 L 342.375 34 L 342.375 344 L 32.625 344 Z M 32.625 34 " clip-rule="nonzero"/></clipPath></defs><g clip-path="url(#id1)"><path fill="#ffffff" d="M 187.5 34.238281 C 101.972656 34.238281 32.625 103.511719 32.625 188.953125 C 32.625 274.394531 101.972656 343.667969 187.5 343.667969 C 273.03125 343.667969 342.375 274.394531 342.375 188.953125 C 342.375 103.511719 273.03125 34.238281 187.5 34.238281 Z M 250.148438 242.40625 C 252.664062 244.90625 252.664062 249.007812 250.148438 251.519531 C 248.882812 252.785156 247.230469 253.402344 245.578125 253.402344 C 243.925781 253.402344 242.273438 252.773438 241.011719 251.519531 L 187.5 198.066406 L 133.992188 251.519531 C 132.726562 252.785156 131.074219 253.402344 129.421875 253.402344 C 127.769531 253.402344 126.117188 252.773438 124.855469 251.519531 C 122.335938 249.007812 122.335938 244.90625 124.855469 242.40625 L 178.363281 188.953125 L 124.855469 135.5 C 122.335938 132.984375 122.335938 128.898438 124.855469 126.382812 C 127.371094 123.871094 131.460938 123.871094 133.980469 126.382812 L 187.488281 179.835938 L 240.996094 126.382812 C 243.515625 123.871094 247.617188 123.871094 250.121094 126.382812 C 252.640625 128.898438 252.640625 132.984375 250.121094 135.5 L 196.613281 188.953125 Z M 250.148438 242.40625 " fill-opacity="1" fill-rule="nonzero"/></g></svg>